<svg width="498" height="504" viewBox="0 0 498 504" fill="none" xmlns="http://www.w3.org/2000/svg">
<path d="M439.836 433.146C429.633 443.983 419.98 450.972 412.353 456.494C322.698 521.4 216.612 502.48 194.066 497.86C160.772 491.037 96.416 477.849 49.8879 422.641C-20.5054 339.116 -9.54408 207.525 45.0578 120.661C55.0454 104.771 107.802 16.5835 215.031 2.44093C279.924 -6.11796 355.569 11.1444 410.349 57.4513C525.337 154.654 517.151 351.02 439.836 433.146Z" fill="url(#paint0_linear_36_397)"/>
<path d="M213.965 264.754C210.38 264.583 64.7562 333.032 58.2577 402.792C58.2577 402.792 14.1204 358.382 64.3056 306.509C114.491 254.636 207.912 211.254 207.912 211.254L213.965 264.754Z" fill="url(#paint1_linear_36_397)"/>
<path d="M166.486 422.055C167.091 422.325 170.595 423.892 174.214 422.592C195.991 414.77 151.457 328.446 181.946 240.802C194.374 205.079 213.919 184.504 209.731 147.287C208.971 140.53 206.395 119.737 192.538 99.3889C183.821 86.5887 177.165 83.5445 165.392 72.4334C128.418 37.5377 131.143 8.16709 114.313 6.35419C95.528 4.33056 67.183 38.2351 69.3453 69.2769C71.7254 103.448 109.592 112.867 107.122 142.416C105.201 165.401 81.775 165.866 76.2965 193.444C69.0241 230.051 103.203 264.968 107.562 269.306C127.005 288.66 134.348 281.035 146.889 295.649C180.971 335.366 144.293 412.134 166.486 422.055Z" fill="#91B3FA"/>
<path d="M124.529 81.7646C127.362 83.9314 130.044 86.2565 132.616 88.7174C135.197 91.1665 137.682 93.7241 140.05 96.393C142.422 99.0577 144.716 101.802 146.881 104.654C149.02 107.523 151.123 110.432 153.051 113.466C154.051 114.959 154.923 116.535 155.866 118.068C156.729 119.648 157.652 121.197 158.465 122.808C159.292 124.411 160.126 126.012 160.87 127.661C161.248 128.482 161.649 129.293 162.008 130.123L163.053 132.631C163.775 134.292 164.339 136.019 164.981 137.716C165.59 139.425 166.101 141.17 166.665 142.898C167.13 144.656 167.644 146.403 168.063 148.175L168.653 150.844C168.857 151.733 169.051 152.624 169.177 153.529C170.427 160.717 170.891 168.064 170.502 175.371L170.355 178.111L170.132 180.758L169.684 186.047C169.375 189.573 169.127 193.102 168.845 196.63C167.769 210.741 166.95 224.867 166.369 238.995C165.246 267.261 165.253 295.522 168.098 323.676C169.324 337.898 169.679 352.127 169.665 366.339C169.634 380.551 169.188 394.749 168.291 408.923L167.481 408.888C167.607 394.714 167.391 380.535 166.934 366.384C166.676 359.309 166.352 352.238 165.887 345.185C165.431 338.132 164.875 331.086 164.055 324.087C162.271 310.016 161.266 295.718 160.762 281.5C160.328 267.26 160.434 253.018 160.832 238.797C161.227 224.573 162.087 210.377 163.081 196.199C163.349 192.656 163.584 189.11 163.88 185.57L164.308 180.258L164.521 177.604L164.68 175.035C165.103 168.184 164.729 161.284 163.611 154.494C163.375 152.79 162.98 151.111 162.674 149.415C162.322 147.729 161.875 146.062 161.481 144.383C160.986 142.729 160.546 141.058 160.008 139.416C159.437 137.785 158.947 136.124 158.296 134.519C155.879 128.034 152.954 121.704 149.459 115.677C147.77 112.628 145.898 109.681 143.983 106.759C142.022 103.868 140.005 101.008 137.883 98.2197C133.602 92.6844 129.042 87.2962 124.015 82.398L124.529 81.7646Z" fill="url(#paint2_linear_36_397)"/>
<path d="M177.516 459.362C180.45 460.917 185.133 461.431 188.048 459.275C199.297 450.955 170.382 413.089 162.249 359.456C152.833 297.357 179.391 267.622 155.368 238.419C143.815 224.375 133.903 226.669 123.189 208.97C108.27 184.322 120.167 167.769 108.26 148.526C94.5658 126.394 57.5454 113.89 32.3406 126.306C-1.55313 143.002 -4.98496 200.281 13.1218 229.952C24.8829 249.225 47.2553 259.348 44.6364 264.795C42.1368 269.994 22.6322 258.953 11.6526 267.542C-2.72565 278.79 0.707798 321.208 21.9028 336.028C41.4129 349.67 73.9757 338.534 75.5159 345.197C76.1217 347.819 71.084 349.554 70.8932 352.872C70.5525 358.793 85.7973 367.128 140.729 378.996C155.608 388.575 162.334 398.908 165.717 406.723C175.699 429.778 166.324 453.433 177.516 459.362Z" fill="#7D97F4"/>
<path d="M61.601 171.436C61.989 184.395 63.5909 197.248 66.6983 209.695C69.7832 222.152 74.3834 234.115 80.4235 245.318C83.4606 250.915 86.7902 256.361 90.3093 261.706C92.123 264.353 93.8868 267.021 95.7657 269.636C97.5981 272.274 99.4584 274.907 101.333 277.532L112.622 293.337L115.424 297.32L118.165 301.355C120.007 304.033 121.782 306.764 123.571 309.484C127.149 314.923 130.58 320.459 133.951 326.03C135.611 328.831 137.289 331.62 138.871 334.467L141.276 338.717L143.621 343.002L145.955 347.292L148.217 351.622L150.473 355.953L152.65 360.327L154.801 364.714L156.863 369.145C158.236 372.099 159.625 375.044 160.899 378.046L162.852 382.526L163.828 384.765L164.748 387.03C165.946 390.062 167.179 393.078 168.347 396.119L171.701 405.303C172.8 408.37 173.757 411.491 174.768 414.587C178.66 427.026 181.841 439.699 183.874 452.55L183.173 452.69C180.056 440.101 176.173 427.766 171.674 415.672L169.938 411.155C169.351 409.652 168.836 408.125 168.194 406.644L164.488 397.71C161.873 391.815 159.266 385.923 156.465 380.118C155.116 377.193 153.652 374.322 152.204 371.444L150.032 367.129L147.77 362.859L145.535 358.576L143.223 354.335L140.907 350.096L138.519 345.898C132.118 334.723 125.445 323.708 118.333 312.985C111.219 302.266 103.748 291.78 96.2835 281.169C94.423 278.511 92.5546 275.857 90.7371 273.151C88.9015 270.468 87.1567 267.695 85.3753 264.961C81.9121 259.407 78.5748 253.743 75.6176 247.852C74.8868 246.376 74.2179 244.866 73.5164 243.375L72.4809 241.131L71.5423 238.841C70.9288 237.309 70.2661 235.799 69.6955 234.252L68.0453 229.589C67.4587 228.048 67.0409 226.45 66.573 224.871L65.8841 222.499C65.6522 221.709 65.4174 220.921 65.2431 220.115C64.4979 216.909 63.6738 213.728 63.0785 210.497C60.6701 197.588 59.891 184.408 60.8869 171.42L61.601 171.436Z" fill="#91B3FA"/>
<path d="M413.662 184.568L417.03 210.727C417.501 214.386 414.865 227.217 418.379 228.238C427.187 230.797 449.109 223.22 459.003 207.645C469.076 191.788 468.47 147.211 447.436 144.633C439.971 143.718 450.254 163.174 419.54 174.669C415.535 176.168 413.111 180.293 413.662 184.568Z" fill="url(#paint3_linear_36_397)"/>
<path d="M148.593 58.2707L396.605 57.2929C410.287 57.239 421.612 68.0133 422.361 81.7984L442.072 444.527C442.659 455.314 434.276 464.448 423.572 464.687L139.339 471.02C129.28 471.244 120.996 463.1 120.957 452.949L119.543 87.8117C119.48 71.5599 132.486 58.3341 148.593 58.2707Z" fill="url(#paint4_linear_36_397)"/>
<path d="M180.857 464.607C180.855 464.607 180.853 464.607 180.853 464.607L149.043 464.317C138.451 464.22 129.801 455.447 129.76 444.761L129.573 396.308C129.572 395.975 129.838 395.704 130.168 395.703H130.17C130.499 395.703 130.767 395.971 130.768 396.303L130.955 444.756C130.993 454.787 139.113 463.021 149.054 463.111L180.862 463.401C181.192 463.404 181.457 463.676 181.454 464.009C181.451 464.34 181.184 464.607 180.857 464.607Z" fill="#91B3FA"/>
<path d="M130.112 381.899C129.783 381.899 129.516 381.631 129.514 381.299L129.484 373.452C129.483 373.12 129.749 372.848 130.079 372.847C130.08 372.847 130.081 372.847 130.082 372.847C130.411 372.847 130.678 373.116 130.679 373.448L130.709 381.294C130.71 381.627 130.444 381.898 130.114 381.899C130.114 381.899 130.112 381.899 130.112 381.899Z" fill="#FAF8F5"/>
<path d="M149.344 55.3267C183.23 59.8273 299.75 73.7006 396.012 65.8627C400.402 65.5054 404.226 68.8472 404.477 73.2838L425.084 437.626C425.367 442.622 421.602 446.91 416.652 447.225C376.163 449.802 209.415 459.808 149.901 453.756C146.279 453.387 143.519 450.322 143.483 446.649L139.769 63.8894C139.718 58.6904 144.235 54.6482 149.344 55.3267Z" fill="#91B3FA"/>
<path opacity="0.6" d="M153.008 64.7656C185.619 69.0968 297.751 82.4476 390.388 74.905C394.613 74.5611 398.293 77.7772 398.534 82.0467L418.365 432.669C418.637 437.477 415.014 441.603 410.251 441.907C371.286 444.387 210.817 454.016 153.544 448.192C150.058 447.837 147.402 444.888 147.368 441.353L143.794 73.0062C143.745 68.0026 148.091 64.1126 153.008 64.7656Z" fill="#FAF8F5"/>
<g opacity="0.6">
<path d="M380.331 144.357C381.646 144.352 382.646 143.265 382.554 141.942L382.538 141.71C382.447 140.387 381.296 139.3 379.982 139.294L169.39 138.45C168.075 138.445 167.673 139.287 168.496 140.321L170.863 143.296C171.685 144.33 173.434 145.172 174.748 145.167L380.331 144.357Z" fill="#FAF8F5"/>
</g>
<g opacity="0.6">
<path d="M169.444 152.466C168.129 152.461 167.727 153.303 168.55 154.337L170.917 157.312C171.739 158.347 173.488 159.189 174.802 159.183L380.386 158.373C381.7 158.368 382.7 157.281 382.609 155.958L382.592 155.726C382.501 154.403 381.35 153.316 380.036 153.311L169.444 152.466Z" fill="#FAF8F5"/>
</g>
<path d="M184.527 190.138C184.523 190.138 184.517 190.138 184.513 190.138L176.586 190.092C175.304 190.085 174.242 189.189 174.115 188.008L173.392 181.301C173.341 180.827 173.484 180.359 173.795 179.982C174.137 179.569 174.652 179.309 175.21 179.268C175.878 179.219 176.796 179.137 177.807 179.046C180.017 178.847 182.522 178.622 184.001 178.597C185.196 178.592 186.224 179.308 186.514 180.373C186.943 181.948 186.919 184.888 186.852 188.018C186.827 189.19 185.785 190.138 184.527 190.138ZM175.297 180.47C175.061 180.488 174.848 180.591 174.713 180.754C174.642 180.841 174.561 180.984 174.58 181.171L175.303 187.878C175.364 188.44 175.931 188.883 176.593 188.887L184.52 188.932C184.522 188.932 184.525 188.932 184.527 188.932C185.14 188.932 185.646 188.512 185.657 187.992C185.706 185.697 185.781 182.229 185.362 180.692C185.219 180.166 184.656 179.769 184.021 179.803C182.585 179.827 179.995 180.059 177.913 180.247C176.895 180.338 175.969 180.421 175.297 180.47Z" fill="#FAF8F5"/>
<g opacity="0.6">
<path d="M193.206 182.855C191.892 182.857 191.055 183.756 191.347 184.854C191.638 185.952 192.952 186.834 194.266 186.815L263.972 185.804C265.287 185.785 266.345 185.099 266.324 184.278C266.303 183.458 265.21 182.788 263.896 182.789L193.206 182.855Z" fill="#FAF8F5"/>
</g>
<path d="M176.472 181.916C177.059 181.565 177.818 181.77 178.152 182.37L179.727 185.191C179.884 185.474 180.293 185.454 180.424 185.158L184.268 176.432C184.46 175.997 185.101 176.142 185.096 176.618C185.067 179.283 184.386 184.35 180.183 188.605C180.183 188.605 177.855 187.703 175.966 183.561C175.693 182.963 175.911 182.251 176.472 181.916Z" fill="url(#paint5_linear_36_397)"/>
<path d="M184.594 207.278C184.589 207.278 184.584 207.278 184.579 207.278L176.653 207.232C175.371 207.225 174.309 206.329 174.182 205.149L173.459 198.442C173.408 197.967 173.551 197.498 173.863 197.122C174.204 196.709 174.72 196.449 175.277 196.408C175.944 196.36 176.863 196.277 177.873 196.186C180.083 195.987 182.589 195.762 184.067 195.738C185.284 195.716 186.29 196.448 186.58 197.513C187.01 199.093 186.985 202.031 186.918 205.158C186.893 206.33 185.852 207.278 184.594 207.278ZM184.113 196.943C184.104 196.943 184.096 196.943 184.087 196.943C182.651 196.967 180.061 197.2 177.98 197.387C176.961 197.478 176.036 197.562 175.363 197.611C175.127 197.628 174.914 197.731 174.78 197.894C174.708 197.981 174.626 198.124 174.647 198.311L175.37 205.019C175.43 205.58 175.997 206.023 176.66 206.027L184.586 206.072C184.588 206.072 184.591 206.072 184.594 206.072C185.206 206.072 185.712 205.652 185.723 205.132C185.773 202.839 185.848 199.373 185.429 197.832C185.288 197.314 184.737 196.943 184.113 196.943Z" fill="#FAF8F5"/>
<path opacity="0.6" d="M176.197 198.005C177.862 197.884 181.479 197.499 183.196 197.47C183.923 197.458 184.563 197.899 184.736 198.535C185.072 199.769 185.037 202.233 184.989 204.507C184.974 205.188 184.356 205.734 183.599 205.729L177.265 205.693C176.486 205.688 175.837 205.155 175.762 204.457L175.185 199.097C175.125 198.543 175.58 198.05 176.197 198.005Z" fill="#FAF8F5"/>
<g opacity="0.6">
<path d="M193.273 199.996C191.958 199.997 191.122 200.896 191.413 201.994C191.705 203.092 193.018 203.975 194.333 203.956L264.039 202.945C265.353 202.926 266.412 202.239 266.391 201.419C266.37 200.598 265.277 199.928 263.962 199.929L193.273 199.996Z" fill="#FAF8F5"/>
</g>
<path d="M184.66 224.418C184.656 224.418 184.65 224.418 184.646 224.418L176.719 224.373C175.437 224.365 174.375 223.47 174.248 222.289L173.525 215.582C173.474 215.107 173.617 214.639 173.929 214.262C174.27 213.849 174.785 213.589 175.343 213.548C176.01 213.5 176.93 213.417 177.941 213.326C180.151 213.127 182.655 212.902 184.134 212.878C184.15 212.877 184.165 212.877 184.18 212.877C185.35 212.877 186.36 213.602 186.647 214.652C187.077 216.233 187.052 219.171 186.985 222.298C186.96 223.47 185.919 224.418 184.66 224.418ZM175.429 214.751C175.194 214.768 174.981 214.872 174.846 215.035C174.775 215.121 174.693 215.264 174.713 215.452L175.436 222.159C175.498 222.73 176.052 223.163 176.726 223.167L184.653 223.212C184.655 223.212 184.658 223.212 184.66 223.212C185.273 223.212 185.779 222.792 185.79 222.272C185.84 219.979 185.914 216.513 185.495 214.972C185.351 214.447 184.796 214.053 184.154 214.083C182.719 214.107 180.129 214.34 178.048 214.527C177.029 214.619 176.102 214.702 175.429 214.751Z" fill="#FAF8F5"/>
<path opacity="0.6" d="M176.263 215.145C177.928 215.024 181.546 214.639 183.262 214.611C183.989 214.599 184.629 215.039 184.802 215.675C185.138 216.909 185.104 219.373 185.055 221.647C185.04 222.328 184.422 222.874 183.666 222.87L177.332 222.833C176.553 222.829 175.904 222.295 175.829 221.598L175.251 216.238C175.191 215.683 175.646 215.19 176.263 215.145Z" fill="#FAF8F5"/>
<g opacity="0.6">
<path d="M193.339 217.136C192.025 217.137 191.188 218.036 191.479 219.134C191.771 220.232 193.085 221.115 194.399 221.096L264.105 220.085C265.42 220.066 266.478 219.379 266.457 218.559C266.436 217.738 265.343 217.068 264.029 217.069L193.339 217.136Z" fill="#FAF8F5"/>
</g>
<path d="M184.726 241.558C184.722 241.558 184.717 241.558 184.712 241.558L176.786 241.513C175.505 241.505 174.442 240.61 174.314 239.429L173.592 232.722C173.541 232.248 173.683 231.78 173.994 231.403C174.336 230.99 174.852 230.729 175.409 230.689C176.075 230.64 176.992 230.558 178 230.467C180.212 230.268 182.72 230.043 184.2 230.018C185.404 229.987 186.423 230.729 186.713 231.793C187.142 233.369 187.118 236.309 187.051 239.439C187.026 240.61 185.985 241.558 184.726 241.558ZM184.245 231.223C184.237 231.223 184.229 231.223 184.22 231.223C182.783 231.247 180.19 231.48 178.106 231.668C177.09 231.759 176.167 231.842 175.496 231.892C175.26 231.909 175.048 232.012 174.913 232.175C174.841 232.262 174.759 232.405 174.78 232.591L175.502 239.299C175.564 239.87 176.119 240.303 176.793 240.307L184.719 240.353C184.722 240.353 184.724 240.353 184.727 240.353C185.34 240.353 185.845 239.932 185.857 239.413C185.906 237.118 185.98 233.65 185.561 232.113C185.42 231.594 184.869 231.223 184.245 231.223Z" fill="#FAF8F5"/>
<path opacity="0.6" d="M176.33 232.285C177.994 232.164 181.612 231.779 183.328 231.751C184.056 231.739 184.695 232.18 184.868 232.815C185.204 234.05 185.17 236.513 185.121 238.787C185.107 239.468 184.489 240.014 183.732 240.01L177.398 239.973C176.619 239.969 175.97 239.436 175.895 238.738L175.317 233.378C175.258 232.824 175.713 232.33 176.33 232.285Z" fill="#FAF8F5"/>
<g opacity="0.6">
<path d="M193.406 234.276C192.091 234.277 191.254 235.177 191.546 236.274C191.837 237.372 193.151 238.255 194.466 238.236L264.172 237.225C265.486 237.206 266.544 236.519 266.523 235.699C266.502 234.879 265.41 234.208 264.095 234.21L193.406 234.276Z" fill="#FAF8F5"/>
</g>
<path d="M299.002 187.755C298.997 187.755 298.993 187.755 298.988 187.755L291.062 187.71C289.78 187.702 288.718 186.807 288.591 185.626L287.868 178.919C287.816 178.444 287.96 177.976 288.271 177.599C288.613 177.186 289.128 176.926 289.685 176.885C290.352 176.837 291.268 176.755 292.277 176.663C294.489 176.465 296.996 176.239 298.476 176.215C299.674 176.2 300.7 176.925 300.989 177.99C301.419 179.57 301.394 182.508 301.327 185.635C301.302 186.807 300.261 187.755 299.002 187.755ZM298.522 177.42C298.513 177.42 298.505 177.42 298.496 177.42C297.059 177.444 294.466 177.677 292.383 177.865C291.367 177.956 290.443 178.039 289.772 178.088C289.536 178.105 289.324 178.209 289.189 178.372C289.117 178.458 289.035 178.601 289.056 178.789L289.779 185.496C289.84 186.067 290.395 186.5 291.069 186.504L298.995 186.549C298.998 186.549 299 186.549 299.003 186.549C299.616 186.549 300.121 186.129 300.132 185.609C300.182 183.316 300.257 179.85 299.837 178.309C299.696 177.791 299.146 177.42 298.522 177.42Z" fill="#FAF8F5"/>
<g opacity="0.6">
<path d="M307.681 180.473C306.367 180.474 305.53 181.373 305.822 182.471C306.113 183.569 307.427 184.452 308.741 184.433L378.447 183.422C379.762 183.403 380.82 182.716 380.799 181.896C380.778 181.075 379.685 180.405 378.371 180.406L307.681 180.473Z" fill="#FAF8F5"/>
</g>
<path d="M299.069 204.895C299.065 204.895 299.059 204.895 299.055 204.895L291.128 204.85C289.847 204.843 288.785 203.947 288.657 202.767L287.934 196.059C287.883 195.585 288.027 195.116 288.338 194.739C288.679 194.326 289.195 194.066 289.752 194.025C290.419 193.977 291.338 193.894 292.348 193.803C294.559 193.604 297.064 193.379 298.543 193.355C299.723 193.323 300.766 194.065 301.055 195.13C301.485 196.706 301.46 199.646 301.394 202.776C301.369 203.947 300.328 204.895 299.069 204.895ZM289.838 195.228C289.602 195.245 289.39 195.349 289.255 195.512C289.183 195.599 289.102 195.742 289.122 195.929L289.845 202.636C289.907 203.207 290.461 203.64 291.135 203.644L299.062 203.69C299.064 203.69 299.067 203.69 299.069 203.69C299.682 203.69 300.188 203.27 300.199 202.75C300.248 200.455 300.322 196.986 299.903 195.45C299.76 194.924 299.17 194.543 298.562 194.561C297.126 194.584 294.536 194.817 292.454 195.004C291.436 195.096 290.51 195.179 289.838 195.228Z" fill="#FAF8F5"/>
<g opacity="0.6">
<path d="M307.748 197.613C306.433 197.614 305.597 198.513 305.888 199.611C306.18 200.709 307.493 201.592 308.808 201.573L378.514 200.562C379.828 200.543 380.887 199.856 380.866 199.036C380.845 198.215 379.752 197.545 378.438 197.546L307.748 197.613Z" fill="#FAF8F5"/>
</g>
<path d="M299.136 222.035C299.131 222.035 299.126 222.035 299.121 222.035L291.194 221.99C289.913 221.983 288.851 221.087 288.723 219.906L288 213.199C287.949 212.725 288.092 212.256 288.404 211.879C288.745 211.466 289.261 211.206 289.818 211.165C290.485 211.117 291.404 211.034 292.414 210.943C294.625 210.744 297.13 210.519 298.609 210.495C298.625 210.494 298.641 210.494 298.656 210.494C299.826 210.494 300.836 211.219 301.122 212.27C301.551 213.845 301.526 216.786 301.46 219.915C301.435 221.087 300.394 222.035 299.136 222.035ZM289.905 212.368C289.669 212.385 289.457 212.489 289.321 212.652C289.249 212.739 289.168 212.882 289.188 213.069L289.911 219.776C289.973 220.347 290.527 220.781 291.201 220.784L299.128 220.83C299.131 220.83 299.134 220.83 299.136 220.83C299.748 220.83 300.254 220.41 300.265 219.89C300.314 217.595 300.389 214.127 299.97 212.59C299.827 212.064 299.254 211.673 298.629 211.701C297.193 211.724 294.603 211.957 292.521 212.145C291.502 212.236 290.577 212.319 289.905 212.368Z" fill="#FAF8F5"/>
<g opacity="0.6">
<path d="M307.814 214.753C306.5 214.755 305.663 215.654 305.955 216.752C306.246 217.849 307.56 218.732 308.874 218.713L378.581 217.702C379.895 217.683 380.953 216.997 380.932 216.176C380.911 215.356 379.818 214.685 378.504 214.687L307.814 214.753Z" fill="#FAF8F5"/>
</g>
<path d="M299.201 239.176C299.196 239.176 299.192 239.176 299.187 239.176L291.261 239.13C289.979 239.123 288.917 238.227 288.79 237.046L288.067 230.339C288.015 229.865 288.159 229.396 288.47 229.02C288.812 228.607 289.327 228.346 289.885 228.306C290.552 228.257 291.472 228.174 292.483 228.084C294.693 227.885 297.197 227.66 298.675 227.635C299.861 227.618 300.899 228.346 301.188 229.411C301.618 230.986 301.593 233.926 301.527 237.056C301.501 238.228 300.459 239.176 299.201 239.176ZM298.72 228.84C298.712 228.84 298.703 228.84 298.695 228.841C297.26 228.865 294.67 229.098 292.59 229.285C291.57 229.376 290.644 229.46 289.971 229.509C289.735 229.526 289.522 229.629 289.388 229.792C289.316 229.879 289.234 230.022 289.255 230.209L289.978 236.916C290.038 237.478 290.605 237.921 291.268 237.924L299.194 237.97C299.196 237.97 299.199 237.97 299.202 237.97C299.814 237.97 300.321 237.549 300.332 237.029C300.381 234.735 300.455 231.267 300.037 229.73C299.895 229.211 299.344 228.84 298.72 228.84Z" fill="#FAF8F5"/>
<g opacity="0.6">
<path d="M307.881 231.893C306.566 231.895 305.729 232.794 306.021 233.892C306.312 234.99 307.626 235.872 308.941 235.853L378.647 234.842C379.961 234.823 381.019 234.137 380.998 233.316C380.977 232.496 379.885 231.826 378.57 231.827L307.881 231.893Z" fill="#FAF8F5"/>
</g>
<path d="M187.453 273.345C187.448 273.345 187.443 273.345 187.439 273.345L179.512 273.299C178.232 273.292 177.169 272.396 177.041 271.216L176.319 264.509C176.268 264.035 176.411 263.566 176.722 263.19C177.063 262.776 177.579 262.516 178.136 262.475C178.802 262.427 179.719 262.344 180.727 262.254C182.94 262.055 185.447 261.829 186.928 261.804C186.943 261.804 186.959 261.804 186.974 261.804C188.144 261.804 189.154 262.529 189.44 263.579C189.869 265.155 189.845 268.095 189.778 271.225C189.753 272.397 188.711 273.345 187.453 273.345ZM186.973 263.01C186.964 263.01 186.956 263.01 186.948 263.01C185.51 263.034 182.917 263.267 180.833 263.455C179.817 263.546 178.894 263.629 178.223 263.678C177.987 263.695 177.775 263.799 177.64 263.962C177.568 264.049 177.487 264.191 177.507 264.378L178.229 271.086C178.291 271.657 178.845 272.09 179.519 272.094L187.446 272.14C187.448 272.14 187.45 272.14 187.453 272.14C188.066 272.14 188.572 271.719 188.583 271.199C188.632 268.904 188.707 265.436 188.288 263.899C188.147 263.381 187.596 263.01 186.973 263.01Z" fill="#FAF8F5"/>
<g opacity="0.6">
<path d="M196.133 266.063C194.818 266.064 193.981 266.963 194.273 268.061C194.564 269.159 195.878 270.042 197.193 270.022L266.899 269.012C268.213 268.993 269.271 268.306 269.25 267.485C269.229 266.665 268.137 265.995 266.822 265.996L196.133 266.063Z" fill="#FAF8F5"/>
</g>
<path d="M187.519 290.485C187.515 290.485 187.51 290.485 187.505 290.485L179.579 290.44C178.297 290.432 177.235 289.537 177.108 288.356L176.385 281.649C176.334 281.175 176.477 280.706 176.788 280.33C177.13 279.916 177.645 279.656 178.203 279.615C178.87 279.567 179.789 279.484 180.8 279.393C183.01 279.195 185.515 278.969 186.994 278.945C187.009 278.944 187.025 278.944 187.04 278.944C188.211 278.944 189.221 279.669 189.507 280.72C189.937 282.298 189.912 285.237 189.844 288.365C189.819 289.537 188.778 290.485 187.519 290.485ZM178.289 280.818C178.054 280.835 177.841 280.939 177.706 281.102C177.634 281.189 177.553 281.332 177.573 281.519L178.296 288.226C178.357 288.788 178.923 289.23 179.586 289.234L187.512 289.28C187.515 289.28 187.517 289.28 187.52 289.28C188.132 289.28 188.638 288.859 188.65 288.339C188.699 286.045 188.774 282.578 188.355 281.039C188.211 280.513 187.65 280.13 187.014 280.15C185.578 280.174 182.988 280.407 180.906 280.594C179.888 280.685 178.962 280.769 178.289 280.818Z" fill="#FAF8F5"/>
<g opacity="0.6">
<path d="M196.199 283.203C194.884 283.204 194.048 284.103 194.339 285.201C194.631 286.299 195.944 287.182 197.259 287.163L266.965 286.152C268.279 286.133 269.337 285.446 269.316 284.626C269.295 283.805 268.203 283.135 266.888 283.136L196.199 283.203Z" fill="#FAF8F5"/>
</g>
<path d="M187.586 307.625C187.582 307.625 187.576 307.625 187.572 307.625L179.645 307.58C178.364 307.572 177.302 306.677 177.174 305.496L176.451 298.788C176.4 298.314 176.543 297.845 176.855 297.469C177.196 297.056 177.712 296.796 178.269 296.755C178.937 296.707 179.855 296.624 180.866 296.533C183.076 296.334 185.581 296.109 187.06 296.084C188.27 296.069 189.283 296.795 189.573 297.86C190.003 299.44 189.978 302.378 189.911 305.505C189.886 306.677 188.845 307.625 187.586 307.625ZM187.106 297.29C187.097 297.29 187.089 297.29 187.08 297.29C185.644 297.314 183.054 297.547 180.972 297.734C179.954 297.825 179.028 297.909 178.356 297.958C178.12 297.975 177.907 298.078 177.772 298.241C177.701 298.328 177.619 298.471 177.639 298.658L178.362 305.366C178.423 305.937 178.978 306.37 179.652 306.374L187.579 306.42C187.581 306.42 187.584 306.42 187.586 306.42C188.199 306.42 188.705 306 188.716 305.48C188.766 303.186 188.84 299.72 188.421 298.179C188.28 297.661 187.729 297.29 187.106 297.29Z" fill="#FAF8F5"/>
<g opacity="0.6">
<path d="M196.265 300.343C194.951 300.344 194.114 301.243 194.406 302.341C194.697 303.439 196.011 304.322 197.325 304.303L267.032 303.292C268.346 303.273 269.404 302.586 269.383 301.766C269.362 300.945 268.27 300.275 266.955 300.276L196.265 300.343Z" fill="#FAF8F5"/>
</g>
<path d="M187.653 324.766C187.648 324.766 187.643 324.766 187.638 324.766L179.712 324.72C178.43 324.713 177.368 323.817 177.241 322.636L176.518 315.929C176.467 315.455 176.61 314.986 176.922 314.61C177.263 314.197 177.778 313.936 178.335 313.896C179.002 313.847 179.921 313.764 180.932 313.674C183.142 313.475 185.647 313.25 187.126 313.225C188.287 313.201 189.349 313.936 189.639 315C190.07 316.58 190.044 319.518 189.977 322.646C189.952 323.818 188.912 324.766 187.653 324.766ZM178.422 315.098C178.186 315.115 177.974 315.219 177.839 315.382C177.767 315.469 177.686 315.612 177.706 315.799L178.429 322.506C178.49 323.077 179.045 323.511 179.719 323.515L187.645 323.56C187.648 323.56 187.65 323.56 187.653 323.56C188.266 323.56 188.771 323.14 188.782 322.62C188.832 320.327 188.907 316.86 188.487 315.32C188.344 314.794 187.788 314.407 187.146 314.431C185.71 314.455 183.12 314.687 181.038 314.875C180.019 314.966 179.094 315.049 178.422 315.098Z" fill="#FAF8F5"/>
<g opacity="0.6">
<path d="M196.332 317.483C195.017 317.485 194.18 318.384 194.472 319.482C194.763 320.579 196.077 321.462 197.392 321.443L267.098 320.432C268.412 320.413 269.471 319.727 269.449 318.906C269.428 318.086 268.336 317.415 267.021 317.417L196.332 317.483Z" fill="#FAF8F5"/>
</g>
<path d="M301.929 270.962C301.924 270.962 301.919 270.962 301.914 270.962L293.988 270.917C292.706 270.909 291.644 270.013 291.517 268.833L290.794 262.126C290.742 261.651 290.886 261.183 291.198 260.806C291.539 260.393 292.055 260.133 292.612 260.092C293.279 260.044 294.198 259.961 295.208 259.87C297.418 259.671 299.924 259.446 301.402 259.422C302.615 259.406 303.625 260.132 303.915 261.197C304.345 262.775 304.32 265.714 304.253 268.842C304.228 270.014 303.187 270.962 301.929 270.962ZM301.448 260.627C301.439 260.627 301.431 260.627 301.422 260.627C299.986 260.651 297.396 260.884 295.314 261.071C294.296 261.163 293.37 261.246 292.698 261.295C292.463 261.312 292.25 261.415 292.115 261.578C292.043 261.666 291.961 261.808 291.982 261.996L292.705 268.703C292.765 269.264 293.332 269.707 293.995 269.711L301.921 269.756C301.923 269.756 301.926 269.756 301.929 269.756C302.541 269.756 303.047 269.336 303.058 268.816C303.108 266.522 303.183 263.055 302.764 261.516C302.622 260.998 302.072 260.627 301.448 260.627Z" fill="#FAF8F5"/>
<g opacity="0.6">
<path d="M310.608 263.68C309.293 263.681 308.457 264.58 308.748 265.678C309.039 266.776 310.353 267.659 311.668 267.64L381.374 266.629C382.688 266.61 383.746 265.923 383.725 265.103C383.704 264.282 382.612 263.612 381.297 263.613L310.608 263.68Z" fill="#FAF8F5"/>
</g>
<path d="M301.995 288.102C301.99 288.102 301.985 288.102 301.981 288.102L294.054 288.057C292.772 288.049 291.71 287.154 291.583 285.973L290.86 279.266C290.809 278.791 290.952 278.323 291.264 277.946C291.605 277.533 292.12 277.273 292.678 277.233C293.344 277.184 294.26 277.102 295.268 277.011C297.481 276.812 299.989 276.587 301.469 276.562C301.485 276.561 301.5 276.561 301.515 276.561C302.685 276.561 303.695 277.286 303.982 278.336C304.412 279.917 304.387 282.855 304.32 285.982C304.295 287.154 303.253 288.102 301.995 288.102ZM301.514 277.767C301.506 277.767 301.498 277.767 301.489 277.767C300.052 277.791 297.458 278.024 295.374 278.212C294.358 278.303 293.435 278.386 292.764 278.435C292.528 278.452 292.316 278.556 292.181 278.719C292.109 278.806 292.028 278.949 292.048 279.136L292.771 285.843C292.832 286.414 293.387 286.847 294.061 286.851L301.987 286.897C301.99 286.897 301.992 286.897 301.995 286.897C302.608 286.897 303.113 286.476 303.125 285.957C303.174 283.663 303.249 280.197 302.829 278.656C302.688 278.138 302.138 277.767 301.514 277.767Z" fill="#FAF8F5"/>
<g opacity="0.6">
<path d="M310.674 280.82C309.36 280.821 308.523 281.72 308.814 282.818C309.106 283.916 310.42 284.799 311.734 284.78L381.44 283.769C382.755 283.75 383.813 283.063 383.792 282.243C383.771 281.422 382.678 280.752 381.364 280.753L310.674 280.82Z" fill="#FAF8F5"/>
</g>
<path d="M302.061 305.243C302.057 305.243 302.052 305.243 302.047 305.243L294.121 305.197C292.84 305.19 291.777 304.294 291.649 303.114L290.927 296.406C290.876 295.933 291.018 295.464 291.329 295.088C291.671 294.674 292.186 294.414 292.744 294.373C293.412 294.324 294.33 294.241 295.341 294.151C297.552 293.952 300.057 293.727 301.535 293.702C301.551 293.702 301.567 293.702 301.582 293.702C302.752 293.702 303.762 294.426 304.048 295.477C304.477 297.053 304.453 299.993 304.386 303.123C304.361 304.294 303.32 305.243 302.061 305.243ZM292.831 295.575C292.595 295.592 292.383 295.696 292.248 295.859C292.176 295.946 292.094 296.089 292.115 296.276L292.837 302.983C292.899 303.554 293.454 303.987 294.128 303.991L302.054 304.037C302.057 304.037 302.059 304.037 302.062 304.037C302.674 304.037 303.18 303.617 303.191 303.097C303.24 300.802 303.314 297.334 302.896 295.797C302.755 295.278 302.204 294.907 301.581 294.907C301.572 294.907 301.564 294.907 301.555 294.908C300.119 294.931 297.528 295.164 295.447 295.351C294.429 295.443 293.503 295.526 292.831 295.575Z" fill="#FAF8F5"/>
<g opacity="0.6">
<path d="M310.741 297.96C309.426 297.962 308.589 298.861 308.881 299.959C309.172 301.057 310.486 301.939 311.801 301.92L381.507 300.91C382.821 300.891 383.879 300.204 383.858 299.383C383.837 298.563 382.745 297.893 381.43 297.894L310.741 297.96Z" fill="#FAF8F5"/>
</g>
<path d="M302.127 322.383C302.122 322.383 302.118 322.383 302.113 322.383L294.187 322.337C292.905 322.33 291.843 321.434 291.716 320.254L290.993 313.546C290.941 313.072 291.085 312.604 291.396 312.227C291.737 311.814 292.253 311.554 292.811 311.513C293.478 311.464 294.397 311.382 295.407 311.291C297.618 311.092 300.123 310.867 301.602 310.842C302.796 310.809 303.824 311.552 304.114 312.618C304.544 314.194 304.519 317.133 304.453 320.263C304.427 321.435 303.385 322.383 302.127 322.383ZM292.897 312.715C292.662 312.732 292.449 312.836 292.314 312.999C292.242 313.086 292.161 313.229 292.181 313.416L292.904 320.123C292.964 320.685 293.531 321.128 294.194 321.132L302.12 321.177C302.122 321.177 302.125 321.177 302.128 321.177C302.74 321.177 303.247 320.757 303.258 320.237C303.307 317.942 303.381 314.474 302.963 312.937C302.819 312.411 302.245 312.026 301.622 312.048C300.186 312.071 297.595 312.304 295.513 312.491C294.495 312.583 293.569 312.666 292.897 312.715Z" fill="#FAF8F5"/>
<g opacity="0.6">
<path d="M310.807 315.1C309.492 315.102 308.655 316.001 308.947 317.099C309.239 318.197 310.552 319.079 311.867 319.06L381.573 318.05C382.887 318.03 383.946 317.344 383.925 316.523C383.904 315.703 382.811 315.033 381.497 315.034L310.807 315.1Z" fill="#FAF8F5"/>
</g>
<path d="M190.38 356.552C190.375 356.552 190.37 356.552 190.366 356.552L182.439 356.507C181.158 356.499 180.095 355.603 179.968 354.423L179.245 347.716C179.194 347.242 179.337 346.773 179.648 346.397C179.99 345.983 180.505 345.723 181.063 345.682C181.73 345.634 182.649 345.551 183.659 345.46C185.87 345.261 188.375 345.036 189.854 345.012C191.036 345.005 192.077 345.722 192.366 346.787C192.796 348.363 192.771 351.303 192.705 354.433C192.68 355.604 191.639 356.552 190.38 356.552ZM181.149 346.885C180.913 346.902 180.701 347.005 180.566 347.169C180.495 347.255 180.413 347.398 180.433 347.585L181.156 354.292C181.218 354.863 181.772 355.297 182.446 355.301L190.373 355.346C190.375 355.346 190.378 355.346 190.38 355.346C190.993 355.346 191.499 354.926 191.51 354.406C191.559 352.111 191.633 348.643 191.214 347.106C191.072 346.58 190.483 346.2 189.874 346.217C188.438 346.241 185.847 346.474 183.765 346.661C182.747 346.753 181.821 346.836 181.149 346.885Z" fill="#FAF8F5"/>
<g opacity="0.6">
<path d="M199.059 349.27C197.744 349.271 196.907 350.17 197.199 351.268C197.49 352.366 198.804 353.249 200.119 353.23L269.825 352.219C271.139 352.2 272.198 351.513 272.176 350.692C272.156 349.872 271.063 349.202 269.748 349.203L199.059 349.27Z" fill="#FAF8F5"/>
</g>
<path d="M190.446 373.692C190.441 373.692 190.436 373.692 190.431 373.692L182.505 373.647C181.223 373.639 180.161 372.744 180.034 371.563L179.311 364.856C179.26 364.382 179.403 363.913 179.715 363.536C180.056 363.123 180.572 362.863 181.129 362.822C181.797 362.774 182.717 362.691 183.729 362.6C185.938 362.402 188.442 362.176 189.92 362.152C189.935 362.151 189.951 362.151 189.966 362.151C191.137 362.151 192.147 362.876 192.433 363.927C192.862 365.503 192.838 368.443 192.771 371.572C192.745 372.744 191.704 373.692 190.446 373.692ZM189.965 363.357C189.956 363.357 189.948 363.357 189.94 363.357C188.505 363.381 185.915 363.614 183.835 363.801C182.815 363.893 181.888 363.976 181.215 364.025C180.98 364.042 180.767 364.146 180.632 364.309C180.56 364.396 180.479 364.539 180.499 364.726L181.222 371.433C181.283 371.995 181.849 372.437 182.512 372.441L190.438 372.487C190.441 372.487 190.443 372.487 190.446 372.487C191.058 372.487 191.565 372.066 191.576 371.546C191.625 369.251 191.699 365.783 191.281 364.246C191.14 363.728 190.589 363.357 189.965 363.357Z" fill="#FAF8F5"/>
<g opacity="0.6">
<path d="M199.125 366.41C197.811 366.411 196.974 367.311 197.265 368.408C197.557 369.506 198.871 370.389 200.185 370.37L269.891 369.359C271.206 369.34 272.264 368.653 272.243 367.833C272.222 367.012 271.129 366.342 269.815 366.344L199.125 366.41Z" fill="#FAF8F5"/>
</g>
<path d="M190.512 390.833C190.507 390.833 190.503 390.833 190.498 390.833L182.572 390.787C181.29 390.78 180.228 389.884 180.1 388.703L179.378 381.996C179.326 381.522 179.47 381.053 179.781 380.677C180.123 380.264 180.638 380.004 181.196 379.963C181.863 379.914 182.782 379.832 183.793 379.741C186.003 379.542 188.508 379.317 189.986 379.292C191.196 379.267 192.209 380.003 192.499 381.067C192.929 382.645 192.904 385.585 192.837 388.713C192.812 389.884 191.77 390.833 190.512 390.833ZM181.282 381.165C181.046 381.182 180.833 381.286 180.698 381.449C180.627 381.536 180.545 381.679 180.565 381.866L181.288 388.573C181.349 389.135 181.916 389.577 182.578 389.581L190.505 389.627C190.507 389.627 190.509 389.627 190.512 389.627C191.125 389.627 191.631 389.207 191.642 388.687C191.691 386.393 191.766 382.926 191.347 381.387C191.204 380.861 190.644 380.471 190.006 380.498C188.571 380.522 185.98 380.754 183.899 380.941C182.88 381.033 181.954 381.116 181.282 381.165Z" fill="#FAF8F5"/>
<g opacity="0.6">
<path d="M199.192 383.55C197.877 383.551 197.04 384.451 197.332 385.549C197.623 386.646 198.937 387.529 200.252 387.51L269.958 386.499C271.272 386.48 272.33 385.794 272.309 384.973C272.288 384.153 271.196 383.483 269.881 383.484L199.192 383.55Z" fill="#FAF8F5"/>
</g>
<path d="M190.579 407.973C190.574 407.973 190.569 407.973 190.564 407.973L182.638 407.927C181.356 407.92 180.294 407.024 180.167 405.844L179.444 399.136C179.393 398.662 179.536 398.194 179.847 397.817C180.189 397.404 180.704 397.144 181.261 397.103C181.929 397.054 182.848 396.971 183.86 396.881C186.07 396.682 188.574 396.457 190.053 396.432C190.068 396.432 190.084 396.432 190.099 396.432C191.27 396.432 192.28 397.157 192.566 398.207C192.996 399.788 192.971 402.725 192.903 405.853C192.879 407.025 191.837 407.973 190.579 407.973ZM181.348 398.305C181.112 398.323 180.9 398.426 180.765 398.589C180.693 398.676 180.612 398.819 180.632 399.006L181.355 405.713C181.416 406.284 181.971 406.718 182.645 406.722L190.571 406.767C190.574 406.767 190.576 406.767 190.579 406.767C191.192 406.767 191.698 406.347 191.709 405.827C191.758 403.533 191.833 400.068 191.413 398.526C191.271 398.001 190.686 397.615 190.073 397.638C188.637 397.661 186.047 397.894 183.967 398.081C182.947 398.173 182.021 398.256 181.348 398.305Z" fill="#FAF8F5"/>
<g opacity="0.6">
<path d="M199.258 400.69C197.943 400.692 197.107 401.591 197.398 402.689C197.69 403.787 199.003 404.669 200.318 404.65L270.024 403.639C271.338 403.62 272.397 402.934 272.376 402.113C272.355 401.293 271.262 400.623 269.948 400.624L199.258 400.69Z" fill="#FAF8F5"/>
</g>
<path d="M304.855 354.169C304.85 354.169 304.845 354.169 304.84 354.169L296.914 354.124C295.632 354.116 294.57 353.221 294.443 352.04L293.72 345.333C293.669 344.858 293.812 344.39 294.123 344.014C294.464 343.6 294.98 343.34 295.538 343.299C296.205 343.251 297.124 343.168 298.134 343.077C300.344 342.878 302.85 342.653 304.328 342.629C305.513 342.612 306.552 343.339 306.841 344.404C307.271 345.98 307.246 348.92 307.18 352.05C307.154 353.221 306.113 354.169 304.855 354.169ZM295.624 344.502C295.389 344.519 295.176 344.623 295.041 344.786C294.969 344.873 294.888 345.015 294.908 345.202L295.631 351.91C295.691 352.472 296.258 352.914 296.921 352.918L304.847 352.963C304.85 352.963 304.852 352.963 304.855 352.963C305.467 352.963 305.974 352.543 305.985 352.023C306.034 349.728 306.108 346.26 305.69 344.723C305.547 344.198 304.954 343.818 304.348 343.834C302.912 343.858 300.322 344.091 298.241 344.278C297.222 344.369 296.296 344.453 295.624 344.502Z" fill="#FAF8F5"/>
<g opacity="0.6">
<path d="M313.534 346.887C312.22 346.888 311.383 347.787 311.674 348.885C311.966 349.983 313.279 350.866 314.594 350.847L384.3 349.836C385.614 349.817 386.673 349.13 386.651 348.31C386.631 347.489 385.538 346.819 384.223 346.821L313.534 346.887Z" fill="#FAF8F5"/>
</g>
<path d="M304.921 371.31C304.917 371.31 304.911 371.31 304.907 371.31L296.98 371.264C295.699 371.257 294.637 370.361 294.509 369.18L293.787 362.473C293.735 361.999 293.879 361.53 294.19 361.153C294.532 360.741 295.047 360.48 295.604 360.44C296.271 360.391 297.191 360.308 298.202 360.218C300.412 360.019 302.917 359.794 304.395 359.769C305.602 359.759 306.618 360.479 306.908 361.544C307.338 363.124 307.313 366.062 307.246 369.19C307.221 370.361 306.18 371.31 304.921 371.31ZM295.69 361.642C295.455 361.659 295.242 361.763 295.108 361.926C295.036 362.013 294.954 362.156 294.974 362.343L295.697 369.05C295.759 369.621 296.314 370.054 296.988 370.058L304.914 370.104C304.916 370.104 304.919 370.104 304.921 370.104C305.534 370.104 306.04 369.684 306.051 369.164C306.101 366.87 306.175 363.404 305.756 361.863C305.613 361.338 305.038 360.942 304.415 360.975C302.98 360.998 300.39 361.231 298.309 361.418C297.289 361.51 296.363 361.593 295.69 361.642Z" fill="#FAF8F5"/>
<g opacity="0.6">
<path d="M313.6 364.027C312.286 364.028 311.449 364.927 311.74 366.025C312.032 367.123 313.346 368.006 314.66 367.987L384.366 366.976C385.681 366.957 386.739 366.27 386.718 365.45C386.697 364.629 385.604 363.959 384.29 363.96L313.6 364.027Z" fill="#FAF8F5"/>
</g>
<path d="M304.988 388.45C304.983 388.45 304.978 388.45 304.973 388.45L297.047 388.404C295.765 388.397 294.703 387.501 294.576 386.32L293.853 379.613C293.802 379.139 293.945 378.67 294.257 378.294C294.598 377.881 295.113 377.621 295.67 377.58C296.338 377.531 297.257 377.449 298.269 377.358C300.479 377.159 302.983 376.934 304.462 376.909C304.477 376.909 304.493 376.909 304.508 376.909C305.678 376.909 306.688 377.634 306.974 378.685C307.403 380.26 307.379 383.2 307.312 386.33C307.287 387.502 306.246 388.45 304.988 388.45ZM295.757 378.783C295.521 378.8 295.309 378.903 295.174 379.066C295.102 379.153 295.021 379.296 295.041 379.483L295.764 386.19C295.825 386.761 296.38 387.194 297.054 387.198L304.98 387.244C304.983 387.244 304.985 387.244 304.988 387.244C305.601 387.244 306.106 386.824 306.118 386.304C306.166 384.009 306.241 380.541 305.822 379.004C305.679 378.478 305.11 378.079 304.481 378.115C303.046 378.138 300.456 378.371 298.375 378.559C297.356 378.65 296.429 378.733 295.757 378.783Z" fill="#FAF8F5"/>
<g opacity="0.6">
<path d="M313.667 381.167C312.352 381.169 311.515 382.068 311.807 383.166C312.098 384.264 313.412 385.146 314.727 385.127L384.433 384.116C385.747 384.097 386.805 383.411 386.784 382.59C386.763 381.77 385.671 381.1 384.356 381.101L313.667 381.167Z" fill="#FAF8F5"/>
</g>
<path d="M305.054 405.59C305.049 405.59 305.044 405.59 305.04 405.59L297.113 405.544C295.832 405.537 294.77 404.641 294.642 403.461L293.919 396.753C293.868 396.279 294.011 395.811 294.323 395.434C294.664 395.021 295.18 394.761 295.737 394.72C296.403 394.671 297.319 394.589 298.327 394.498C300.54 394.299 303.048 394.074 304.528 394.049C305.698 394.035 306.751 394.76 307.04 395.824C307.47 397.4 307.445 400.34 307.379 403.47C307.354 404.642 306.312 405.59 305.054 405.59ZM304.573 395.255C304.565 395.255 304.556 395.255 304.547 395.255C303.111 395.279 300.517 395.512 298.433 395.699C297.417 395.791 296.494 395.874 295.823 395.923C295.588 395.94 295.375 396.043 295.24 396.207C295.168 396.294 295.087 396.437 295.107 396.624L295.83 403.331C295.891 403.901 296.446 404.335 297.12 404.339L305.047 404.384C305.049 404.384 305.051 404.384 305.054 404.384C305.667 404.384 306.173 403.964 306.184 403.444C306.233 401.149 306.307 397.681 305.888 396.144C305.747 395.625 305.197 395.255 304.573 395.255Z" fill="#FAF8F5"/>
<g opacity="0.6">
<path d="M313.733 398.308C312.419 398.309 311.582 399.208 311.873 400.306C312.165 401.404 313.479 402.287 314.793 402.267L384.499 401.257C385.813 401.238 386.872 400.551 386.851 399.731C386.83 398.91 385.737 398.24 384.423 398.241L313.733 398.308Z" fill="#FAF8F5"/>
</g>
<path d="M287.789 8.25504C278.806 2.0021 271.017 2.15725 265.54 3.81155C260.543 5.32051 257.32 10.206 257.816 15.4445L260.282 41.4785L288.432 43.8873C288.432 43.8873 305.406 20.518 287.789 8.25504ZM275.495 29.3145C271.62 29.3298 268.467 26.1727 268.451 22.2626C268.436 18.3525 271.565 15.1705 275.441 15.1553C279.316 15.14 282.47 18.2973 282.485 22.2074C282.5 26.1173 279.371 29.2991 275.495 29.3145Z" fill="url(#paint6_linear_36_397)"/>
<path d="M263.048 30.4298C262.744 30.4298 262.483 30.1964 262.454 29.8844L262.061 25.7385C262.03 25.4072 262.271 25.1127 262.6 25.0809C262.934 25.0495 263.22 25.2925 263.251 25.6237L263.643 29.7696C263.675 30.101 263.434 30.3955 263.105 30.4273C263.086 30.4289 263.067 30.4298 263.048 30.4298ZM262.278 22.3051C261.974 22.3051 261.714 22.0717 261.684 21.7598L261.386 18.6119C260.917 13.6603 263.988 9.03605 268.687 7.61683C272.029 6.60747 275.476 6.45141 278.931 7.15139C279.254 7.21697 279.464 7.53472 279.399 7.861C279.334 8.18746 279.019 8.39766 278.696 8.33335C275.436 7.67225 272.182 7.81994 269.03 8.77171C264.876 10.0265 262.161 14.1167 262.576 18.4969L262.874 21.6448C262.905 21.9763 262.664 22.2706 262.336 22.3024C262.316 22.3042 262.297 22.3051 262.278 22.3051Z" fill="#91B3FA"/>
<path d="M221.941 58.4607L221.89 45.3669C221.873 40.8468 225.572 37.2121 230.05 37.3492L319.534 40.0894C323.505 40.2111 326.733 43.3607 326.987 47.3613L327.783 59.9397L221.941 58.4607Z" fill="url(#paint7_linear_36_397)"/>
<path d="M251.39 42.1166C251.061 42.1166 250.794 41.8481 250.793 41.5162C250.792 41.1832 251.058 40.9121 251.388 40.911L255.235 40.8958C255.236 40.8958 255.237 40.8958 255.237 40.8958C255.567 40.8958 255.834 41.1643 255.835 41.4962C255.837 41.8292 255.571 42.1002 255.24 42.1013L251.393 42.1166H251.39Z" fill="#91B3FA"/>
<path d="M226.766 54.2474C226.437 54.2474 226.169 53.9792 226.168 53.6469L226.147 48.3503C226.132 44.3029 229.383 40.9974 233.394 40.9817L247.54 40.9258C247.541 40.9258 247.542 40.9258 247.542 40.9258C247.871 40.9258 248.139 41.1943 248.14 41.5262C248.141 41.859 247.875 42.1303 247.545 42.1313L233.399 42.1873C230.047 42.2006 227.329 44.9631 227.342 48.3454L227.363 53.642C227.364 53.9749 227.098 54.2457 226.768 54.2472H226.766V54.2474Z" fill="#91B3FA"/>
<path d="M193.888 53.7789L350.347 53.1578C355.973 53.1355 360.799 57.2014 361.78 62.7909L361.915 63.5623C362.99 69.6846 358.337 75.3064 352.175 75.3306L191.656 75.9635C187.969 75.9781 185.018 72.8786 185.18 69.161L185.498 61.9107C185.696 57.3757 189.389 53.7967 193.888 53.7789Z" fill="url(#paint8_linear_36_397)"/>
<path opacity="0.6" d="M378.676 126.361H176.141C174.952 126.361 173.98 125.38 173.98 124.181V93.8231C173.98 92.6241 174.952 91.6431 176.141 91.6431H378.676C379.865 91.6431 380.837 92.6241 380.837 93.8231V124.181C380.837 125.38 379.865 126.361 378.676 126.361Z" fill="#FAF8F5"/>
<path d="M41.4286 346.818C41.4286 346.818 34.4561 386.001 82.7195 388.207C136.75 390.676 234.189 277.637 269.374 233.53C322.65 166.747 375.323 125.563 421.496 126.043C467.669 126.522 476.405 173.956 462.431 198.498C462.431 198.498 463.4 152.828 434.938 158.38C406.476 163.932 365.029 195.277 269.374 302.433C214.147 364.301 146.793 413.954 86.3264 410.783C27.8837 407.719 23.6348 369.382 41.4286 346.818Z" fill="url(#paint9_linear_36_397)"/>
<mask id="mask0_36_397" style="mask-type:luminance" maskUnits="userSpaceOnUse" x="33" y="126" width="436" height="285">
<path d="M43.361 345.614C43.361 345.614 28.6416 387.275 82.7195 388.207C136.797 389.138 234.189 277.637 269.374 233.53C322.65 166.747 375.323 125.563 421.496 126.043C467.669 126.522 476.404 173.956 462.431 198.498C462.431 198.498 463.4 152.828 434.938 158.38C406.475 163.932 365.029 195.277 269.374 302.433C214.147 364.301 146.857 412.227 86.3264 410.783C25.7953 409.339 25.5672 368.178 43.361 345.614Z" fill="white"/>
</mask>
<g mask="url(#mask0_36_397)">
<g opacity="0.29">
<path d="M400.784 155.525C400.551 155.525 400.324 155.405 400.187 155.186L380.685 123.774C380.47 123.427 380.563 122.964 380.892 122.738C381.22 122.512 381.661 122.609 381.877 122.955L401.379 154.367C401.594 154.713 401.501 155.177 401.172 155.403C401.052 155.485 400.917 155.525 400.784 155.525Z" fill="#FAF8F5"/>
<path d="M365.939 177.716C365.709 177.716 365.483 177.599 365.346 177.383L345.856 146.598C345.639 146.254 345.727 145.789 346.055 145.561C346.381 145.332 346.823 145.425 347.041 145.769L366.531 176.554C366.748 176.898 366.66 177.362 366.333 177.591C366.212 177.676 366.075 177.716 365.939 177.716Z" fill="#FAF8F5"/>
<path d="M337.437 198.024C337.226 198.024 337.016 197.925 336.876 197.736L317.869 172.107C317.627 171.781 317.682 171.311 317.992 171.057C318.302 170.802 318.75 170.861 318.991 171.187L337.998 196.815C338.24 197.141 338.185 197.611 337.874 197.865C337.744 197.972 337.59 198.024 337.437 198.024Z" fill="#FAF8F5"/>
<path d="M314.388 219.617C314.22 219.617 314.052 219.555 313.916 219.429L292.727 199.699C292.432 199.425 292.405 198.952 292.666 198.643C292.926 198.333 293.376 198.304 293.67 198.578L314.86 218.308C315.154 218.582 315.181 219.055 314.921 219.365C314.78 219.532 314.584 219.617 314.388 219.617Z" fill="#FAF8F5"/>
<path d="M419.386 149.117C419.043 149.117 418.74 148.855 418.684 148.487C418.64 148.199 414.256 119.557 413.947 118.042C413.865 117.638 414.109 117.24 414.494 117.153C414.878 117.067 415.256 117.324 415.338 117.728C415.655 119.281 419.908 147.068 420.089 148.25C420.152 148.658 419.888 149.042 419.5 149.107C419.461 149.114 419.423 149.117 419.386 149.117Z" fill="#FAF8F5"/>
<path d="M445.004 149.117C444.611 149.117 444.292 148.782 444.292 148.369V123.364C444.292 122.951 444.611 122.616 445.004 122.616C445.397 122.616 445.715 122.951 445.715 123.364V148.369C445.715 148.782 445.397 149.117 445.004 149.117Z" fill="#FAF8F5"/>
<path d="M287.12 253.071C286.947 253.071 286.773 253.005 286.636 252.871C282.782 249.108 263.524 230.279 262.878 229.26C262.66 228.916 262.748 228.452 263.075 228.223C263.399 227.996 263.834 228.085 264.054 228.418C264.76 229.369 278.517 242.9 287.605 251.775C287.893 252.056 287.909 252.53 287.642 252.832C287.502 252.991 287.311 253.071 287.12 253.071Z" fill="#FAF8F5"/>
<path d="M261.256 283.466C261.066 283.466 260.877 283.387 260.737 283.23L239.232 259.157C238.962 258.856 238.976 258.382 239.263 258.099C239.55 257.816 239.999 257.832 240.269 258.132L261.775 282.205C262.044 282.507 262.03 282.98 261.743 283.263C261.606 283.399 261.431 283.466 261.256 283.466Z" fill="#FAF8F5"/>
<path d="M232.669 321.391C232.458 321.391 232.249 321.293 232.108 321.105L209.778 291.187C209.535 290.862 209.589 290.391 209.898 290.137C210.208 289.881 210.655 289.938 210.898 290.263L233.228 320.181C233.471 320.506 233.417 320.976 233.108 321.231C232.977 321.339 232.823 321.391 232.669 321.391Z" fill="#FAF8F5"/>
<path d="M204.962 347.858C204.74 347.858 204.521 347.749 204.382 347.544L185.09 319.067C184.862 318.73 184.937 318.263 185.257 318.024C185.577 317.783 186.021 317.862 186.249 318.199L205.541 346.676C205.769 347.012 205.694 347.479 205.374 347.719C205.249 347.813 205.105 347.858 204.962 347.858Z" fill="#FAF8F5"/>
<path d="M182.191 365.034C181.973 365.034 181.758 364.929 181.618 364.731L161.694 336.37C161.461 336.037 161.527 335.569 161.844 335.323C162.16 335.078 162.605 335.149 162.839 335.48L182.763 363.841C182.997 364.174 182.93 364.642 182.613 364.888C182.486 364.987 182.338 365.034 182.191 365.034Z" fill="#FAF8F5"/>
<path d="M154.281 383.895C154.064 383.895 153.849 383.79 153.709 383.593L137.853 361.102C137.619 360.77 137.685 360.301 138.001 360.055C138.317 359.809 138.762 359.879 138.997 360.211L154.852 382.701C155.086 383.033 155.02 383.502 154.704 383.748C154.577 383.847 154.429 383.895 154.281 383.895Z" fill="#FAF8F5"/>
<path d="M128.743 396.865C128.501 396.865 128.264 396.734 128.131 396.499L116.43 375.84C116.228 375.484 116.339 375.025 116.677 374.814C117.014 374.604 117.452 374.719 117.652 375.074L129.354 395.734C129.555 396.089 129.444 396.548 129.107 396.759C128.992 396.83 128.867 396.865 128.743 396.865Z" fill="#FAF8F5"/>
<path d="M110.084 401.853C109.822 401.853 109.57 401.701 109.446 401.438L99.9582 381.367C99.7834 380.997 99.9267 380.548 100.279 380.364C100.63 380.179 101.058 380.331 101.233 380.701L110.721 400.771C110.895 401.142 110.752 401.591 110.4 401.774C110.298 401.828 110.19 401.853 110.084 401.853Z" fill="#FAF8F5"/>
<path d="M88.8927 405.178C88.5482 405.178 88.2456 404.915 88.1906 404.546L85.028 383.262C84.9673 382.854 85.2327 382.471 85.6213 382.407C86.0069 382.349 86.3733 382.623 86.434 383.031L89.5965 404.315C89.6572 404.723 89.3918 405.106 89.0032 405.17C88.9665 405.175 88.9294 405.178 88.8927 405.178Z" fill="#FAF8F5"/>
<path d="M72.4491 403.515C72.4132 403.515 72.377 403.512 72.3405 403.506C71.9521 403.444 71.6854 403.062 71.7447 402.654L74.9071 380.921C74.9664 380.512 75.3287 380.23 75.7183 380.295C76.1068 380.357 76.3733 380.739 76.3141 381.147L73.1516 402.88C73.0976 403.25 72.7946 403.515 72.4491 403.515Z" fill="#FAF8F5"/>
<path d="M57.2676 398.527C57.1844 398.527 57.1002 398.512 57.0179 398.479C56.6499 398.334 56.4633 397.903 56.6012 397.516L62.6102 380.659C62.7486 380.272 63.1595 380.076 63.5263 380.221C63.8943 380.366 64.0809 380.797 63.9429 381.184L57.934 398.041C57.8269 398.342 57.5555 398.527 57.2676 398.527Z" fill="#FAF8F5"/>
<path d="M42.4031 379.994C42.2315 379.994 42.059 379.929 41.9225 379.797C41.6328 379.518 41.6134 379.045 41.8789 378.74L53.2643 365.681C53.5295 365.377 53.9796 365.355 54.2695 365.636C54.5592 365.915 54.5787 366.388 54.3131 366.693L42.9278 379.752C42.7875 379.912 42.5956 379.994 42.4031 379.994Z" fill="#FAF8F5"/>
<path d="M39.4808 361.07C39.227 361.07 38.9814 360.927 38.8532 360.676C38.6674 360.311 38.7975 359.858 39.144 359.662C42.8813 357.555 50.1429 353.439 50.8752 352.946C51.2067 352.723 51.6464 352.825 51.8583 353.172C52.0702 353.521 51.9739 353.983 51.6429 354.206C50.6822 354.854 40.2598 360.732 39.8168 360.982C39.7093 361.042 39.5943 361.07 39.4808 361.07Z" fill="#FAF8F5"/>
<path d="M425.395 136.365C425.157 136.365 424.952 136.177 424.924 135.923L423.264 120.574C423.234 120.301 423.421 120.053 423.682 120.022C423.935 119.988 424.176 120.188 424.206 120.461L425.867 135.81C425.896 136.084 425.709 136.331 425.449 136.362C425.431 136.364 425.413 136.365 425.395 136.365Z" fill="#FAF8F5"/>
<path d="M432.037 135.719C431.789 135.719 431.581 135.517 431.564 135.254L430.615 120.551C430.597 120.277 430.795 120.039 431.056 120.02C431.322 120.01 431.544 120.209 431.561 120.484L432.51 135.186C432.528 135.461 432.331 135.699 432.069 135.718C432.058 135.718 432.047 135.719 432.037 135.719Z" fill="#FAF8F5"/>
<path d="M439.153 136.365C438.891 136.365 438.678 136.142 438.678 135.866V123.364C438.678 123.089 438.891 122.865 439.153 122.865C439.415 122.865 439.627 123.088 439.627 123.364V135.866C439.627 136.142 439.415 136.365 439.153 136.365Z" fill="#FAF8F5"/>
<path d="M413.298 137.478C413.094 137.478 412.905 137.338 412.844 137.121C409.138 123.97 409.467 123.349 409.575 123.145C409.637 123.028 409.766 122.919 409.889 122.883C410.142 122.811 410.403 122.967 410.472 123.233C410.504 123.355 410.489 123.479 410.44 123.584C410.453 124.6 412.134 131.089 413.754 136.837C413.828 137.101 413.685 137.379 413.434 137.457C413.388 137.472 413.343 137.478 413.298 137.478Z" fill="#FAF8F5"/>
<path d="M407.131 139.569C406.929 139.569 406.741 139.432 406.678 139.217L402.409 124.655C402.332 124.392 402.472 124.113 402.722 124.031C402.972 123.95 403.238 124.098 403.315 124.361L407.585 138.923C407.662 139.186 407.522 139.465 407.271 139.547C407.225 139.562 407.178 139.569 407.131 139.569Z" fill="#FAF8F5"/>
<path d="M400.783 141.219C400.628 141.219 400.475 141.139 400.384 140.99L392.501 128.139C392.359 127.908 392.422 127.599 392.643 127.449C392.863 127.301 393.156 127.367 393.298 127.598L401.182 140.45C401.324 140.681 401.261 140.99 401.04 141.139C400.961 141.193 400.872 141.219 400.783 141.219Z" fill="#FAF8F5"/>
<path d="M385.784 148.867C385.626 148.867 385.47 148.784 385.381 148.631L377.079 134.557C376.941 134.323 377.009 134.016 377.232 133.871C377.455 133.726 377.747 133.798 377.885 134.031L386.187 148.105C386.325 148.34 386.256 148.647 386.034 148.792C385.956 148.843 385.869 148.867 385.784 148.867Z" fill="#FAF8F5"/>
<path d="M374.873 153.472C374.721 153.472 374.571 153.395 374.48 153.252L365.545 139.35C365.399 139.122 365.456 138.811 365.673 138.657C365.89 138.503 366.185 138.563 366.332 138.791L375.266 152.694C375.413 152.922 375.356 153.232 375.139 153.386C375.057 153.444 374.964 153.472 374.873 153.472Z" fill="#FAF8F5"/>
<path d="M365.939 159.426C365.786 159.426 365.637 159.349 365.545 159.206L355.8 143.992C355.654 143.763 355.712 143.453 355.929 143.3C356.147 143.146 356.441 143.206 356.587 143.435L366.332 158.649C366.478 158.877 366.421 159.187 366.203 159.341C366.122 159.398 366.03 159.426 365.939 159.426Z" fill="#FAF8F5"/>
<path d="M350.917 169.402C350.768 169.402 350.621 169.329 350.528 169.191L341.041 155.064C340.89 154.839 340.941 154.528 341.155 154.369C341.368 154.209 341.664 154.264 341.816 154.488L351.303 168.616C351.454 168.841 351.404 169.152 351.189 169.311C351.107 169.373 351.011 169.402 350.917 169.402Z" fill="#FAF8F5"/>
<path d="M342.6 174.152C342.446 174.152 342.296 174.074 342.204 173.93L333.68 160.45C333.535 160.221 333.594 159.911 333.812 159.759C334.031 159.606 334.325 159.669 334.47 159.898L342.994 173.377C343.14 173.607 343.08 173.917 342.862 174.069C342.781 174.125 342.69 174.152 342.6 174.152Z" fill="#FAF8F5"/>
<path d="M335.973 181.374C335.827 181.374 335.683 181.303 335.59 181.17L325.865 167.209C325.71 166.987 325.756 166.674 325.967 166.512C326.179 166.349 326.476 166.397 326.63 166.619L336.356 180.581C336.511 180.803 336.465 181.115 336.253 181.278C336.168 181.343 336.071 181.374 335.973 181.374Z" fill="#FAF8F5"/>
<path d="M322.216 194.094C322.078 194.094 321.941 194.031 321.847 193.91L311.248 180.192C311.083 179.978 311.114 179.664 311.318 179.49C311.521 179.317 311.819 179.349 311.985 179.563L322.584 193.28C322.749 193.494 322.718 193.808 322.515 193.982C322.427 194.057 322.321 194.094 322.216 194.094Z" fill="#FAF8F5"/>
<path d="M314.388 201.825C314.278 201.825 314.167 201.786 314.077 201.704L301.269 190.043C301.071 189.863 301.049 189.548 301.221 189.34C301.392 189.132 301.692 189.108 301.89 189.289L314.699 200.95C314.897 201.13 314.918 201.445 314.746 201.653C314.653 201.767 314.521 201.825 314.388 201.825Z" fill="#FAF8F5"/>
<path d="M299.919 218.037C299.808 218.037 299.697 217.997 299.607 217.915L286.809 206.192C286.611 206.011 286.591 205.696 286.763 205.488C286.934 205.281 287.234 205.259 287.432 205.44L300.23 217.162C300.428 217.343 300.449 217.658 300.276 217.866C300.183 217.979 300.051 218.037 299.919 218.037Z" fill="#FAF8F5"/>
<path d="M295.412 224.957C295.313 224.957 295.214 224.924 295.129 224.858L281.134 213.894C280.924 213.73 280.881 213.417 281.037 213.196C281.194 212.975 281.491 212.93 281.701 213.094L295.696 224.058C295.906 224.222 295.949 224.535 295.793 224.756C295.7 224.887 295.557 224.957 295.412 224.957Z" fill="#FAF8F5"/>
<path d="M288.415 233.726C288.305 233.726 288.194 233.686 288.104 233.604L274.984 221.657C274.786 221.476 274.765 221.161 274.936 220.953C275.108 220.745 275.407 220.722 275.606 220.902L288.726 232.85C288.924 233.03 288.945 233.345 288.774 233.553C288.68 233.667 288.548 233.726 288.415 233.726Z" fill="#FAF8F5"/>
<path d="M272.641 250.211C272.52 250.211 272.399 250.162 272.306 250.065L260.921 238.093C260.735 237.898 260.735 237.583 260.921 237.388C261.106 237.193 261.406 237.193 261.591 237.388L272.977 249.359C273.162 249.554 273.162 249.87 272.977 250.065C272.884 250.162 272.763 250.211 272.641 250.211Z" fill="#FAF8F5"/>
<path d="M266.949 257.744C266.818 257.744 266.687 257.687 266.594 257.576L255.208 244.057C255.035 243.851 255.053 243.536 255.249 243.353C255.445 243.171 255.745 243.19 255.918 243.396L267.304 256.915C267.478 257.121 267.46 257.437 267.263 257.619C267.173 257.703 267.061 257.744 266.949 257.744Z" fill="#FAF8F5"/>
<path d="M259.889 265.425C259.772 265.425 259.654 265.379 259.562 265.288C255.176 260.898 248.463 254.235 247.947 253.869C247.731 253.715 247.672 253.404 247.818 253.176C247.963 252.948 248.256 252.887 248.473 253.038C249.198 253.547 259.09 263.439 260.216 264.565C260.406 264.755 260.413 265.071 260.233 265.27C260.14 265.373 260.014 265.425 259.889 265.425Z" fill="#FAF8F5"/>
<path d="M246.076 280.639C245.947 280.639 245.819 280.585 245.726 280.478C244.655 279.249 235.249 268.454 234.768 267.682C234.624 267.452 234.685 267.143 234.904 266.992C235.123 266.841 235.417 266.906 235.561 267.135C235.901 267.676 242.244 275.008 246.425 279.803C246.602 280.007 246.589 280.322 246.396 280.508C246.305 280.596 246.19 280.639 246.076 280.639Z" fill="#FAF8F5"/>
<path d="M237.537 289.618C237.382 289.618 237.231 289.539 237.139 289.393L229.312 276.819C229.169 276.589 229.23 276.279 229.449 276.129C229.668 275.978 229.962 276.043 230.106 276.273L237.933 288.846C238.077 289.076 238.015 289.386 237.796 289.537C237.716 289.592 237.626 289.618 237.537 289.618Z" fill="#FAF8F5"/>
<path d="M232.658 299.345C232.533 299.345 232.408 299.293 232.315 299.191L219.641 285.224C219.46 285.025 219.467 284.709 219.656 284.518C219.846 284.328 220.146 284.335 220.327 284.535L233.001 298.502C233.182 298.701 233.175 299.017 232.985 299.207C232.893 299.299 232.776 299.345 232.658 299.345Z" fill="#FAF8F5"/>
<path d="M217.85 315.058C217.701 315.058 217.554 314.985 217.462 314.848L207.722 300.382C207.571 300.157 207.621 299.846 207.835 299.686C208.049 299.527 208.345 299.58 208.496 299.805L218.236 314.271C218.388 314.496 218.337 314.807 218.123 314.966C218.04 315.028 217.944 315.058 217.85 315.058Z" fill="#FAF8F5"/>
<path d="M210.338 321.142C210.186 321.142 210.036 321.064 209.945 320.921L200.378 305.962C200.231 305.733 200.289 305.424 200.506 305.27C200.724 305.116 201.019 305.177 201.165 305.406L210.732 320.365C210.878 320.593 210.82 320.903 210.603 321.057C210.521 321.114 210.429 321.142 210.338 321.142Z" fill="#FAF8F5"/>
<path d="M203.143 327.75C203.004 327.75 202.866 327.686 202.772 327.562L192.098 313.474C191.935 313.259 191.969 312.944 192.174 312.773C192.378 312.602 192.677 312.637 192.84 312.852L203.514 326.94C203.678 327.155 203.644 327.47 203.439 327.641C203.351 327.714 203.247 327.75 203.143 327.75Z" fill="#FAF8F5"/>
<path d="M190.335 339.665C190.187 339.665 190.042 339.593 189.949 339.458L180.462 325.575C180.309 325.351 180.357 325.039 180.57 324.878C180.783 324.717 181.079 324.769 181.232 324.992L190.72 338.875C190.873 339.099 190.824 339.411 190.611 339.572C190.528 339.635 190.431 339.665 190.335 339.665Z" fill="#FAF8F5"/>
<path d="M184.168 344.91C184.02 344.91 183.875 344.837 183.782 344.702L174.294 330.812C174.142 330.588 174.19 330.277 174.403 330.116C174.615 329.955 174.912 330.006 175.065 330.23L184.553 344.12C184.705 344.343 184.657 344.655 184.444 344.816C184.36 344.879 184.263 344.91 184.168 344.91Z" fill="#FAF8F5"/>
<path d="M179.424 349.227C179.28 349.227 179.139 349.159 179.046 349.03L169.795 336.226C169.637 336.007 169.677 335.694 169.886 335.528C170.095 335.36 170.392 335.404 170.551 335.623L179.801 348.427C179.96 348.646 179.919 348.959 179.71 349.125C179.625 349.194 179.524 349.227 179.424 349.227Z" fill="#FAF8F5"/>
<path d="M170.173 358.635C170.036 358.635 169.9 358.573 169.806 358.453L159.076 344.727C158.91 344.514 158.939 344.2 159.141 344.025C159.343 343.85 159.642 343.881 159.809 344.094L170.539 357.819C170.706 358.032 170.676 358.346 170.474 358.521C170.386 358.598 170.279 358.635 170.173 358.635Z" fill="#FAF8F5"/>
<path d="M162.267 363.957C162.115 363.957 161.965 363.881 161.874 363.738L152.386 349.008C152.239 348.78 152.296 348.47 152.513 348.315C152.73 348.161 153.025 348.22 153.172 348.449L162.659 363.179C162.806 363.407 162.75 363.717 162.533 363.871C162.451 363.929 162.358 363.957 162.267 363.957Z" fill="#FAF8F5"/>
<path d="M155.381 369.346C155.236 369.346 155.093 369.276 155 369.145L145.972 356.391C145.816 356.17 145.86 355.857 146.07 355.693C146.28 355.528 146.577 355.574 146.734 355.796L155.761 368.55C155.918 368.77 155.874 369.083 155.664 369.247C155.579 369.314 155.48 369.346 155.381 369.346Z" fill="#FAF8F5"/>
<path d="M140.761 379.745C140.605 379.745 140.453 379.664 140.362 379.516L131.19 364.556C131.048 364.325 131.112 364.016 131.332 363.867C131.553 363.718 131.846 363.784 131.988 364.015L141.159 378.975C141.301 379.206 141.238 379.515 141.018 379.665C140.938 379.719 140.849 379.745 140.761 379.745Z" fill="#FAF8F5"/>
<path d="M131.589 383.646C131.433 383.646 131.28 383.564 131.189 383.416L122.492 369.116C122.351 368.884 122.416 368.575 122.636 368.427C122.856 368.278 123.15 368.346 123.291 368.578L131.988 382.878C132.13 383.11 132.065 383.419 131.844 383.567C131.765 383.62 131.677 383.646 131.589 383.646Z" fill="#FAF8F5"/>
<path d="M117.042 390.382C116.872 390.382 116.709 390.286 116.623 390.119L109.665 376.482C109.542 376.24 109.628 375.938 109.859 375.807C110.091 375.677 110.378 375.769 110.501 376.011L117.459 389.647C117.583 389.89 117.496 390.192 117.265 390.322C117.194 390.363 117.117 390.382 117.042 390.382Z" fill="#FAF8F5"/>
<path d="M111.981 392.518C111.824 392.518 111.67 392.435 111.579 392.284L104.938 381.187C104.798 380.954 104.865 380.647 105.087 380.499C105.308 380.354 105.601 380.422 105.741 380.656L112.382 391.754C112.522 391.986 112.455 392.294 112.234 392.441C112.155 392.493 112.068 392.518 111.981 392.518Z" fill="#FAF8F5"/>
<path d="M100.595 396.615C100.401 396.615 100.218 396.488 100.149 396.284L95.7208 383.232C95.6328 382.973 95.7615 382.688 96.0082 382.595C96.2541 382.501 96.5262 382.637 96.6144 382.897L101.042 395.949C101.13 396.209 101.001 396.494 100.755 396.586C100.702 396.606 100.648 396.615 100.595 396.615Z" fill="#FAF8F5"/>
<path d="M94.5795 398.278C94.3668 398.278 94.1734 398.126 94.1196 397.899L90.6474 383.268C90.5841 383 90.7387 382.729 90.9928 382.663C91.2476 382.599 91.5045 382.759 91.5679 383.026L95.04 397.658C95.1036 397.925 94.9488 398.196 94.6947 398.263C94.6562 398.273 94.6176 398.278 94.5795 398.278Z" fill="#FAF8F5"/>
<path d="M82.2523 398.277C81.9903 398.277 81.7778 398.054 81.7778 397.779V383.147C81.7778 382.871 81.9903 382.648 82.2523 382.648C82.5143 382.648 82.7267 382.871 82.7267 383.147V397.779C82.7267 398.054 82.5143 398.277 82.2523 398.277Z" fill="#FAF8F5"/>
<path d="M78.1109 398.277C77.8489 398.277 77.6364 398.054 77.6364 397.779V383.064C77.6364 382.789 77.8489 382.565 78.1109 382.565C78.3728 382.565 78.5853 382.788 78.5853 383.064V397.779C78.5851 398.054 78.3728 398.277 78.1109 398.277Z" fill="#FAF8F5"/>
<path d="M68.3375 396.615C68.3134 396.615 68.2891 396.613 68.2648 396.609C68.0059 396.567 67.8281 396.313 67.8679 396.04L69.7655 383.071C69.8053 382.798 70.0484 382.611 70.3064 382.654C70.5653 382.696 70.743 382.951 70.7032 383.223L68.8056 396.192C68.7696 396.439 68.5676 396.615 68.3375 396.615Z" fill="#FAF8F5"/>
<path d="M63.2768 394.287C63.2296 394.287 63.1815 394.279 63.1343 394.264C62.8844 394.181 62.7454 393.901 62.8239 393.638C64.4466 388.21 65.9311 382.11 65.607 381.298C65.456 381.073 65.5134 380.774 65.7277 380.615C65.9419 380.456 66.2442 380.522 66.3953 380.746C67.1924 381.935 64.7962 390.367 63.7292 393.937C63.6655 394.151 63.4784 394.287 63.2768 394.287Z" fill="#FAF8F5"/>
<path d="M53.9701 390.382C53.8844 390.382 53.7978 390.357 53.7197 390.306C53.4973 390.16 53.4294 389.853 53.5679 389.619L59.8696 378.982C60.008 378.748 60.3004 378.677 60.523 378.822C60.7454 378.968 60.8132 379.275 60.6748 379.509L54.3731 390.146C54.2832 390.298 54.1286 390.382 53.9701 390.382Z" fill="#FAF8F5"/>
<path d="M49.6769 383.563C49.6015 383.563 49.5246 383.544 49.4531 383.504C49.2223 383.374 49.1355 383.071 49.2592 382.829L54.952 371.666C55.0755 371.424 55.3629 371.332 55.5942 371.463C55.8252 371.593 55.9118 371.895 55.7882 372.138L50.0954 383.3C50.01 383.468 49.8464 383.563 49.6769 383.563Z" fill="#FAF8F5"/>
<path d="M42.4038 369.346C42.2283 369.346 42.0596 369.243 41.9773 369.066C41.8619 368.82 41.9593 368.52 42.1946 368.399L51.05 363.838C51.2855 363.717 51.5698 363.82 51.6847 364.067C51.8001 364.314 51.7027 364.613 51.4674 364.734L42.6119 369.295C42.5448 369.33 42.4737 369.346 42.4038 369.346Z" fill="#FAF8F5"/>
<path d="M42.4038 363.668C42.2495 363.668 42.0983 363.589 42.007 363.444C41.863 363.213 41.9236 362.904 42.1426 362.753L49.4168 357.72C49.6361 357.567 49.9297 357.632 50.074 357.862C50.218 358.092 50.1573 358.402 49.9384 358.553L42.6644 363.586C42.5837 363.642 42.4931 363.668 42.4038 363.668Z" fill="#FAF8F5"/>
</g>
</g>
<path d="M52.3905 433.885C52.9661 429.329 53.7315 427.018 54.3464 425.846C53.8965 425.798 53.4379 425.755 52.9616 425.722C52.453 425.687 52.0106 426.026 51.9677 426.492L49.6639 451.598C49.5905 452.399 50.4648 452.959 51.2266 452.685C51.2805 449.368 51.5009 440.93 52.3905 433.885Z" fill="url(#paint10_linear_36_397)"/>
<path d="M62.6208 427.755C64.5862 428.531 65.773 430.552 65.4988 432.664L65.2274 434.753C61.4819 445.639 54.8174 450.672 51.5313 452.581C51.4675 452.618 51.4004 452.637 51.3339 452.661C51.3876 449.345 51.608 440.906 52.4976 433.862C53.0732 429.305 53.8386 426.995 54.4537 425.822C57.9873 426.197 60.7142 427.001 62.6208 427.755Z" fill="url(#paint11_linear_36_397)"/>
<path d="M60.9629 434.361L61.7281 430.408C61.9071 429.484 63.0416 428.844 64.2622 428.98L72.0686 429.846L71.6993 440.006L62.6204 437.325C61.3999 437.189 60.7839 435.285 60.9629 434.361Z" fill="url(#paint12_linear_36_397)"/>
<path d="M226.577 498.445C222.303 500.027 219.918 500.405 218.603 500.394C218.768 500.819 218.941 501.25 219.132 501.692C219.335 502.163 219.837 502.404 220.267 502.227L243.416 492.733C244.155 492.43 244.245 491.389 243.653 490.833C240.711 492.312 233.184 495.999 226.577 498.445Z" fill="url(#paint13_linear_36_397)"/>
<path d="M216.474 492.104C216.252 489.986 217.484 487.993 219.468 487.266L221.431 486.548C232.733 484.891 240.229 488.544 243.422 490.609C243.483 490.649 243.532 490.7 243.583 490.748C240.64 492.227 233.114 495.914 226.507 498.36C222.233 499.942 219.848 500.32 218.533 500.309C217.236 496.972 216.688 494.159 216.474 492.104Z" fill="url(#paint14_linear_36_397)"/>
<path d="M223.049 490.548L219.219 491.682C218.323 491.948 217.238 491.226 216.796 490.07L213.965 482.679L223.074 478.333L224.894 487.699C225.337 488.855 223.945 490.283 223.049 490.548Z" fill="url(#paint15_linear_36_397)"/>
<path d="M168.394 405.132C168.394 405.132 138.796 454.811 123.646 454.528C108.497 454.245 66.9754 441.903 66.9754 441.903L69.2198 427.07L112.985 429.831L127.013 391.97L168.394 405.132Z" fill="url(#paint16_linear_36_397)"/>
<path d="M116.132 360.875C116.132 360.875 105.529 399.465 133.172 406.725C160.816 413.984 183.537 420.862 183.537 420.862L213.831 488.49L226.706 485.433C226.706 485.433 219.89 417.805 207.015 402.904C194.14 388.003 181.617 377.817 181.617 377.817L116.132 360.875Z" fill="url(#paint17_linear_36_397)"/>
<path d="M162.864 332.79C162.026 331.569 133.85 305.289 152.162 294.023C170.473 282.757 185.753 327.776 185.753 327.776L214.319 328.102C214.319 328.102 217.529 322.294 219.946 323.78C222.363 325.265 225.758 323.716 227.377 327.526C228.996 331.336 227.043 335.257 224.013 337.264C220.983 339.272 178.648 355.824 162.864 332.79Z" fill="url(#paint18_linear_36_397)"/>
<path d="M162.805 278.728C162.805 278.728 173.502 291.337 174.638 291.91C155.893 294.203 132.567 283.682 132.567 283.682C132.567 283.682 147.922 276.436 148.783 266.311C153.486 266.54 161.952 266.311 161.952 266.311L162.805 278.728Z" fill="url(#paint19_linear_36_397)"/>
<path d="M138.999 279.805C138.999 279.805 168.27 291.949 172.779 290.115C177.288 294.393 192.435 315.217 186.755 322.094C186.637 322.237 191.539 376.184 186.975 381.389C185.273 383.329 180.591 381.356 178.158 381.325C171.431 381.237 164.828 379.71 158.295 378.232C149.859 376.324 141.456 374.134 133.163 371.448C129.544 370.275 125.951 369.019 122.407 367.632C119.769 366.601 115.838 365.733 114.091 363.346C112.364 360.988 114.539 353.91 114.94 351.017C117.296 334.004 120.711 316.394 120.711 299.173C120.711 286.564 138.999 279.805 138.999 279.805Z" fill="url(#paint20_linear_36_397)"/>
<path d="M147.198 265.292C145.573 266.817 143.67 268.195 142.194 267.335C140.168 266.154 138.828 260.021 138.682 258.642C138.536 257.262 132.947 242.044 135.546 238.274C136.996 236.169 138.681 235.834 140.642 237.452C140.98 237.059 141.139 236.418 141.543 236.03C146.299 231.455 152.106 228 158.376 226.015C158.129 227.421 157.882 228.826 157.636 230.231C161.894 227.899 166.628 226.457 171.454 226.022C169.203 227.514 167.231 229.434 165.673 231.651C168.424 230.808 171.256 229.955 174.122 230.184C177.193 230.43 181.329 232.221 179.403 235.222C177.406 238.333 172.698 241.516 169.975 244.174C163.436 250.556 156.708 256.741 149.805 262.72C149.178 263.263 148.246 264.308 147.198 265.292Z" fill="url(#paint21_linear_36_397)"/>
<path d="M171.278 242.565C171.278 242.565 195.991 275.51 172.547 280.672C152.331 285.122 147.9 265.675 147.9 265.675C147.9 265.675 145.128 265.624 143.322 261.631C141.516 257.638 143.594 251.133 148.324 252.251C153.054 253.37 153.964 259.786 153.964 259.786C153.964 259.786 152.861 245.015 157.371 244.064C161.882 243.112 171.278 242.565 171.278 242.565Z" fill="url(#paint22_linear_36_397)"/>
<path d="M107.843 298.665C109.195 298.103 140.407 276.051 147.385 296.354C154.363 316.658 107.843 322.134 107.843 322.134L101.512 350.036C101.512 350.036 106.422 354.402 104.484 356.456C102.545 358.51 103.321 362.161 99.3147 362.943C95.3089 363.726 91.9491 360.988 90.6568 357.598C89.3648 354.208 82.3643 309.268 107.843 298.665Z" fill="url(#paint23_linear_36_397)"/>
<path d="M218.576 331.672C219.021 331.605 219.35 331.411 219.582 331.079C220.211 330.18 219.913 328.609 219.91 328.593C219.883 328.453 219.939 328.312 220.047 328.219C220.155 328.127 220.311 328.102 220.443 328.153C220.449 328.156 221.045 328.368 222.673 327.892C222.839 327.844 222.905 327.786 222.909 327.76C222.963 327.41 221.935 326.376 220.709 325.545C220.531 325.424 220.483 325.179 220.603 324.998C220.723 324.818 220.965 324.769 221.145 324.891C221.781 325.322 223.846 326.812 223.681 327.881C223.641 328.137 223.472 328.479 222.89 328.649C222.559 328.745 222.276 328.81 222.012 328.862C221.922 330.67 221.932 334.66 222.893 335.637C223.015 335.761 223.131 335.812 223.278 335.804C223.494 335.796 223.678 335.957 223.69 336.174C223.703 336.392 223.539 336.578 223.323 336.59C223.299 336.592 223.274 336.592 223.249 336.592C222.911 336.592 222.598 336.455 222.339 336.192C221.076 334.909 221.156 330.501 221.225 328.975C221.043 328.988 220.878 328.994 220.745 328.989C220.796 329.64 220.776 330.735 220.222 331.53C219.865 332.042 219.35 332.352 218.691 332.451C218.672 332.454 218.652 332.455 218.633 332.455C218.443 332.455 218.276 332.315 218.247 332.119C218.216 331.904 218.363 331.704 218.576 331.672Z" fill="url(#paint24_linear_36_397)"/>
<path d="M147.385 296.354C142.107 280.996 122.969 289.87 113.372 295.349C117.102 302.93 120.199 311.116 121.896 319.407C134.955 316.046 151.78 309.142 147.385 296.354Z" fill="url(#paint25_linear_36_397)"/>
<path d="M346.21 326.71C337.272 330.077 327.433 330.166 318.386 327.109C308.319 323.707 291.979 322.978 267.218 334.176C218.669 356.131 220.384 451.922 289.296 466.248C379.296 484.958 421.514 439.978 429.284 407.62C437.054 375.262 416.495 334.115 376.55 325.323C363.468 322.444 353.425 323.991 346.21 326.71Z" fill="url(#paint26_linear_36_397)"/>
<path opacity="0.23" d="M284.012 341.367C291.919 341.883 306.66 345.289 293.146 362.725C279.631 380.161 268.297 408.954 274.068 427.625C279.839 446.295 242.301 423.219 240.159 398.39C238.017 373.561 259.452 339.762 284.012 341.367Z" fill="#FAF8F5"/>
<path d="M358.345 337.62C358.345 342.16 346.747 345.841 332.44 345.841C318.133 345.841 306.534 342.16 306.534 337.62C306.534 333.08 318.133 337.62 332.44 337.62C346.747 337.62 358.345 333.08 358.345 337.62Z" fill="url(#paint27_linear_36_397)"/>
<path d="M325.722 336.505C325.722 336.505 317.48 301.983 356.558 279.886C395.635 257.788 394.755 255.788 396.888 267.477C399.022 279.166 410.814 320.593 367.993 338.391C325.171 356.189 325.722 336.505 325.722 336.505Z" fill="#7D97F4"/>
<path d="M389.837 268.76C383.707 278.831 355.24 324.285 330.19 342.252C330.19 342.252 359.9 346.12 381.214 325.982C399.442 308.76 393.679 277.682 391.628 269.045C391.424 268.186 390.296 268.008 389.837 268.76Z" fill="#91B3FA"/>
<path d="M330.681 342.892C331.488 348.562 336.271 342.311 334.029 331.05C331.786 319.788 329.484 293.008 313.371 297.689C297.259 302.369 327.273 318.965 330.681 342.892Z" fill="url(#paint28_linear_36_397)"/>
<path d="M464.753 469.274L334.318 475.634C333.741 475.662 333.247 475.209 333.219 474.628L331.806 445.122C331.778 444.54 332.227 444.041 332.803 444.013L463.238 437.653C463.814 437.625 464.309 438.078 464.337 438.66L465.75 468.165C465.778 468.747 465.329 469.246 464.753 469.274Z" fill="url(#paint29_linear_36_397)"/>
<g opacity="0.22">
<path d="M460.781 446.395L336.085 452.475C333.93 452.58 332.082 450.887 331.978 448.713C331.874 446.539 333.552 444.675 335.706 444.57L460.402 438.489C462.557 438.384 464.405 440.077 464.509 442.251C464.613 444.425 462.935 446.289 460.781 446.395Z" fill="#7D97F4"/>
</g>
<path d="M291.981 431.881L304.582 418.685L321.847 417.844L335.143 429.777L337.916 487.672L325.302 500.612L306.768 501.515L294.754 489.776L291.981 431.881Z" fill="url(#paint30_linear_36_397)"/>
<g opacity="0.22">
<path d="M325.302 500.612L321.847 417.844L335.143 429.777L337.916 487.672L325.302 500.612Z" fill="#7D97F4"/>
</g>
<g opacity="0.54">
<path d="M292.571 431.881L305.172 418.685L322.437 417.844L335.733 429.777L292.571 431.881Z" fill="#7D97F4"/>
</g>
<g opacity="0.54">
<path d="M295.344 489.776L307.358 501.515L325.892 500.612L338.506 487.672L295.344 489.776Z" fill="#7D97F4"/>
</g>
<path d="M486.939 421.733L473.135 409.825L455.871 410.667L443.777 423.838L446.55 481.733L460.341 493.385L478.875 492.481L489.712 479.628L486.939 421.733Z" fill="url(#paint31_linear_36_397)"/>
<g opacity="0.22">
<path d="M460.341 493.385L455.871 410.667L443.777 423.838L446.55 481.733L460.341 493.385Z" fill="#7D97F4"/>
</g>
<g opacity="0.54">
<path d="M486.939 421.733L473.135 409.825L455.871 410.667L443.777 423.838L486.939 421.733Z" fill="#7D97F4"/>
</g>
<g opacity="0.54">
<path d="M489.712 479.628L478.875 492.481L460.341 493.385L446.55 481.733L489.712 479.628Z" fill="#7D97F4"/>
</g>
<defs>
<linearGradient id="paint0_linear_36_397" x1="562.032" y1="652.647" x2="113.027" y2="99.9747" gradientUnits="userSpaceOnUse">
<stop stop-color="#DAE3FE"/>
<stop offset="1" stop-color="#E9EFFD"/>
</linearGradient>
<linearGradient id="paint1_linear_36_397" x1="273.61" y1="-48.8542" x2="45.0946" y2="494.204" gradientUnits="userSpaceOnUse">
<stop stop-color="#E1473D"/>
<stop offset="1" stop-color="#E9605A"/>
</linearGradient>
<linearGradient id="paint2_linear_36_397" x1="97.1892" y1="236.686" x2="195.272" y2="253.74" gradientUnits="userSpaceOnUse">
<stop stop-color="#41A362"/>
<stop offset="1" stop-color="#204F2E"/>
</linearGradient>
<linearGradient id="paint3_linear_36_397" x1="403.229" y1="250.307" x2="467.319" y2="143.541" gradientUnits="userSpaceOnUse">
<stop stop-color="#E1473D"/>
<stop offset="1" stop-color="#E9605A"/>
</linearGradient>
<linearGradient id="paint4_linear_36_397" x1="430.578" y1="64.8243" x2="34.9899" y2="583.982" gradientUnits="userSpaceOnUse">
<stop stop-color="#09005D"/>
<stop offset="1" stop-color="#1A0F91"/>
</linearGradient>
<linearGradient id="paint5_linear_36_397" x1="199.617" y1="148.663" x2="158.873" y2="218.205" gradientUnits="userSpaceOnUse">
<stop stop-color="#FF928E"/>
<stop offset="1" stop-color="#FE7062"/>
</linearGradient>
<linearGradient id="paint6_linear_36_397" x1="322.726" y1="-23.2692" x2="187.598" y2="110.764" gradientUnits="userSpaceOnUse">
<stop stop-color="#09005D"/>
<stop offset="1" stop-color="#1A0F91"/>
</linearGradient>
<linearGradient id="paint7_linear_36_397" x1="327.866" y1="-19.6585" x2="213.077" y2="131.218" gradientUnits="userSpaceOnUse">
<stop stop-color="#09005D"/>
<stop offset="1" stop-color="#1A0F91"/>
</linearGradient>
<linearGradient id="paint8_linear_36_397" x1="185.174" y1="64.5605" x2="362.07" y2="64.5605" gradientUnits="userSpaceOnUse">
<stop stop-color="#4F52FF"/>
<stop offset="1" stop-color="#4042E2"/>
</linearGradient>
<linearGradient id="paint9_linear_36_397" x1="351.587" y1="97.4154" x2="129.973" y2="479.087" gradientUnits="userSpaceOnUse">
<stop stop-color="#FF928E"/>
<stop offset="1" stop-color="#FE7062"/>
</linearGradient>
<linearGradient id="paint10_linear_36_397" x1="63.7122" y1="457.47" x2="16.9146" y2="384.611" gradientUnits="userSpaceOnUse">
<stop stop-color="#09005D"/>
<stop offset="1" stop-color="#1A0F91"/>
</linearGradient>
<linearGradient id="paint11_linear_36_397" x1="51.2977" y1="449.885" x2="77.2359" y2="391.894" gradientUnits="userSpaceOnUse">
<stop stop-color="#4F52FF"/>
<stop offset="1" stop-color="#4042E2"/>
</linearGradient>
<linearGradient id="paint12_linear_36_397" x1="72.0686" y1="434.484" x2="60.9324" y2="434.484" gradientUnits="userSpaceOnUse">
<stop stop-color="#FEBBBA"/>
<stop offset="1" stop-color="#FF928E"/>
</linearGradient>
<linearGradient id="paint13_linear_36_397" x1="242.115" y1="477.447" x2="198.372" y2="552.211" gradientUnits="userSpaceOnUse">
<stop stop-color="#09005D"/>
<stop offset="1" stop-color="#1A0F91"/>
</linearGradient>
<linearGradient id="paint14_linear_36_397" x1="241.158" y1="492.058" x2="178.216" y2="495.878" gradientUnits="userSpaceOnUse">
<stop stop-color="#4F52FF"/>
<stop offset="1" stop-color="#4042E2"/>
</linearGradient>
<linearGradient id="paint15_linear_36_397" x1="218.044" y1="480.544" x2="223.244" y2="490.481" gradientUnits="userSpaceOnUse">
<stop stop-color="#FEBBBA"/>
<stop offset="1" stop-color="#FF928E"/>
</linearGradient>
<linearGradient id="paint16_linear_36_397" x1="117.232" y1="420.64" x2="165.392" y2="284.265" gradientUnits="userSpaceOnUse">
<stop stop-color="#09005D"/>
<stop offset="1" stop-color="#1A0F91"/>
</linearGradient>
<linearGradient id="paint17_linear_36_397" x1="262.554" y1="424.682" x2="149.982" y2="424.682" gradientUnits="userSpaceOnUse">
<stop stop-color="#09005D"/>
<stop offset="1" stop-color="#1A0F91"/>
</linearGradient>
<linearGradient id="paint18_linear_36_397" x1="186.563" y1="318.916" x2="210.872" y2="211.302" gradientUnits="userSpaceOnUse">
<stop stop-color="#FEBBBA"/>
<stop offset="1" stop-color="#FF928E"/>
</linearGradient>
<linearGradient id="paint19_linear_36_397" x1="144.835" y1="314.523" x2="158.463" y2="273.715" gradientUnits="userSpaceOnUse">
<stop stop-color="#FEBBBA"/>
<stop offset="1" stop-color="#FF928E"/>
</linearGradient>
<linearGradient id="paint20_linear_36_397" x1="103.587" y1="482.895" x2="161.86" y2="319.559" gradientUnits="userSpaceOnUse">
<stop stop-color="#4F52FF"/>
<stop offset="1" stop-color="#4042E2"/>
</linearGradient>
<linearGradient id="paint21_linear_36_397" x1="235.999" y1="194.589" x2="195.18" y2="218.782" gradientUnits="userSpaceOnUse">
<stop stop-color="#09005D"/>
<stop offset="1" stop-color="#1A0F91"/>
</linearGradient>
<linearGradient id="paint22_linear_36_397" x1="165.428" y1="252.276" x2="147.464" y2="327.738" gradientUnits="userSpaceOnUse">
<stop stop-color="#FEBBBA"/>
<stop offset="1" stop-color="#FF928E"/>
</linearGradient>
<linearGradient id="paint23_linear_36_397" x1="132.366" y1="278.473" x2="74.1073" y2="423.699" gradientUnits="userSpaceOnUse">
<stop stop-color="#FEBBBA"/>
<stop offset="1" stop-color="#FF928E"/>
</linearGradient>
<linearGradient id="paint24_linear_36_397" x1="223.691" y1="330.708" x2="218.243" y2="330.708" gradientUnits="userSpaceOnUse">
<stop stop-color="#FEBBBA"/>
<stop offset="1" stop-color="#FF928E"/>
</linearGradient>
<linearGradient id="paint25_linear_36_397" x1="126.526" y1="253.126" x2="107.371" y2="54.232" gradientUnits="userSpaceOnUse">
<stop stop-color="#4F52FF"/>
<stop offset="1" stop-color="#4042E2"/>
</linearGradient>
<linearGradient id="paint26_linear_36_397" x1="332.564" y1="331.825" x2="332.158" y2="437.924" gradientUnits="userSpaceOnUse">
<stop stop-color="#FF928E"/>
<stop offset="1" stop-color="#FE7062"/>
</linearGradient>
<linearGradient id="paint27_linear_36_397" x1="349.653" y1="315.955" x2="323.985" y2="347.943" gradientUnits="userSpaceOnUse">
<stop stop-color="#E1473D"/>
<stop offset="1" stop-color="#E9605A"/>
</linearGradient>
<linearGradient id="paint28_linear_36_397" x1="308.649" y1="321.082" x2="334.622" y2="321.082" gradientUnits="userSpaceOnUse">
<stop stop-color="#E1473D"/>
<stop offset="1" stop-color="#E9605A"/>
</linearGradient>
<linearGradient id="paint29_linear_36_397" x1="342.181" y1="389.445" x2="464.01" y2="531.53" gradientUnits="userSpaceOnUse">
<stop stop-color="#4F52FF"/>
<stop offset="1" stop-color="#4042E2"/>
</linearGradient>
<linearGradient id="paint30_linear_36_397" x1="1566.06" y1="649.368" x2="1827.4" y2="688.269" gradientUnits="userSpaceOnUse">
<stop stop-color="#4F52FF"/>
<stop offset="1" stop-color="#4042E2"/>
</linearGradient>
<linearGradient id="paint31_linear_36_397" x1="451.317" y1="428.804" x2="585.961" y2="625.371" gradientUnits="userSpaceOnUse">
<stop stop-color="#4F52FF"/>
<stop offset="1" stop-color="#4042E2"/>
</linearGradient>
</defs>
</svg>
