<svg width="460" height="462" viewBox="0 0 460 462" fill="none" xmlns="http://www.w3.org/2000/svg">
<path d="M405.135 394.963C395.764 404.845 386.898 411.217 379.892 416.252C297.546 475.433 200.11 458.182 179.401 453.969C148.822 447.748 89.7128 435.723 46.9779 385.385C-17.6764 309.227 -7.60884 189.244 42.5415 110.041C51.7147 95.5533 100.171 15.1442 198.657 2.24895C258.26 -5.55511 327.738 10.1847 378.052 52.4071C483.665 141.036 476.147 320.081 405.135 394.963Z" fill="url(#paint0_linear_36_1087)"/>
<path d="M87.6644 77.2486C89.3385 66.7132 122.104 59.2683 121.244 36.6444L103.692 22.0814C103.692 22.0814 96.6092 49.72 86.3601 57.1221C76.1109 64.5243 73.9303 56.6349 77.6149 49.8661C81.2993 43.0975 98.7274 29.2876 97.2248 19.8959C97.2248 19.8959 95.9796 12.4659 86.8437 15.9362C77.708 19.4067 64.4296 8.57523 61.5183 1.67334C61.5183 1.67334 60.2192 5.87528 52.8118 13.9881C45.4042 22.1009 37.3689 29.7358 44.1375 36.9875C50.9058 44.2392 63.0938 49.9582 60.8865 55.658C58.679 61.3576 34.3245 55.5854 33.2448 35.8614C33.2448 35.8614 20.4811 47.8649 20.2695 53.3379C20.0578 58.8107 27.0017 67.0826 41.8959 68.7715C56.7903 70.4601 63.1076 75.7016 61.4521 79.9766C59.7966 84.2514 17.3419 72.8755 17.4992 56.6879C17.4992 56.6879 4.4084 86.621 4.84154 90.7459C5.27451 94.8707 23.3729 101.101 35.6462 100.615C47.9194 100.129 57.3829 107.981 58.4221 112.609C59.4611 117.236 45.7231 109.603 38.1858 109.626C30.6486 109.648 2.39266 96.8728 2.39266 96.8728C2.39266 96.8728 5.06835 100.348 2.15306 111.109C-0.762553 121.87 0.715821 141.297 7.63735 142.019C14.559 142.741 47.9312 139.678 58.093 142.461C68.2548 145.244 75.8246 149.642 70.0447 151.749C64.2646 153.857 51.0903 150.458 40.9305 150.815C30.771 151.171 4.77287 155.332 0.801695 149.527C0.801695 149.527 0.577668 179.466 26.2831 190.752C26.2831 190.752 41.0256 187.922 51.4622 178.381C61.899 168.84 66.7076 165.298 71.0393 167.637C75.3709 169.976 68.0999 176.495 61.4444 182.27C54.7888 188.045 39.5836 201.788 32.9933 200.714C32.9933 200.714 72.673 215.436 87.1749 190.439C100.775 166.997 99.2179 162.994 98.9719 162.587C99.9945 164.035 131.303 207.549 165.237 157.929C165.237 157.929 154.332 167.082 145.695 163.054C137.058 159.026 120.355 161.484 122.389 155.014C124.424 148.543 155.76 163.246 166.032 152.941C176.304 142.635 176.181 120.399 163.639 110.39C163.639 110.39 159.597 123.125 145.476 127.098C131.354 131.072 111.243 132.586 118.463 123.514C125.683 114.442 164.067 110.914 168.569 102.211C173.07 93.5092 151.252 66.8557 151.252 66.8557C151.252 66.8557 149.232 71.5716 137.122 83.9419C125.012 96.3123 108.697 107.88 108.208 103.081C107.719 98.2816 118.9 91.4836 128.664 85.0287C138.428 78.5738 146.646 65.78 143.491 60.4164C140.336 55.0526 126.692 41.1651 126.692 41.1651C126.692 41.1651 114.338 60.0843 109.578 69.1929C104.818 78.3015 85.9904 87.784 87.6644 77.2486ZM104.947 141.768C92.5519 148.401 96.4826 137.177 100.769 130.172C104.024 124.854 117.342 135.135 104.947 141.768ZM97.4344 116.108C89.335 120.684 85.1855 118.236 87.3294 113.527C92.2556 102.706 105.534 111.531 97.4344 116.108ZM86.3406 89.9575C82.1085 92.7225 79.7768 92.6706 79.6611 86.9261C79.5456 81.1818 90.5727 87.1929 86.3406 89.9575Z" fill="#BDD0FB"/>
<path d="M23.7612 73.0619C22.299 132.142 17.5568 335.933 19.8205 408.15C20.0604 415.801 26.1835 421.941 33.8214 422.192C71.5985 423.43 180.273 426.569 242.063 423.972C254.933 423.431 265.168 412.989 265.435 400.089C266.719 338.077 269.552 163.66 262.818 83.7588C262.011 74.1855 254.51 66.5619 244.966 65.6055C203.825 61.4832 94.5553 51.4063 41.1719 54.8762C31.5444 55.5021 24.0003 63.4012 23.7612 73.0619Z" fill="url(#paint1_linear_36_1087)"/>
<path d="M36.6268 91.188C34.5933 138.875 28.1795 297.517 30.2151 356.18C30.5127 364.754 37.2595 371.687 45.8103 372.188C81.0166 374.252 171.318 378.802 222.957 374.66C232.255 373.914 239.552 366.382 240.054 357.052C242.67 308.402 250.184 160.683 248.233 102.678C247.921 93.4248 240.765 85.8677 231.559 85.0398C193.471 81.6144 95.6495 73.4643 51.7681 75.8624C43.5304 76.3128 36.9788 82.9324 36.6268 91.188Z" fill="url(#paint2_linear_36_1087)"/>
<path opacity="0.41" d="M113.133 65.1996C113.133 67.0125 114.543 68.5076 116.351 68.6025C125.273 69.0706 150.409 70.3948 161.642 71.0476C163.857 71.1763 165.595 69.1821 165.175 67L165.104 66.6277C164.817 65.1389 163.584 64.018 162.077 63.8797C154.483 63.1828 131.571 61.2503 116.391 61.7931C114.567 61.8585 113.133 63.372 113.133 65.1996Z" fill="url(#paint3_linear_36_1087)"/>
<path d="M181.167 162.707H88.336C86.4353 162.707 84.8945 161.163 84.8945 159.259V102.897C84.8945 100.994 86.4353 99.4502 88.336 99.4502H181.167C183.068 99.4502 184.609 100.994 184.609 102.897V159.259C184.609 161.163 183.068 162.707 181.167 162.707Z" fill="url(#paint4_linear_36_1087)"/>
<path opacity="0.78" d="M161.826 113.295C161.513 112.909 161.021 112.749 160.5 112.76L113.026 113.758L111.826 109.942C111.66 109.411 111.161 109.07 110.596 109.085L104.078 109.256C103.379 109.275 102.813 109.762 102.813 110.46C102.813 111.159 103.379 111.618 104.078 111.601L109.648 111.469L119.727 143.729C119.897 144.272 120.406 144.645 120.983 144.653L154.305 145.101C155.087 145.112 155.722 144.62 155.722 143.88C155.722 143.139 155.087 142.632 154.305 142.623L121.955 142.274L119.359 133.898L154.908 133.952C155.636 133.953 156.278 133.476 156.482 132.815L162.092 114.643C162.238 114.17 162.14 113.682 161.826 113.295Z" fill="white"/>
<path opacity="0.78" d="M125.857 146.643C123.116 146.601 120.898 148.738 120.898 151.408C120.898 154.077 123.116 156.308 125.857 156.38C128.616 156.452 130.872 154.316 130.872 151.617C130.872 148.917 128.616 146.686 125.857 146.643ZM125.857 153.783C124.576 153.753 123.536 152.712 123.536 151.463C123.536 150.213 124.576 149.216 125.857 149.24C127.142 149.263 128.191 150.304 128.191 151.56C128.191 152.816 127.142 153.813 125.857 153.783Z" fill="white"/>
<path opacity="0.78" d="M148.07 146.989C145.193 146.944 142.865 149.133 142.865 151.868C142.865 154.602 145.193 156.888 148.07 156.964C150.965 157.04 153.334 154.853 153.334 152.087C153.334 149.321 150.965 147.034 148.07 146.989ZM148.07 154.304C146.725 154.272 145.634 153.206 145.634 151.925C145.634 150.645 146.725 149.624 148.07 149.649C149.419 149.674 150.519 150.741 150.519 152.028C150.519 153.315 149.419 154.336 148.07 154.304Z" fill="white"/>
<path d="M224.4 310.344H52.7018C51.1631 310.344 49.9158 309.094 49.9158 307.553V184.402C49.9158 182.861 51.1631 181.612 52.7018 181.612H224.4C225.939 181.612 227.186 182.861 227.186 184.402V307.553C227.186 309.094 225.938 310.344 224.4 310.344Z" fill="url(#paint5_linear_36_1087)"/>
<path d="M224.356 353.621H55.5139C54.5632 353.621 53.7925 352.849 53.7925 351.897V323.717C53.7925 322.765 54.5632 321.993 55.5139 321.993H224.356C225.307 321.993 226.078 322.765 226.078 323.717V351.897C226.078 352.849 225.307 353.621 224.356 353.621Z" fill="url(#paint6_linear_36_1087)"/>
<path d="M445.96 16.1354L419.015 14.7313C416.814 14.6165 415.058 16.3349 415.121 18.5558L415.817 43.3766C415.874 45.405 417.626 46.9546 419.706 46.8517L445.292 45.5857C447.027 45.4999 448.459 43.9596 448.51 42.1341L449.134 19.9007C449.189 17.9207 447.778 16.2301 445.96 16.1354Z" fill="#91B3FA"/>
<path d="M441.107 38.3815H426.735C426.367 38.3815 426.043 38.1391 425.938 37.7857L421.804 23.808L417.454 23.2337C416.999 23.1736 416.679 22.7552 416.739 22.2995C416.799 21.8438 417.22 21.5219 417.672 21.5832L422.556 22.2283C422.881 22.2713 423.151 22.5019 423.244 22.8171L427.356 36.717H440.418L442.319 26.6487C442.404 26.1968 442.841 25.902 443.29 25.9854C443.741 26.071 444.037 26.5064 443.952 26.9579L441.923 37.7039C441.849 38.0971 441.506 38.3815 441.107 38.3815Z" fill="white"/>
<path d="M443.073 27.4269H423.868C423.409 27.4269 423.037 27.0542 423.037 26.5945C423.037 26.1347 423.409 25.7622 423.868 25.7622H443.073C443.531 25.7622 443.904 26.1347 443.904 26.5945C443.903 27.0544 443.531 27.4269 443.073 27.4269Z" fill="white"/>
<path d="M430.403 37.4461C429.944 37.4461 429.572 37.0737 429.572 36.6139V26.7282C429.572 26.2685 429.944 25.896 430.403 25.896C430.861 25.896 431.234 26.2685 431.234 26.7282V36.6139C431.233 37.0737 430.861 37.4461 430.403 37.4461Z" fill="white"/>
<path d="M437.071 37.4461C436.612 37.4461 436.24 37.0737 436.24 36.6139V26.7282C436.24 26.2685 436.612 25.896 437.071 25.896C437.53 25.896 437.902 26.2685 437.902 26.7282V36.6139C437.902 37.0737 437.53 37.4461 437.071 37.4461Z" fill="white"/>
<path d="M442.006 32.7707H425.468C425.009 32.7707 424.637 32.3981 424.637 31.9384C424.637 31.4787 425.009 31.1062 425.468 31.1062H442.006C442.464 31.1062 442.837 31.4788 442.837 31.9384C442.837 32.3981 442.464 32.7707 442.006 32.7707Z" fill="white"/>
<path d="M429.068 43.3395C430.006 43.3395 430.767 42.5776 430.767 41.6379C430.767 40.6981 430.006 39.9363 429.068 39.9363C428.13 39.9363 427.369 40.6981 427.369 41.6379C427.369 42.5776 428.13 43.3395 429.068 43.3395Z" fill="white"/>
<path d="M439.422 43.3395C440.36 43.3395 441.121 42.5776 441.121 41.6379C441.121 40.6981 440.36 39.9363 439.422 39.9363C438.484 39.9363 437.723 40.6981 437.723 41.6379C437.723 42.5776 438.484 43.3395 439.422 43.3395Z" fill="white"/>
<path d="M58.7933 445.76C58.7933 445.76 57.879 450.944 57.4308 456.076C57.2556 458.081 58.7995 459.823 60.8076 459.906C67.6303 460.191 82.2243 460.744 87.4611 460.51C88.2484 460.475 88.763 459.668 88.4717 458.935C88.2276 458.32 87.7567 457.823 87.1568 457.547L63.0501 446.449L58.7933 445.76Z" fill="url(#paint7_linear_36_1087)"/>
<path d="M58.0444 442.714L58.7788 448.915C58.7788 448.915 63.0017 450.884 65.8855 448.667L64.1369 441.756L58.0444 442.714Z" fill="url(#paint8_linear_36_1087)"/>
<path d="M58.5963 326.136C58.279 327.755 56.8932 406.943 65.3439 442.431C65.4821 443.01 65.1889 443.607 64.6386 443.832C63.3425 444.362 60.8015 445.13 57.7562 445.233C56.8131 445.264 55.9676 444.65 55.7015 443.744C53.2859 435.51 41.7108 394.258 40.2006 354.851C38.5133 310.817 40.2006 353.351 40.2006 353.351L41.1903 326.132L58.5963 326.136Z" fill="url(#paint9_linear_36_1087)"/>
<path d="M31.0627 448.464C31.0627 448.464 29.6075 451.082 28.1986 458.036C27.9442 459.292 28.8203 460.494 30.0935 460.619C32.3464 460.841 35.8145 461.126 38.5929 461.107C39.8735 461.098 40.873 459.981 40.7186 458.708C40.4108 456.17 39.4521 452.005 36.4906 448.759L31.0627 448.464Z" fill="url(#paint10_linear_36_1087)"/>
<path d="M29.7844 440.489L31.5008 449.866C31.5008 449.866 33.1977 451.13 36.5547 450.214L35.7355 440.125L29.7844 440.489Z" fill="url(#paint11_linear_36_1087)"/>
<path d="M25.148 328.566C18.2364 370.346 26.6473 431.83 29.4839 443.863C29.6576 444.6 30.2512 445.165 30.9967 445.288C32.2629 445.499 34.3474 445.67 36.4027 445.072C37.1108 444.866 37.6082 444.226 37.6372 443.489C38.0177 433.76 37.3327 374.033 43.7726 350.429C44.099 349.233 44.8283 348.189 45.8373 347.471L58.3371 338.57L59.2953 324.183L25.148 328.566Z" fill="url(#paint12_linear_36_1087)"/>
<path d="M69.1889 249.4C48.4761 249.057 25.622 254.847 25.622 254.847C19.448 290.932 24.5424 332.553 24.5424 332.553C40.5775 336.765 58.6664 329.978 58.6664 329.978C61.3315 314.895 73.7665 272.448 73.7665 272.448C83.8866 271.19 92.2236 268.265 99.0889 264.399C93.8521 258.318 91.3832 250.582 90.3111 246.008C82.9878 248.288 75.5775 249.506 69.1889 249.4Z" fill="#7D97F4"/>
<path d="M130.371 218.841C128.336 216.379 125.761 217.544 125.761 217.544C122.713 230.44 106.73 240.897 90.311 246.008C91.3831 250.582 93.8522 258.319 99.0889 264.399C126.339 249.052 130.371 218.841 130.371 218.841Z" fill="url(#paint13_linear_36_1087)"/>
<path d="M129.877 219.467C130.09 220.145 127.624 221.177 126.172 218.404C126.122 217.075 125.315 211.382 126.108 210.3C130.33 204.534 138.516 197.306 138.516 197.306C139.899 198.674 138.759 200.017 138.759 200.017L134.788 204.16C135.619 205.664 136.632 206.933 137.107 208.751C137.466 210.129 137.247 211.6 136.552 212.854C135.855 214.112 134.904 215.747 134.005 217.026C132.303 219.448 129.877 219.467 129.877 219.467Z" fill="url(#paint14_linear_36_1087)"/>
<path d="M133.051 206.849L129.433 209.922L128.297 212.981L131.523 216.567C131.523 216.567 132.608 210.496 133.414 209.182C134.22 207.868 133.802 207.233 133.051 206.849Z" fill="url(#paint15_linear_36_1087)"/>
<path d="M33.5666 274.936L25.6221 254.847C25.6221 254.847 6.2751 268.014 3.09351 284.708C6.74904 284.978 12.8779 285.991 19.3889 289.284C22.3273 282.662 33.5666 274.936 33.5666 274.936Z" fill="#7D97F4"/>
<path d="M48.2085 232.556L41.618 251.647C41.5088 251.963 41.6385 252.313 41.931 252.475C43.7276 253.47 50.1998 256.346 57.9997 251.392C58.8124 250.876 59.3655 250.035 59.4889 249.079L61.623 232.556H48.2085V232.556Z" fill="url(#paint16_linear_36_1087)"/>
<path d="M62.5486 214.878C62.5486 214.878 69.7856 228.523 68.8578 234.035C67.9303 239.547 58.9609 239.152 51.1288 234.675L45.656 219.941L62.5486 214.878Z" fill="url(#paint17_linear_36_1087)"/>
<path d="M51.475 227.439C51.7933 227.298 51.9108 226.908 51.72 226.616C51.1404 225.729 50.0533 223.919 49.7067 222.334C49.7067 222.334 48.4057 221.499 53.0179 220.394C57.6302 219.288 64.5083 217.572 65.9541 213.639C67.3636 209.805 63.6601 200.164 57.7517 207.846C57.5268 208.138 57.0865 208.145 56.8619 207.852C55.8932 206.59 53.3467 203.969 49.8113 205.557C46.5028 207.044 46.1302 209.473 46.1756 210.697C46.1888 211.057 45.8675 211.337 45.5141 211.269C43.8414 210.95 39.8273 210.675 37.9536 214.8C36.4104 218.197 37.4133 220.12 38.327 221.061C38.6231 221.366 38.4933 221.868 38.0874 221.992C36.9879 222.329 35.5683 223.263 35.7106 225.843C35.9069 229.409 39.8881 229.095 41.0215 228.933C41.2073 228.906 41.3942 228.97 41.52 229.109C42.4918 230.187 46.8709 234.761 51.61 235.312C52.0206 235.36 52.3385 234.954 52.2041 234.563L50.1531 228.591C50.0579 228.314 50.1903 228.009 50.4581 227.891L51.475 227.439Z" fill="url(#paint18_linear_36_1087)"/>
<path d="M52.2995 228.287C52.2995 228.287 47.1466 224.746 46.7703 227.728C46.3937 230.71 51.4103 232.047 53.8952 230.935L52.2995 228.287Z" fill="url(#paint19_linear_36_1087)"/>
<path d="M3.22724 284.87C3.22724 284.87 -9.99586 315.039 22.3273 319.453L26.735 315.774C26.735 315.774 10.5734 306.944 19.3889 289.284C19.3889 289.284 9.83887 281.19 3.22724 284.87Z" fill="url(#paint20_linear_36_1087)"/>
<path d="M26.7351 315.774H38.489C38.489 315.774 45.8352 325.34 45.1005 327.547C44.3658 329.755 37.1054 328 37.1054 328L33.3466 321.661C33.3466 321.661 22.3274 322.396 22.3274 319.453C22.3274 316.51 26.7351 315.774 26.7351 315.774Z" fill="url(#paint21_linear_36_1087)"/>
<path d="M261.426 144.507C260.68 144.507 260.065 143.914 260.042 143.163C260.035 142.938 259.424 120.476 265.936 97.2164C269.78 83.4883 275.318 72.1517 282.396 63.5214C291.314 52.6491 302.689 46.0738 316.206 43.9784C328.089 42.138 338.651 44.9506 347.605 52.3421C359.885 62.4784 369.013 80.8515 374.739 106.951C378.978 126.281 379.661 142.901 379.667 143.066C379.697 143.831 379.102 144.476 378.337 144.506C377.571 144.534 376.93 143.939 376.9 143.173C376.874 142.522 374.046 77.7591 345.841 54.4812C337.524 47.6159 327.695 45.0041 316.63 46.7204C293.268 50.3418 277.11 67.5832 268.603 97.9659C262.204 120.82 262.804 142.857 262.811 143.077C262.835 143.843 262.234 144.483 261.469 144.506C261.455 144.507 261.44 144.507 261.426 144.507Z" fill="url(#paint22_linear_36_1087)"/>
<path d="M196.776 125.386C196.995 123.899 198.256 122.79 199.756 122.765L363.504 120.054L417.121 440.218H158.39C149.503 440.218 196.776 125.386 196.776 125.386Z" fill="#7D97F4"/>
<path d="M392.14 122.495L363.504 120.054L417.121 440.218H449.195C455.697 440.218 460.557 434.232 459.232 427.855L396.563 126.422C396.117 124.278 394.319 122.681 392.14 122.495Z" fill="#91B3FA"/>
<path d="M225.681 143.818C224.936 143.818 224.321 143.225 224.297 142.474C224.29 142.25 223.679 119.788 230.191 96.5279C234.035 82.7998 239.573 71.4632 246.652 62.833C255.569 51.9606 266.944 45.3854 280.461 43.29C292.346 41.4474 302.907 44.2624 311.861 51.6537C324.14 61.7897 333.269 80.1631 338.994 106.262C343.234 125.592 343.916 142.212 343.923 142.378C343.953 143.143 343.357 143.787 342.593 143.817C341.856 143.852 341.185 143.251 341.155 142.485C341.13 141.834 338.301 77.0706 310.097 53.7924C301.779 46.9276 291.949 44.3153 280.886 46.032C257.524 49.6533 241.365 66.8948 232.859 97.2775C226.459 120.132 227.059 142.169 227.066 142.388C227.09 143.154 226.489 143.794 225.725 143.818C225.71 143.818 225.695 143.818 225.681 143.818Z" fill="url(#paint23_linear_36_1087)"/>
<path d="M295.56 267.5C295.536 266.903 292.947 207.588 267.072 186.231C259.405 179.904 250.348 177.497 240.152 179.077C218.694 182.404 203.853 198.216 196.042 226.074C190.174 247.004 190.72 267.229 190.726 267.431L188.753 267.492C188.747 267.288 188.189 246.8 194.13 225.582C197.632 213.072 202.676 202.744 209.121 194.886C217.227 185.004 227.566 179.027 239.851 177.123C250.627 175.453 260.209 178.004 268.329 184.707C279.503 193.93 287.815 210.671 293.034 234.463C296.904 252.107 297.527 267.272 297.532 267.423L295.56 267.5Z" fill="url(#paint24_linear_36_1087)"/>
<path d="M107.726 432.288L133.954 259.119C134.205 257.465 135.61 256.234 137.28 256.206L288.829 253.697L321.61 449.193H120.627C112.102 449.193 106.482 440.736 107.726 432.288Z" fill="url(#paint25_linear_36_1087)"/>
<path d="M318.048 256.188L288.829 253.697L321.61 449.193L353.972 448.356C357.167 448.273 359.505 445.311 358.85 442.178L320.311 258.05C320.015 257.02 319.114 256.279 318.048 256.188Z" fill="url(#paint26_linear_36_1087)"/>
<path d="M262.889 266.871C262.866 266.274 260.276 206.959 234.401 185.602C226.735 179.275 217.678 176.868 207.482 178.448C186.023 181.775 171.182 197.586 163.372 225.445C157.503 246.375 158.05 266.6 158.056 266.802L156.083 266.863C156.076 266.659 155.518 246.171 161.459 224.953C164.962 212.443 170.006 202.115 176.45 194.257C184.556 184.375 194.895 178.398 207.18 176.494C217.957 174.823 227.539 177.375 235.659 184.077C246.833 193.301 255.145 210.042 260.363 233.834C264.233 251.477 264.856 266.643 264.862 266.794L262.889 266.871Z" fill="url(#paint27_linear_36_1087)"/>
<path d="M277.502 208.983C277.861 208.278 277.915 207.456 277.656 206.709C273.785 195.566 259.894 155.667 259.296 155.152C258.602 154.553 237.097 132.079 237.097 132.079C233.134 127.94 231.438 131.44 231.438 131.44L219.13 167.769L237.667 219.103C238.191 220.555 239.758 221.342 241.233 220.896L275.756 210.446C276.513 210.217 277.143 209.689 277.502 208.983ZM233.044 145.24C231.318 143.752 231.122 141.143 232.608 139.414C234.094 137.684 236.699 137.489 238.425 138.977C240.152 140.466 240.347 143.074 238.861 144.804C237.375 146.533 234.771 146.729 233.044 145.24Z" fill="url(#paint28_linear_36_1087)"/>
<path opacity="0.85" d="M242.29 179.392C244.942 185.167 243.799 189.218 241.041 190.489C238.22 191.789 234.571 189.895 232.12 184.641C229.738 179.456 230.37 175.028 233.47 173.599C236.662 172.128 240.025 174.46 242.29 179.392ZM246.388 201.968L245.062 168.257L247.232 167.257L248.557 200.968L246.388 201.968ZM234.956 183.129C236.377 186.305 238.279 188.238 239.797 187.538C241.317 186.838 241.053 184.303 239.523 180.973C238.129 177.938 236.387 175.779 234.744 176.536C233.194 177.251 233.542 180.052 234.956 183.129ZM261.403 184.374C264.036 190.106 262.943 194.185 260.154 195.471C257.364 196.757 253.684 194.877 251.245 189.566C248.883 184.424 249.495 179.953 252.564 178.539C255.756 177.068 259.138 179.442 261.403 184.374ZM254.069 188.111C255.471 191.245 257.392 193.22 258.91 192.519C260.46 191.805 260.166 189.285 258.637 185.955C257.223 182.878 255.5 180.761 253.857 181.518C252.308 182.232 252.656 185.034 254.069 188.111Z" fill="white"/>
<path d="M235.099 141.708C234.604 141.375 234.33 140.767 234.452 140.146C234.524 139.769 236.139 130.829 228.225 123.395C227.611 122.818 227.58 121.852 228.156 121.237C228.732 120.622 229.697 120.589 230.31 121.167C239.496 129.797 237.53 140.296 237.442 140.738C237.277 141.565 236.474 142.102 235.649 141.937C235.446 141.896 235.261 141.817 235.099 141.708Z" fill="url(#paint29_linear_36_1087)"/>
<path d="M447.335 160.587C447.271 160.562 412.462 99.5028 407.758 93.7568C406.967 92.7903 405.742 92.2982 404.503 92.4461L394.787 93.6058L383.373 118.339L402.388 107.247C400.507 120.281 424.934 139.652 433.312 146.72C434.162 147.438 434.232 148.722 433.464 149.527L430.119 153.034C435.611 158.609 441.947 162.189 449.098 163.845L447.335 160.587Z" fill="url(#paint30_linear_36_1087)"/>
<path d="M432.054 151.142C432.054 151.142 429.92 151.833 429.197 153.737C428.851 154.648 429.224 155.68 430.015 156.247C433.53 158.77 445.124 166.913 450.475 168.508C450.913 168.639 451.33 168.241 451.232 167.794C450.957 166.549 450.069 164.063 447.208 160.423L447.464 160.943C447.789 161.602 447.074 162.287 446.435 161.926C442.857 159.903 435.568 155.474 432.054 151.142Z" fill="url(#paint31_linear_36_1087)"/>
<path d="M433.777 175.573C433.719 175.535 428.496 162.932 428.438 162.895C423.649 133.693 411.967 108.684 408.521 102.103C407.942 100.996 406.842 100.266 405.598 100.159L395.849 99.3257L379.674 121.233L400.537 114.225C396.061 126.609 416.07 150.53 422.846 159.151C423.534 160.025 423.342 161.298 422.428 161.931L418.444 164.687C422.695 171.26 428.176 176.05 434.845 179.121L433.777 175.573Z" fill="url(#paint32_linear_36_1087)"/>
<path d="M420.721 163.226C420.721 163.226 418.491 163.469 417.398 165.188C416.876 166.01 417.032 167.096 417.692 167.812C420.625 170.995 430.333 181.32 435.251 183.967C435.654 184.184 436.143 183.879 436.137 183.421C436.119 182.146 435.752 179.531 433.685 175.387L433.832 175.948C434.017 176.659 433.178 177.185 432.626 176.702C429.529 173.995 423.286 168.18 420.721 163.226Z" fill="url(#paint33_linear_36_1087)"/>
<path d="M350.215 94.7117C350.215 94.7117 341.396 107.851 340.672 113.844C339.948 119.838 343.111 121.91 352.341 122.675C379.811 124.949 393.352 116.703 393.352 116.703C395.231 104.702 396.568 101.649 412.262 95.1242C412.262 95.1242 392.412 96.7027 388.417 95.15C384.422 93.5971 350.215 94.7117 350.215 94.7117Z" fill="url(#paint34_linear_36_1087)"/>
<path d="M385.383 21.0981C385.383 21.0981 379.241 13.8185 372.71 22.75C371.528 24.3677 366.985 23.033 365.319 26.4189C364.46 28.1671 362.602 29.1602 360.689 28.8068C355.924 27.9265 348.135 27.8523 344.289 35.3321C341.354 41.0415 343.62 44.3828 346.554 46.2876C348.71 47.6868 349.479 50.5273 348.175 52.7438C346.926 54.8699 346.69 57.7489 349.918 61.214C357.151 68.9786 371.469 56.2863 371.469 56.2863L382.837 29.3789L385.383 21.0981Z" fill="url(#paint35_linear_36_1087)"/>
<path d="M374.066 92.9725C374.066 92.9725 384.336 83.1773 389.391 76.6892C392.124 73.1822 392.982 68.5654 391.718 64.3006C389.41 56.5118 385.309 48.4449 384.934 47.1893C384.361 45.2648 372.846 45.345 372.846 45.345C372.846 45.345 350.185 60.0759 341.282 85.0289L351.281 88.147C351.281 88.147 357.197 78.2045 363.043 71.8832C363.043 71.8832 352.928 85.2681 352.572 90.7476L374.066 92.9725Z" fill="url(#paint36_linear_36_1087)"/>
<path d="M393.634 96.8377L385.917 88.4278L377.004 90.8316C377.004 90.8316 366.614 92.4441 360.667 90.8316C354.721 89.2192 354.721 89.2192 354.721 89.2192L341.282 85.0286L339.172 91.0032C338.636 92.5201 339.174 94.2041 340.484 95.1362C341.646 95.9636 343.009 96.873 343.878 97.2537C345.648 98.0292 384.645 97.4989 384.645 97.4989L393.634 96.8377Z" fill="url(#paint37_linear_36_1087)"/>
<path d="M380.76 31.4764L373.02 45.8921C373.531 49.0389 381.444 49.1277 382.666 47.2487C382.791 47.0574 382.862 46.8363 382.909 46.6129L387.539 36.9807C387.738 36.0414 385.167 32.8766 384.321 32.4255L381.245 30.7853C380.06 30.154 385.003 30.1043 380.76 31.4764Z" fill="url(#paint38_linear_36_1087)"/>
<path d="M396.424 28.0933C396.424 28.0933 397.297 32.9637 393.476 39.1561C389.654 45.3485 385.848 45.069 383.915 42.8607C381.981 40.6523 379.665 36.9742 380.719 30.7979C381.773 24.6217 395.104 21.8825 396.424 28.0933Z" fill="url(#paint39_linear_36_1087)"/>
<path d="M385.345 31.4691C385.345 31.4691 391.534 23.3273 396.285 30.4249L396.205 32.8767C396.205 32.8767 402.383 32.5873 401.713 26.8835C401.043 21.1796 395.999 17.2832 389.006 19.232C382.014 21.1808 377.928 23.4001 377.138 28.2629C376.349 33.1259 380.313 32.3312 380.313 32.3312C380.313 32.3312 381.827 28.9758 383.655 28.7466C385.484 28.5175 384.823 31.1716 384.823 31.1716L385.345 31.4691Z" fill="url(#paint40_linear_36_1087)"/>
<path d="M383.925 31.2518C383.925 31.2518 387.131 27.0851 384.213 26.2204C381.295 25.3556 381.404 30.303 381.594 32.1436L383.925 31.2518Z" fill="url(#paint41_linear_36_1087)"/>
<path d="M368.09 100.166C368.117 100.168 368.144 100.168 368.171 100.168L403.666 100.129C404.543 100.129 405.254 99.4155 405.253 98.5364C405.252 97.6572 404.538 96.9309 403.662 96.9468L368.168 96.9855C367.29 96.9864 366.58 97.6996 366.581 98.5785C366.582 99.4302 367.25 100.125 368.09 100.166Z" fill="url(#paint42_linear_36_1087)"/>
<path d="M435.574 67.8865H406.014C403.833 67.8865 401.848 69.147 400.918 71.1225L387.253 100.147H423.988C425.393 100.147 426.656 99.2874 427.172 97.9783L437.769 71.1201C438.382 69.5682 437.24 67.8865 435.574 67.8865Z" fill="url(#paint43_linear_36_1087)"/>
<path d="M414.749 82.7684C414.108 84.7619 414.581 86.6979 415.806 87.0927C417.03 87.4874 418.542 86.1913 419.182 84.1979C419.823 82.2044 419.349 80.2684 418.125 79.8738C416.901 79.479 415.389 80.775 414.749 82.7684Z" fill="#91B3FA"/>
<path d="M333.439 266.969C333.439 266.969 326.509 302.791 307.365 312.417C303.612 314.068 298.926 314.773 297.153 316.522C295.138 318.509 298.871 321.797 300.682 324.521C302.492 327.244 302.621 325.749 302.914 324.683C303.206 323.617 300.399 321.097 302.919 319.285C305.438 317.472 305.003 319.481 304.046 321.34C303.09 323.2 303.674 325.6 303.787 325.708C303.9 325.815 305.773 324.282 307.547 322.904C309.07 321.722 309.53 319.313 309.63 318.651C313.54 317.276 337.782 307.644 342.51 278.759C342.51 278.759 337.626 252.245 333.439 266.969Z" fill="url(#paint44_linear_36_1087)"/>
<path d="M397.397 346.604C397.297 346.604 397.209 346.531 397.192 346.429C397.175 346.319 395.423 335.412 392.044 333.484C391.472 333.159 390.903 333.117 390.302 333.356C385.732 335.179 388.035 345.501 388.059 345.605C388.085 345.717 388.015 345.828 387.903 345.854C387.791 345.88 387.68 345.81 387.655 345.698C387.554 345.259 385.25 334.923 390.149 332.969C390.864 332.684 391.571 332.735 392.249 333.123C395.801 335.149 397.53 345.907 397.602 346.364C397.62 346.477 397.543 346.584 397.43 346.602C397.419 346.604 397.408 346.604 397.397 346.604Z" fill="white"/>
<path d="M402.007 345.632L384.742 344.034L380.899 346.169L384.192 350.297L399.962 348.688L402.007 345.632Z" fill="#91B3FA"/>
<path d="M399.512 450.931L399.798 457.547C399.852 458.802 400.753 459.861 401.984 460.101C404.063 460.504 407.41 461.013 410.731 460.922C412.188 460.882 413.241 459.489 412.908 458.067C412.302 455.474 411.129 451.562 409.186 449.161L401.927 448.594C400.585 448.49 399.454 449.584 399.512 450.931Z" fill="url(#paint45_linear_36_1087)"/>
<path d="M348.639 369.718L346.852 376.841C346.852 376.841 347.715 418.785 347.148 435.491C347.06 438.11 346.185 440.637 344.644 442.755L336.607 453.802L355.571 444.502L356.104 442.314L353.455 437.995L360.972 391.669C361.413 388.948 361.063 386.157 359.962 383.63L356.762 376.28L348.639 369.718Z" fill="url(#paint46_linear_36_1087)"/>
<path d="M335.282 455.389L341.068 455.841C342.151 455.926 343.211 455.508 343.938 454.7C345.925 452.493 350.018 448.205 351.814 448.225C354.232 448.252 353.258 456.793 353.258 456.793L354.606 456.899L357.142 446.388C357.781 443.744 356.657 440.987 354.354 439.545C354.354 439.545 353.487 443.575 350.366 445.144C347.244 446.712 337.59 452.45 337.59 452.45C337.59 452.45 336.482 452.202 335.234 452.329C333.383 452.517 333.427 455.244 335.282 455.389Z" fill="url(#paint47_linear_36_1087)"/>
<path d="M373.205 375.086C373.205 375.086 393.684 422.628 396.693 433.352C399.702 444.077 400.363 452.879 400.35 453.707C400.33 455 401.832 456.359 406.237 456.703C408.511 456.881 409.695 456.055 410.309 455.214C410.833 454.497 410.931 453.555 410.6 452.73C409.43 449.803 405.719 440.452 404.403 436.24C402.831 431.211 400.356 408.781 398.652 400.916C396.949 393.052 394.996 384.513 385.572 376.051C385.572 376.051 379.217 368.765 373.205 375.086Z" fill="url(#paint48_linear_36_1087)"/>
<path d="M363.847 299.075C359.695 272.277 376.56 258.621 376.56 258.621C371.521 252.96 363.901 248.674 358.058 245.962C352.779 243.512 346.545 244.386 342.143 248.195C337.3 252.387 332.031 258.323 332.737 263.879C333.484 269.761 342.148 299.494 342.148 299.494C342.148 299.494 351.867 305.066 363.847 299.075Z" fill="url(#paint49_linear_36_1087)"/>
<path d="M376.578 313.176C374.648 305.365 363.847 299.075 363.847 299.075C351.867 305.066 342.148 299.494 342.148 299.494C342.148 299.494 339.211 307.982 340.146 316.155C341.081 324.329 346.852 376.841 346.852 376.841C362.049 381.18 386.285 376.748 386.285 376.748C377.812 358.49 378.509 320.986 376.578 313.176Z" fill="url(#paint50_linear_36_1087)"/>
<path d="M357.166 229.402L360.441 252.474C360.768 254.509 358.975 254.04 356.989 253.502C353.735 252.62 349.58 251.004 348.357 248.319C348.233 248.046 348.183 247.744 348.166 247.444L347.224 231.55C347.15 230.289 347.918 229.13 349.107 228.71L353.43 227.18C355.094 226.591 356.885 227.656 357.166 229.402Z" fill="url(#paint51_linear_36_1087)"/>
<path d="M410.339 386.987L416.259 383.579L402.007 345.632L398.586 347.946L410.339 386.987Z" fill="#7D97F4"/>
<path d="M394.272 350.73C394.266 350.73 394.261 350.73 394.256 350.73C394.141 350.721 394.056 350.621 394.065 350.506C394.073 350.396 394.844 339.354 391.69 335.738C391.089 335.049 390.376 334.677 389.568 334.632C388.783 334.585 388.055 334.868 387.414 335.467C384.013 338.64 383.815 349.582 383.814 349.692C383.812 349.806 383.72 349.897 383.606 349.897C383.605 349.897 383.604 349.897 383.603 349.897C383.488 349.896 383.397 349.801 383.398 349.686C383.405 349.229 383.602 338.456 387.131 335.163C387.859 334.484 388.683 334.167 389.591 334.216C390.514 334.268 391.326 334.688 392.002 335.464C395.321 339.268 394.487 350.426 394.479 350.538C394.47 350.648 394.379 350.73 394.272 350.73Z" fill="white"/>
<path d="M368.302 269.058C369.149 270.182 381.978 285.469 385.651 302.528C389.325 319.587 388.09 330.978 388.09 330.978C388.09 330.978 384.357 333.766 385.699 335.744C387.041 337.721 386.687 339.067 388.402 339.451C390.117 339.834 392.244 340.375 391.985 336.984C391.725 333.592 395.767 332.909 395.096 330.859C394.428 328.818 399.002 273.763 376.875 258.83C376.77 258.759 376.665 258.69 376.559 258.621C367.205 262.006 366.941 267.25 368.302 269.058Z" fill="url(#paint52_linear_36_1087)"/>
<path d="M380.889 346.293L398.586 347.946L410.339 386.987L384.933 387.652L380.889 346.293Z" fill="#BDD0FB"/>
<g opacity="0.66">
<path d="M410.696 386.377C410.677 386.377 410.656 386.374 410.636 386.369C410.51 386.336 410.436 386.207 410.468 386.081L411.604 381.742L402.642 353.888C402.602 353.763 402.67 353.631 402.793 353.59C402.921 353.552 403.051 353.619 403.09 353.742L412.074 381.663C412.088 381.706 412.089 381.752 412.077 381.796L410.924 386.2C410.895 386.307 410.801 386.377 410.696 386.377Z" fill="url(#paint53_linear_36_1087)"/>
</g>
<g opacity="0.66">
<path d="M415.831 383.656C415.797 383.656 415.762 383.649 415.73 383.633L412.666 382.166C412.548 382.11 412.499 381.969 412.555 381.852C412.612 381.735 412.754 381.685 412.868 381.741L415.932 383.208C416.05 383.264 416.1 383.405 416.043 383.522C416.003 383.607 415.918 383.656 415.831 383.656Z" fill="url(#paint54_linear_36_1087)"/>
</g>
<path d="M366.384 213.894C366.384 213.894 390.475 206.47 394.44 231.639C398.405 256.808 401.144 264.877 407.117 260.537C407.117 260.537 406.134 269.94 394.665 265.737C364.895 254.828 383.014 219.898 366.384 213.894Z" fill="url(#paint55_linear_36_1087)"/>
<path d="M353.541 211.101C353.541 211.101 346.533 213.009 340.732 221.996C334.931 230.982 337.7 235.868 341.847 237.048C345.994 238.228 352.33 238.991 359.854 233.696C367.378 228.401 362.607 208.943 353.541 211.101Z" fill="url(#paint56_linear_36_1087)"/>
<path d="M356.048 227.965C356.048 227.965 362.942 214.602 350.538 212.756L347.338 214.407C347.338 214.407 343.827 206.007 351.812 203.303C359.796 200.599 370.517 205.417 372.341 215.947C374.164 226.477 371.421 232.746 365.472 236.861C359.522 240.977 358.077 235.203 358.077 235.203C358.077 235.203 361.571 231.073 360.723 228.497C359.874 225.92 356.771 228.472 356.771 228.472L356.048 227.965Z" fill="url(#paint57_linear_36_1087)"/>
<path d="M357.231 229.717C357.231 229.717 360.734 222.827 363.72 226.163C366.706 229.5 360.078 232.473 357.518 233.38L357.231 229.717Z" fill="url(#paint58_linear_36_1087)"/>
<path d="M168.481 361.338V379.041C168.481 385.634 170.957 391.983 174.525 397.521L177.901 401.847C181.81 407.909 188.502 411.376 195.705 411.376H269.657L270.217 409.471L288.343 342.955L303.553 334.741L301.288 330.593L284.294 339.822L278.467 361.338H168.481ZM173.758 366.624H277.171L269.877 393.577L266.028 407.852H195.705C190.121 407.852 184.88 404.58 181.854 399.884L178.78 394.975C175.705 390.211 173.758 384.713 173.758 379.041L173.758 366.624Z" fill="#BDD0FB"/>
<path d="M178.693 435.517C178.693 436.828 179.759 438.156 181.073 438.156H267.843C269.158 438.156 270.151 436.295 270.151 434.984V394.001C270.151 393.55 270.062 393.596 269.843 393.236L266.028 407.852H264.874V432.871H181.073C179.758 432.871 178.693 434.199 178.693 435.517Z" fill="#BDD0FB"/>
<path d="M226.865 363.826H223.698V408.439H226.865V363.826Z" fill="#BDD0FB"/>
<path d="M254.842 363.826H251.675V408.439H254.842V363.826Z" fill="#BDD0FB"/>
<path d="M199.547 363.826H196.38V408.439H199.547V363.826Z" fill="#BDD0FB"/>
<path d="M275.968 376.949H172.948V379.786H275.968V376.949Z" fill="#BDD0FB"/>
<path d="M271.471 392.479H175.529V395.316H271.471V392.479Z" fill="#BDD0FB"/>
<path d="M246.499 451.662C246.499 457.321 251.079 461.909 256.729 461.909C262.38 461.909 266.96 457.321 266.96 451.662C266.96 446.002 262.38 441.414 256.729 441.414C251.079 441.414 246.499 446.002 246.499 451.662ZM250.554 451.662C250.554 448.246 253.319 445.476 256.729 445.476C260.139 445.476 262.904 448.246 262.904 451.662C262.904 455.077 260.139 457.847 256.729 457.847C253.319 457.847 250.554 455.077 250.554 451.662Z" fill="#BDD0FB"/>
<path d="M182.922 451.662C182.922 457.321 187.502 461.909 193.152 461.909C198.803 461.909 203.383 457.321 203.383 451.662C203.383 446.002 198.803 441.414 193.152 441.414C187.503 441.414 182.922 446.002 182.922 451.662ZM186.978 451.662C186.978 448.246 189.742 445.476 193.152 445.476C196.563 445.476 199.327 448.246 199.327 451.662C199.327 455.077 196.563 457.847 193.152 457.847C189.742 457.847 186.978 455.077 186.978 451.662Z" fill="#BDD0FB"/>
<path d="M290.747 334.738C290.747 337.397 292.899 339.553 295.554 339.553H311.548C314.202 339.553 316.354 337.397 316.354 334.738C316.354 332.079 314.202 329.924 311.548 329.924H295.554C292.899 329.924 290.747 332.079 290.747 334.738Z" fill="#BDD0FB"/>
<defs>
<linearGradient id="paint0_linear_36_1087" x1="517.369" y1="595.103" x2="108.59" y2="88.2593" gradientUnits="userSpaceOnUse">
<stop stop-color="#DAE3FE"/>
<stop offset="1" stop-color="#E9EFFD"/>
</linearGradient>
<linearGradient id="paint1_linear_36_1087" x1="19.2182" y1="239.567" x2="267.134" y2="239.567" gradientUnits="userSpaceOnUse">
<stop stop-color="#09005D"/>
<stop offset="1" stop-color="#1A0F91"/>
</linearGradient>
<linearGradient id="paint2_linear_36_1087" x1="341.586" y1="-66.4399" x2="310.496" y2="-22.0974" gradientUnits="userSpaceOnUse">
<stop stop-color="#FE7062"/>
<stop offset="1" stop-color="#FF928E"/>
</linearGradient>
<linearGradient id="paint3_linear_36_1087" x1="147.327" y1="-4.24879" x2="177.341" y2="-263.946" gradientUnits="userSpaceOnUse">
<stop stop-color="#4F52FF"/>
<stop offset="1" stop-color="#4042E2"/>
</linearGradient>
<linearGradient id="paint4_linear_36_1087" x1="360.215" y1="-274.398" x2="256.424" y2="-88.3499" gradientUnits="userSpaceOnUse">
<stop stop-color="#E1473D"/>
<stop offset="1" stop-color="#E9605A"/>
</linearGradient>
<linearGradient id="paint5_linear_36_1087" x1="49.9158" y1="245.978" x2="227.186" y2="245.978" gradientUnits="userSpaceOnUse">
<stop stop-color="#FEBBBA"/>
<stop offset="1" stop-color="#FF928E"/>
</linearGradient>
<linearGradient id="paint6_linear_36_1087" x1="53.7925" y1="337.807" x2="226.078" y2="337.807" gradientUnits="userSpaceOnUse">
<stop stop-color="#FEBBBA"/>
<stop offset="1" stop-color="#FF928E"/>
</linearGradient>
<linearGradient id="paint7_linear_36_1087" x1="86.698" y1="438.595" x2="-1.73712" y2="534.63" gradientUnits="userSpaceOnUse">
<stop stop-color="#09005D"/>
<stop offset="1" stop-color="#1A0F91"/>
</linearGradient>
<linearGradient id="paint8_linear_36_1087" x1="58.0444" y1="445.738" x2="65.8856" y2="445.738" gradientUnits="userSpaceOnUse">
<stop stop-color="#A22B25"/>
<stop offset="1" stop-color="#C0423C"/>
</linearGradient>
<linearGradient id="paint9_linear_36_1087" x1="78.8267" y1="268.888" x2="33.8099" y2="471.963" gradientUnits="userSpaceOnUse">
<stop stop-color="#4F52FF"/>
<stop offset="1" stop-color="#4042E2"/>
</linearGradient>
<linearGradient id="paint10_linear_36_1087" x1="66.8941" y1="420.359" x2="-21.5402" y2="516.393" gradientUnits="userSpaceOnUse">
<stop stop-color="#09005D"/>
<stop offset="1" stop-color="#1A0F91"/>
</linearGradient>
<linearGradient id="paint11_linear_36_1087" x1="29.7845" y1="445.336" x2="36.5546" y2="445.336" gradientUnits="userSpaceOnUse">
<stop stop-color="#A22B25"/>
<stop offset="1" stop-color="#C0423C"/>
</linearGradient>
<linearGradient id="paint12_linear_36_1087" x1="58.2939" y1="264.337" x2="13.2771" y2="467.412" gradientUnits="userSpaceOnUse">
<stop stop-color="#4F52FF"/>
<stop offset="1" stop-color="#4042E2"/>
</linearGradient>
<linearGradient id="paint13_linear_36_1087" x1="96.6574" y1="263.838" x2="89.992" y2="277.701" gradientUnits="userSpaceOnUse">
<stop stop-color="#A22B25"/>
<stop offset="1" stop-color="#C0423C"/>
</linearGradient>
<linearGradient id="paint14_linear_36_1087" x1="121.446" y1="234.108" x2="94.4913" y2="295.336" gradientUnits="userSpaceOnUse">
<stop stop-color="#A22B25"/>
<stop offset="1" stop-color="#C0423C"/>
</linearGradient>
<linearGradient id="paint15_linear_36_1087" x1="151.352" y1="167.942" x2="141.354" y2="189.57" gradientUnits="userSpaceOnUse">
<stop stop-color="#A22B25"/>
<stop offset="1" stop-color="#C0423C"/>
</linearGradient>
<linearGradient id="paint16_linear_36_1087" x1="59.9897" y1="232.621" x2="118.279" y2="151.981" gradientUnits="userSpaceOnUse">
<stop stop-color="#A22B25"/>
<stop offset="1" stop-color="#C0423C"/>
</linearGradient>
<linearGradient id="paint17_linear_36_1087" x1="66.3903" y1="230.612" x2="44.3329" y2="217.18" gradientUnits="userSpaceOnUse">
<stop stop-color="#A22B25"/>
<stop offset="1" stop-color="#C0423C"/>
</linearGradient>
<linearGradient id="paint18_linear_36_1087" x1="32.687" y1="202.956" x2="61.1932" y2="225.434" gradientUnits="userSpaceOnUse">
<stop stop-color="#09005D"/>
<stop offset="1" stop-color="#1A0F91"/>
</linearGradient>
<linearGradient id="paint19_linear_36_1087" x1="60.6019" y1="235.633" x2="40.7564" y2="223.548" gradientUnits="userSpaceOnUse">
<stop stop-color="#A22B25"/>
<stop offset="1" stop-color="#C0423C"/>
</linearGradient>
<linearGradient id="paint20_linear_36_1087" x1="13.8972" y1="306.824" x2="27.7868" y2="345.651" gradientUnits="userSpaceOnUse">
<stop stop-color="#A22B25"/>
<stop offset="1" stop-color="#C0423C"/>
</linearGradient>
<linearGradient id="paint21_linear_36_1087" x1="26.3234" y1="302.378" x2="40.213" y2="341.206" gradientUnits="userSpaceOnUse">
<stop stop-color="#A22B25"/>
<stop offset="1" stop-color="#C0423C"/>
</linearGradient>
<linearGradient id="paint22_linear_36_1087" x1="260.024" y1="93.9693" x2="379.668" y2="93.9693" gradientUnits="userSpaceOnUse">
<stop stop-color="#2B3582"/>
<stop offset="1" stop-color="#150E42"/>
</linearGradient>
<linearGradient id="paint23_linear_36_1087" x1="224.279" y1="93.2807" x2="343.924" y2="93.2807" gradientUnits="userSpaceOnUse">
<stop stop-color="#2B3582"/>
<stop offset="1" stop-color="#150E42"/>
</linearGradient>
<linearGradient id="paint24_linear_36_1087" x1="242.056" y1="270.632" x2="218.287" y2="459.48" gradientUnits="userSpaceOnUse">
<stop stop-color="#09005D"/>
<stop offset="1" stop-color="#1A0F91"/>
</linearGradient>
<linearGradient id="paint25_linear_36_1087" x1="340.294" y1="213.263" x2="475.191" y2="45.3343" gradientUnits="userSpaceOnUse">
<stop stop-color="#4F52FF"/>
<stop offset="1" stop-color="#4042E2"/>
</linearGradient>
<linearGradient id="paint26_linear_36_1087" x1="570.512" y1="198.499" x2="518.941" y2="230.055" gradientUnits="userSpaceOnUse">
<stop stop-color="#4F52FF"/>
<stop offset="1" stop-color="#4042E2"/>
</linearGradient>
<linearGradient id="paint27_linear_36_1087" x1="209.816" y1="266.575" x2="186.047" y2="455.422" gradientUnits="userSpaceOnUse">
<stop stop-color="#09005D"/>
<stop offset="1" stop-color="#1A0F91"/>
</linearGradient>
<linearGradient id="paint28_linear_36_1087" x1="239.762" y1="178.154" x2="125.644" y2="64.9233" gradientUnits="userSpaceOnUse">
<stop stop-color="#FE7062"/>
<stop offset="1" stop-color="#FF928E"/>
</linearGradient>
<linearGradient id="paint29_linear_36_1087" x1="224.845" y1="126.144" x2="240.386" y2="136.552" gradientUnits="userSpaceOnUse">
<stop stop-color="#09005D"/>
<stop offset="1" stop-color="#1A0F91"/>
</linearGradient>
<linearGradient id="paint30_linear_36_1087" x1="419.337" y1="129.758" x2="434.34" y2="75.115" gradientUnits="userSpaceOnUse">
<stop stop-color="#FEBBBA"/>
<stop offset="1" stop-color="#FF928E"/>
</linearGradient>
<linearGradient id="paint31_linear_36_1087" x1="448.505" y1="140.809" x2="423.716" y2="200.707" gradientUnits="userSpaceOnUse">
<stop stop-color="#09005D"/>
<stop offset="1" stop-color="#1A0F91"/>
</linearGradient>
<linearGradient id="paint32_linear_36_1087" x1="401.545" y1="206.194" x2="405.435" y2="168.186" gradientUnits="userSpaceOnUse">
<stop stop-color="#FEBBBA"/>
<stop offset="1" stop-color="#FF928E"/>
</linearGradient>
<linearGradient id="paint33_linear_36_1087" x1="438.918" y1="156.443" x2="402.521" y2="210.057" gradientUnits="userSpaceOnUse">
<stop stop-color="#09005D"/>
<stop offset="1" stop-color="#1A0F91"/>
</linearGradient>
<linearGradient id="paint34_linear_36_1087" x1="-142.803" y1="1539.6" x2="-149.747" y2="1558.73" gradientUnits="userSpaceOnUse">
<stop stop-color="#09005D"/>
<stop offset="1" stop-color="#1A0F91"/>
</linearGradient>
<linearGradient id="paint35_linear_36_1087" x1="394.788" y1="2.82876" x2="370.882" y2="30.3809" gradientUnits="userSpaceOnUse">
<stop stop-color="#09005D"/>
<stop offset="1" stop-color="#1A0F91"/>
</linearGradient>
<linearGradient id="paint36_linear_36_1087" x1="392.974" y1="49.5204" x2="263.399" y2="174.304" gradientUnits="userSpaceOnUse">
<stop stop-color="#FE7062"/>
<stop offset="1" stop-color="#FF928E"/>
</linearGradient>
<linearGradient id="paint37_linear_36_1087" x1="359.561" y1="91.3522" x2="304.893" y2="91.3522" gradientUnits="userSpaceOnUse">
<stop stop-color="#FEBBBA"/>
<stop offset="1" stop-color="#FF928E"/>
</linearGradient>
<linearGradient id="paint38_linear_36_1087" x1="381.811" y1="65.1811" x2="380.543" y2="45.4579" gradientUnits="userSpaceOnUse">
<stop stop-color="#FEBBBA"/>
<stop offset="1" stop-color="#FF928E"/>
</linearGradient>
<linearGradient id="paint39_linear_36_1087" x1="379.95" y1="48.493" x2="403.799" y2="2.92626" gradientUnits="userSpaceOnUse">
<stop stop-color="#FEBBBA"/>
<stop offset="1" stop-color="#FF928E"/>
</linearGradient>
<linearGradient id="paint40_linear_36_1087" x1="409.672" y1="22.6328" x2="376.358" y2="29.3059" gradientUnits="userSpaceOnUse">
<stop stop-color="#09005D"/>
<stop offset="1" stop-color="#1A0F91"/>
</linearGradient>
<linearGradient id="paint41_linear_36_1087" x1="374.505" y1="45.6427" x2="398.354" y2="0.0763168" gradientUnits="userSpaceOnUse">
<stop stop-color="#FEBBBA"/>
<stop offset="1" stop-color="#FF928E"/>
</linearGradient>
<linearGradient id="paint42_linear_36_1087" x1="362.068" y1="90.72" x2="390.253" y2="99.9492" gradientUnits="userSpaceOnUse">
<stop stop-color="#4F52FF"/>
<stop offset="1" stop-color="#4042E2"/>
</linearGradient>
<linearGradient id="paint43_linear_36_1087" x1="391.437" y1="114.872" x2="425.855" y2="68.8713" gradientUnits="userSpaceOnUse">
<stop stop-color="#4F52FF"/>
<stop offset="1" stop-color="#4042E2"/>
</linearGradient>
<linearGradient id="paint44_linear_36_1087" x1="320.239" y1="299.403" x2="305.558" y2="254.959" gradientUnits="userSpaceOnUse">
<stop stop-color="#FEBBBA"/>
<stop offset="1" stop-color="#FF928E"/>
</linearGradient>
<linearGradient id="paint45_linear_36_1087" x1="399.234" y1="454.292" x2="413.227" y2="455.38" gradientUnits="userSpaceOnUse">
<stop stop-color="#09005D"/>
<stop offset="1" stop-color="#1A0F91"/>
</linearGradient>
<linearGradient id="paint46_linear_36_1087" x1="335.807" y1="504.945" x2="374.409" y2="270.799" gradientUnits="userSpaceOnUse">
<stop stop-color="#FEBBBA"/>
<stop offset="1" stop-color="#FF928E"/>
</linearGradient>
<linearGradient id="paint47_linear_36_1087" x1="334.422" y1="446.656" x2="357.065" y2="448.418" gradientUnits="userSpaceOnUse">
<stop stop-color="#09005D"/>
<stop offset="1" stop-color="#1A0F91"/>
</linearGradient>
<linearGradient id="paint48_linear_36_1087" x1="376.041" y1="511.619" x2="414.654" y2="277.406" gradientUnits="userSpaceOnUse">
<stop stop-color="#FEBBBA"/>
<stop offset="1" stop-color="#FF928E"/>
</linearGradient>
<linearGradient id="paint49_linear_36_1087" x1="349.725" y1="277.06" x2="541.237" y2="45.9611" gradientUnits="userSpaceOnUse">
<stop stop-color="#E1473D"/>
<stop offset="1" stop-color="#E9605A"/>
</linearGradient>
<linearGradient id="paint50_linear_36_1087" x1="370.536" y1="382.687" x2="351.479" y2="301.546" gradientUnits="userSpaceOnUse">
<stop stop-color="#09005D"/>
<stop offset="1" stop-color="#1A0F91"/>
</linearGradient>
<linearGradient id="paint51_linear_36_1087" x1="360.186" y1="273.954" x2="350.095" y2="226.548" gradientUnits="userSpaceOnUse">
<stop stop-color="#FEBBBA"/>
<stop offset="1" stop-color="#FF928E"/>
</linearGradient>
<linearGradient id="paint52_linear_36_1087" x1="379.1" y1="263.098" x2="387.247" y2="355.818" gradientUnits="userSpaceOnUse">
<stop stop-color="#FEBBBA"/>
<stop offset="1" stop-color="#FF928E"/>
</linearGradient>
<linearGradient id="paint53_linear_36_1087" x1="402.63" y1="369.978" x2="412.085" y2="369.978" gradientUnits="userSpaceOnUse">
<stop stop-color="#DAE3FE"/>
<stop offset="1" stop-color="#E9EFFD"/>
</linearGradient>
<linearGradient id="paint54_linear_36_1087" x1="412.532" y1="382.687" x2="416.067" y2="382.687" gradientUnits="userSpaceOnUse">
<stop stop-color="#DAE3FE"/>
<stop offset="1" stop-color="#E9EFFD"/>
</linearGradient>
<linearGradient id="paint55_linear_36_1087" x1="342.906" y1="195.932" x2="403.499" y2="255.614" gradientUnits="userSpaceOnUse">
<stop stop-color="#09005D"/>
<stop offset="1" stop-color="#1A0F91"/>
</linearGradient>
<linearGradient id="paint56_linear_36_1087" x1="341.848" y1="217.563" x2="371.133" y2="243.774" gradientUnits="userSpaceOnUse">
<stop stop-color="#FEBBBA"/>
<stop offset="1" stop-color="#FF928E"/>
</linearGradient>
<linearGradient id="paint57_linear_36_1087" x1="1120.42" y1="1203.14" x2="1172.49" y2="1270.41" gradientUnits="userSpaceOnUse">
<stop stop-color="#09005D"/>
<stop offset="1" stop-color="#1A0F91"/>
</linearGradient>
<linearGradient id="paint58_linear_36_1087" x1="344.161" y1="214.978" x2="373.446" y2="241.189" gradientUnits="userSpaceOnUse">
<stop stop-color="#FEBBBA"/>
<stop offset="1" stop-color="#FF928E"/>
</linearGradient>
</defs>
</svg>
