<svg width="592" height="381" viewBox="0 0 592 381" fill="none" xmlns="http://www.w3.org/2000/svg">
<path d="M559.709 359.925C537.9 347.254 520.13 338.594 509.966 306.21C499.802 273.826 476.33 255.109 450.471 243.523C424.613 231.936 420.249 212.305 416.07 184.793C411.891 157.282 392.505 136.663 371.907 132.709C351.31 128.756 338.37 87.8474 298.495 87.8474C258.621 87.8474 245.681 128.756 225.082 132.709C204.485 136.663 185.099 157.283 180.92 184.793C176.741 212.305 172.377 231.935 146.518 243.523C120.661 255.109 97.1882 273.826 87.0246 306.21C76.8609 338.594 59.0904 347.255 37.2806 359.925C15.4718 372.596 17.2888 380.799 17.2888 380.799H298.495H579.701C579.701 380.799 581.519 372.595 559.709 359.925Z" fill="#B4C8F2"/>
<path d="M12.7221 341.203L12.9031 337.317L0.915263 336.757L0.734325 340.642L12.7221 341.203Z" stroke="#7B85EF" stroke-width="0.5" stroke-miterlimit="10"/>
<path d="M64.9044 163.188L67.0272 159.93L56.9787 153.357L54.856 156.614L64.9044 163.188Z" stroke="#7B85EF" stroke-width="0.5" stroke-miterlimit="10"/>
<path d="M589.197 322.536L591.573 319.459L582.08 312.102L579.704 315.179L589.197 322.536Z" stroke="#7B85EF" stroke-width="0.5" stroke-miterlimit="10"/>
<path d="M522.809 165.322L525.185 162.245L515.693 154.888L513.317 157.965L522.809 165.322Z" stroke="#7B85EF" stroke-width="0.5" stroke-miterlimit="10"/>
<path d="M438.178 3.23346L434.892 1.16162L428.5 11.3383L431.786 13.4101L438.178 3.23346Z" stroke="#7B85EF" stroke-width="0.5" stroke-miterlimit="10"/>
<path d="M348.259 2.19013L345.996 5.35156L355.749 12.3576L358.012 9.19618L348.259 2.19013Z" stroke="#7B85EF" stroke-width="0.5" stroke-miterlimit="10"/>
<path d="M533.955 63.8976L531.885 60.6062L521.731 67.0159L523.801 70.3073L533.955 63.8976Z" stroke="#7B85EF" stroke-width="0.5" stroke-miterlimit="10"/>
<path d="M578.728 237.756L575.657 235.376L568.314 244.885L571.385 247.266L578.728 237.756Z" stroke="#7B85EF" stroke-width="0.5" stroke-miterlimit="10"/>
<path d="M558.501 304.255C562.75 303.189 565.332 298.874 564.269 294.617C563.205 290.36 558.898 287.773 554.649 288.839C550.4 289.905 547.818 294.22 548.881 298.477C549.945 302.734 554.252 305.321 558.501 304.255Z" stroke="#FB8A6F" stroke-width="0.5" stroke-miterlimit="10"/>
<path d="M21.2505 280.317C21.9522 275.985 19.0161 271.904 14.6926 271.201C10.3691 270.498 6.29547 273.44 5.59379 277.771C4.89212 282.103 7.82815 286.184 12.1516 286.887C16.4751 287.59 20.5488 284.649 21.2505 280.317Z" stroke="#FB8A6F" stroke-width="0.5" stroke-miterlimit="10"/>
<path d="M114.391 126.858C114.391 131.247 110.84 134.804 106.46 134.804C102.08 134.804 98.5292 131.247 98.5292 126.858C98.5292 122.471 102.08 118.913 106.46 118.913C110.84 118.914 114.391 122.471 114.391 126.858Z" stroke="#FB8A6F" stroke-width="0.5" stroke-miterlimit="10"/>
<path d="M402.955 34.0539C402.955 38.4422 399.404 41.9982 395.024 41.9982C390.644 41.9982 387.093 38.4411 387.093 34.0539C387.093 29.6655 390.644 26.1084 395.024 26.1084C399.404 26.1084 402.955 29.6655 402.955 34.0539Z" stroke="#FB8A6F" stroke-width="0.5" stroke-miterlimit="10"/>
<path d="M522.083 103.736C526.463 103.736 530.012 107.293 530.012 111.682C530.012 116.07 526.462 119.627 522.083 119.627C517.703 119.627 514.152 116.07 514.152 111.682C514.153 107.294 517.704 103.736 522.083 103.736Z" stroke="#FB8A6F" stroke-width="0.5" stroke-miterlimit="10"/>
<path d="M535.108 229.176C535.108 233.564 531.557 237.121 527.177 237.121C522.797 237.121 519.246 233.564 519.246 229.176C519.246 224.788 522.797 221.23 527.177 221.23C531.557 221.232 535.108 224.789 535.108 229.176Z" stroke="#FB8A6F" stroke-width="0.5" stroke-miterlimit="10"/>
<path d="M376.232 117.74H328.553V178.888H376.232V117.74Z" fill="#7B85EF"/>
<path d="M345.983 117.74H328.553V178.888H345.983V117.74Z" fill="#1A263D"/>
<path d="M319.323 141.046H271.642V178.888H319.323V141.046Z" fill="#243971"/>
<path d="M289.073 141.046H271.642V178.888H289.073V141.046Z" fill="#1A263D"/>
<path d="M434.166 68.4197H386.486V178.888H434.166V68.4197Z" fill="#5F88F0"/>
<path d="M403.917 68.4197H386.486V178.888H403.917V68.4197Z" fill="#1A263D"/>
<path d="M492.82 32.5212H445.14V178.888H492.82V32.5212Z" fill="#FB8A6F"/>
<path d="M462.572 32.5212H445.14V178.888H462.572V32.5212Z" fill="#1A263D"/>
<path d="M525.75 11.3882L501.575 26.7743L509.223 32.0885C499.781 47.0836 466.423 95.1988 410.425 125.054C328.988 168.474 268.493 166.633 267.89 166.604L267.621 173.26C267.867 173.27 268.658 173.297 269.964 173.297C282.082 173.297 338.474 170.961 413.548 130.934C470.517 100.56 504.638 51.7695 514.687 35.8851L521.668 40.7363L525.75 11.3882Z" fill="#182341"/>
<path d="M524.088 9.69116L499.914 25.0773L507.561 30.3914C498.119 45.3866 464.762 93.5018 408.764 123.357C327.326 166.777 266.831 164.936 266.229 164.907L265.959 171.562C266.205 171.572 266.996 171.599 268.303 171.599C280.421 171.599 336.812 169.263 411.887 129.237C468.856 98.8632 502.976 50.0725 513.025 34.188L520.006 39.0393L524.088 9.69116Z" fill="#EEC12D" stroke="black" stroke-width="0.3876" stroke-miterlimit="10"/>
<path d="M479.779 357.795C479.779 357.795 492.176 350.354 501.269 340.194C510.361 330.035 528.338 313.295 538.05 309.221C541.356 318.324 546.109 329.017 535.571 340.194C525.032 351.371 519.66 348.658 514.08 359.025C508.502 369.391 502.457 375.892 493.572 380.46H460.562L479.779 357.795Z" fill="#5F88F0"/>
<path d="M528.648 319.992C526.788 324.15 525.887 331.289 522.448 334.296C513.305 342.292 497.262 344.86 492.212 348.815C495.232 346.308 498.414 343.385 501.269 340.196C510.361 330.037 528.338 313.296 538.05 309.222C534.636 310.964 530.508 315.835 528.648 319.992Z" fill="#243971"/>
<path d="M535.157 314.877C531.283 319.011 527.873 332.39 521.054 340.195C514.235 348.001 512.065 349.45 504.007 354.589C495.948 359.728 481.845 371.543 478.126 380.46" stroke="#182341" stroke-width="0.5" stroke-miterlimit="10"/>
<path d="M475.025 269.07C475.025 269.07 471.151 277.372 469.756 289.527C468.464 300.793 470.376 303.073 467.897 315.851C465.417 328.63 463.144 332.283 460.561 347.191C457.978 362.1 456.118 380.46 456.118 380.46H431.72C431.72 380.46 433.596 375.541 433.854 363.417C434.112 351.294 432.185 335.607 436.403 320.523C440.622 305.439 451.469 277.24 475.025 269.07Z" fill="#5F88F0"/>
<path d="M467.277 276.976C467.277 276.976 454.258 289.516 451.469 308.151C448.68 326.786 451.159 361.66 448.68 371.06" stroke="#182341" stroke-width="0.5" stroke-miterlimit="10"/>
<path d="M527.717 273.307C527.717 273.307 516.146 277.152 508.501 278.03C500.855 278.909 491.557 279.787 486.804 284.355C482.052 288.923 482.052 299.991 475.646 303.505C469.241 307.019 458.082 318.144 454.363 327.076C450.643 336.009 448.37 353.226 448.163 360.078C447.956 366.93 444.031 377.297 442.171 380.459H466.141C466.141 380.459 483.497 365.701 488.044 354.105C492.59 342.509 491.35 330.034 496.102 323.182C500.854 316.33 509.289 307.143 515.939 298.926C525.032 287.693 527.717 273.307 527.717 273.307Z" fill="#243971"/>
<path d="M496.103 323.183C494.974 324.81 494.189 326.763 493.579 328.937L493.572 328.941C495.277 313.168 498.377 304.012 504.162 298.927C509.948 293.843 525.858 280.707 527.718 273.307C527.718 273.307 525.032 287.693 515.94 298.927C509.29 307.144 500.855 316.331 496.103 323.183Z" fill="#5F88F0"/>
<path d="M519.866 278.909C512.014 285.058 502.508 289.063 495.896 296.109C489.284 303.154 480.462 317.597 475.025 327.599C465.15 345.762 457.874 372.028 451.469 380.461" stroke="#182341" stroke-width="0.5" stroke-miterlimit="10"/>
<path d="M156.044 331.29H52.4085C48.9084 331.29 46.0709 328.447 46.0709 324.94V254.9C46.0709 251.393 48.9084 248.55 52.4085 248.55H156.044C159.544 248.55 162.382 251.393 162.382 254.9V324.94C162.381 328.448 159.544 331.29 156.044 331.29Z" fill="#FB8A6F"/>
<path d="M52.4086 331.29H156.044C159.544 331.29 162.382 328.447 162.382 324.941V297.894L146.252 292.672C145.572 292.452 144.946 292.094 144.411 291.62L137.373 285.377C135.908 284.076 133.618 284.458 132.653 286.165L131.021 289.051C129.47 291.792 125.498 291.699 124.076 288.889L110.132 273.469C108.182 271.313 104.665 271.859 103.458 274.507L88.6347 307.028C87.5466 309.415 84.1473 309.37 83.1225 306.954L79.4316 298.248C79.0596 297.37 77.9297 297.13 77.2329 297.78C76.2252 298.722 74.5851 298.321 74.1231 297.021L70.6648 287.287C69.5617 284.181 65.3841 283.686 63.5874 286.449L61.6557 289.421C59.9887 291.986 56.4361 292.466 54.1496 290.437L46.0699 283.264V324.939C46.071 328.448 48.9085 331.29 52.4086 331.29Z" fill="#F0E0C4"/>
<path d="M56.1017 256.289V323.552" stroke="#F4F4F4" stroke-width="0.5" stroke-miterlimit="10"/>
<path d="M59.6661 256.289V323.552" stroke="#F4F4F4" stroke-width="0.5" stroke-miterlimit="10"/>
<path d="M63.2316 256.289V323.552" stroke="#F4F4F4" stroke-width="0.5" stroke-miterlimit="10"/>
<path d="M66.796 256.289V323.552" stroke="#F4F4F4" stroke-width="0.5" stroke-miterlimit="10"/>
<path d="M70.3604 256.289V323.552" stroke="#F4F4F4" stroke-width="0.5" stroke-miterlimit="10"/>
<path d="M73.9258 256.289V323.552" stroke="#F4F4F4" stroke-width="0.5" stroke-miterlimit="10"/>
<path d="M77.4902 256.289V323.552" stroke="#F4F4F4" stroke-width="0.5" stroke-miterlimit="10"/>
<path d="M81.0546 256.289V323.552" stroke="#F4F4F4" stroke-width="0.5" stroke-miterlimit="10"/>
<path d="M84.6201 256.289V323.552" stroke="#F4F4F4" stroke-width="0.5" stroke-miterlimit="10"/>
<path d="M88.1845 256.289V323.552" stroke="#F4F4F4" stroke-width="0.5" stroke-miterlimit="10"/>
<path d="M91.7499 256.289V323.552" stroke="#F4F4F4" stroke-width="0.5" stroke-miterlimit="10"/>
<path d="M95.3143 256.289V323.552" stroke="#F4F4F4" stroke-width="0.5" stroke-miterlimit="10"/>
<path d="M98.8788 256.289V323.552" stroke="#F4F4F4" stroke-width="0.5" stroke-miterlimit="10"/>
<path d="M102.444 256.289V323.552" stroke="#F4F4F4" stroke-width="0.5" stroke-miterlimit="10"/>
<path d="M106.009 256.289V323.552" stroke="#F4F4F4" stroke-width="0.5" stroke-miterlimit="10"/>
<path d="M109.573 256.289V323.552" stroke="#F4F4F4" stroke-width="0.5" stroke-miterlimit="10"/>
<path d="M113.138 256.289V323.552" stroke="#F4F4F4" stroke-width="0.5" stroke-miterlimit="10"/>
<path d="M116.703 256.289V323.552" stroke="#F4F4F4" stroke-width="0.5" stroke-miterlimit="10"/>
<path d="M120.267 256.289V323.552" stroke="#F4F4F4" stroke-width="0.5" stroke-miterlimit="10"/>
<path d="M123.833 256.289V323.552" stroke="#F4F4F4" stroke-width="0.5" stroke-miterlimit="10"/>
<path d="M127.397 256.289V323.552" stroke="#F4F4F4" stroke-width="0.5" stroke-miterlimit="10"/>
<path d="M130.962 256.289V323.552" stroke="#F4F4F4" stroke-width="0.5" stroke-miterlimit="10"/>
<path d="M134.527 256.289V323.552" stroke="#F4F4F4" stroke-width="0.5" stroke-miterlimit="10"/>
<path d="M138.091 256.289V323.552" stroke="#F4F4F4" stroke-width="0.5" stroke-miterlimit="10"/>
<path d="M141.656 256.289V323.552" stroke="#F4F4F4" stroke-width="0.5" stroke-miterlimit="10"/>
<path d="M145.221 256.289V323.552" stroke="#F4F4F4" stroke-width="0.5" stroke-miterlimit="10"/>
<path d="M148.786 256.289V323.552" stroke="#F4F4F4" stroke-width="0.5" stroke-miterlimit="10"/>
<path d="M152.351 256.289V323.552" stroke="#F4F4F4" stroke-width="0.5" stroke-miterlimit="10"/>
<path d="M56.1017 297.895C55.4531 297.895 54.9268 297.368 54.9268 296.718V282.337C54.9268 281.687 55.4531 281.16 56.1017 281.16C56.7502 281.16 57.2766 281.687 57.2766 282.337V296.718C57.2766 297.368 56.7513 297.895 56.1017 297.895Z" fill="#182341"/>
<path d="M59.7572 299.345H59.576C58.9768 299.345 58.4911 298.858 58.4911 298.258V286.18C58.4911 285.58 58.9768 285.093 59.576 285.093H59.7572C60.3564 285.093 60.842 285.58 60.842 286.18V298.258C60.842 298.858 60.3564 299.345 59.7572 299.345Z" fill="#182341"/>
<path d="M63.2316 296.035C62.583 296.035 62.0566 295.507 62.0566 294.858V276.441C62.0566 275.791 62.583 275.264 63.2316 275.264C63.8801 275.264 64.4065 275.791 64.4065 276.441V294.858C64.4065 295.507 63.8801 296.035 63.2316 296.035Z" fill="#182341"/>
<path d="M66.796 285.094C66.1474 285.094 65.621 284.567 65.621 283.917V274.822C65.621 274.172 66.1474 273.645 66.796 273.645C67.4456 273.645 67.9709 274.172 67.9709 274.822V283.917C67.9709 284.567 67.4456 285.094 66.796 285.094Z" fill="#182341"/>
<path d="M70.3603 297.284C69.7118 297.284 69.1854 296.757 69.1854 296.107V283.735C69.1854 283.086 69.7118 282.558 70.3603 282.558C71.0089 282.558 71.5352 283.086 71.5352 283.735V296.107C71.5363 296.757 71.01 297.284 70.3603 297.284Z" fill="#182341"/>
<path d="M73.9258 306.181C73.2772 306.181 72.7509 305.654 72.7509 305.004V295.023C72.7509 294.373 73.2772 293.846 73.9258 293.846C74.5743 293.846 75.1007 294.373 75.1007 295.023V305.004C75.1007 305.654 74.5743 306.181 73.9258 306.181Z" fill="#182341"/>
<path d="M77.4902 313.883C76.8417 313.883 76.3153 313.355 76.3153 312.705V294.466C76.3153 293.816 76.8417 293.289 77.4902 293.289C78.1388 293.289 78.6651 293.816 78.6651 294.466V312.705C78.6651 313.355 78.1398 313.883 77.4902 313.883Z" fill="#182341"/>
<path d="M81.0546 313.259C80.406 313.259 79.8797 312.731 79.8797 312.081V297.701C79.8797 297.051 80.406 296.523 81.0546 296.523C81.7032 296.523 82.2295 297.051 82.2295 297.701V312.081C82.2306 312.731 81.7042 313.259 81.0546 313.259Z" fill="#182341"/>
<path d="M84.7927 318.918H84.4464C83.8933 318.918 83.4441 318.47 83.4441 317.914V307.754C83.4441 307.2 83.8933 306.75 84.4464 306.75H84.7927C85.3458 306.75 85.795 307.2 85.795 307.754V317.914C85.795 318.47 85.3469 318.918 84.7927 318.918Z" fill="#182341"/>
<path d="M88.1845 316.748C87.5359 316.748 87.0096 316.221 87.0096 315.571V301.19C87.0096 300.54 87.5359 300.013 88.1845 300.013C88.833 300.013 89.3594 300.54 89.3594 301.19V315.571C89.3594 316.221 88.8341 316.748 88.1845 316.748Z" fill="#182341"/>
<path d="M91.7499 306.263C91.1014 306.263 90.575 305.735 90.575 305.085V294.466C90.575 293.816 91.1014 293.289 91.7499 293.289C92.3985 293.289 92.9248 293.816 92.9248 294.466V305.085C92.9248 305.735 92.3985 306.263 91.7499 306.263Z" fill="#182341"/>
<path d="M95.3144 303.103C94.6658 303.103 94.1395 302.575 94.1395 301.926V287.545C94.1395 286.895 94.6658 286.368 95.3144 286.368C95.9629 286.368 96.4893 286.895 96.4893 287.545V301.926C96.4893 302.575 95.9629 303.103 95.3144 303.103Z" fill="#182341"/>
<path d="M98.8788 291.998C98.2291 291.998 97.7039 291.47 97.7039 290.82V271.385C97.7039 270.736 98.2302 270.208 98.8788 270.208C99.5273 270.208 100.054 270.736 100.054 271.385V290.82C100.054 291.47 99.5284 291.998 98.8788 291.998Z" fill="#182341"/>
<path d="M102.444 285.648C101.796 285.648 101.269 285.121 101.269 284.471V270.09C101.269 269.44 101.796 268.913 102.444 268.913C103.093 268.913 103.619 269.44 103.619 270.09V284.471C103.619 285.122 103.093 285.648 102.444 285.648Z" fill="#182341"/>
<path d="M106.009 275.262C105.36 275.262 104.834 274.735 104.834 274.085V266.999C104.834 266.349 105.36 265.822 106.009 265.822C106.657 265.822 107.184 266.349 107.184 266.999V274.085C107.184 274.735 106.657 275.262 106.009 275.262Z" fill="#182341"/>
<path d="M109.573 283.975C108.923 283.975 108.398 283.447 108.398 282.798V268.417C108.398 267.767 108.924 267.24 109.573 267.24C110.222 267.24 110.748 267.767 110.748 268.417V282.798C110.749 283.447 110.223 283.975 109.573 283.975Z" fill="#182341"/>
<path d="M113.138 282.853C112.49 282.853 111.964 282.325 111.964 281.675V270.432C111.964 269.782 112.49 269.255 113.138 269.255C113.787 269.255 114.313 269.782 114.313 270.432V281.675C114.313 282.326 113.787 282.853 113.138 282.853Z" fill="#182341"/>
<path d="M116.703 290.38C116.054 290.38 115.528 289.853 115.528 289.203V274.822C115.528 274.172 116.054 273.645 116.703 273.645C117.351 273.645 117.878 274.172 117.878 274.822V289.203C117.878 289.853 117.351 290.38 116.703 290.38Z" fill="#182341"/>
<path d="M120.267 290.38C119.619 290.38 119.092 289.853 119.092 289.203V280.217C119.092 279.567 119.619 279.04 120.267 279.04C120.916 279.04 121.442 279.567 121.442 280.217V289.203C121.443 289.853 120.917 290.38 120.267 290.38Z" fill="#182341"/>
<path d="M123.833 297.895C123.184 297.895 122.658 297.368 122.658 296.718V282.337C122.658 281.687 123.184 281.16 123.833 281.16C124.481 281.16 125.008 281.687 125.008 282.337V296.718C125.008 297.368 124.481 297.895 123.833 297.895Z" fill="#182341"/>
<path d="M127.397 303.823C126.749 303.823 126.222 303.296 126.222 302.646V285.152C126.222 284.502 126.749 283.975 127.397 283.975C128.046 283.975 128.572 284.502 128.572 285.152V302.646C128.572 303.297 128.046 303.823 127.397 303.823Z" fill="#182341"/>
<path d="M130.962 297.895C130.313 297.895 129.787 297.368 129.787 296.718V282.337C129.787 281.687 130.313 281.16 130.962 281.16C131.61 281.16 132.136 281.687 132.136 282.337V296.718C132.138 297.368 131.611 297.895 130.962 297.895Z" fill="#182341"/>
<path d="M134.527 294.293C133.878 294.293 133.352 293.765 133.352 293.116V278.735C133.352 278.085 133.878 277.558 134.527 277.558C135.176 277.558 135.702 278.085 135.702 278.735V293.116C135.702 293.765 135.176 294.293 134.527 294.293Z" fill="#182341"/>
<path d="M138.091 296.444C137.443 296.444 136.917 295.917 136.917 295.267V280.886C136.917 280.236 137.443 279.709 138.091 279.709C138.74 279.709 139.266 280.236 139.266 280.886V295.267C139.266 295.917 138.741 296.444 138.091 296.444Z" fill="#182341"/>
<path d="M141.656 300.707C141.007 300.707 140.481 300.179 140.481 299.53V285.149C140.481 284.499 141.007 283.972 141.656 283.972C142.304 283.972 142.831 284.499 142.831 285.149V299.53C142.832 300.179 142.305 300.707 141.656 300.707Z" fill="#182341"/>
<path d="M145.221 297.392C144.573 297.392 144.046 296.865 144.046 296.215V281.834C144.046 281.185 144.573 280.657 145.221 280.657C145.871 280.657 146.396 281.185 146.396 281.834V296.215C146.396 296.865 145.87 297.392 145.221 297.392Z" fill="#182341"/>
<path d="M148.786 297.895C148.137 297.895 147.611 297.368 147.611 296.718V282.337C147.611 281.687 148.137 281.16 148.786 281.16C149.434 281.16 149.961 281.687 149.961 282.337V296.718C149.961 297.368 149.435 297.895 148.786 297.895Z" fill="#182341"/>
<path d="M152.351 297.895C151.703 297.895 151.176 297.368 151.176 296.718V282.337C151.176 281.687 151.703 281.16 152.351 281.16C153 281.16 153.526 281.687 153.526 282.337V296.718C153.526 297.368 153 297.895 152.351 297.895Z" fill="#182341"/>
<path d="M511.825 233.225C511.825 237.105 510.245 240.621 507.694 243.162C505.157 245.718 501.633 247.301 497.775 247.301H416.773C409.042 247.301 402.723 240.971 402.723 233.225C402.723 229.345 404.303 225.83 406.855 223.288C409.391 220.732 412.9 219.149 416.773 219.149H425.765C425.765 213.777 427.952 208.893 431.49 205.362C435.014 201.817 439.89 199.625 445.252 199.625H463.221C473.944 199.625 482.723 208.405 482.723 219.149H497.775C505.507 219.149 511.825 225.479 511.825 233.225Z" fill="#5F88F0"/>
<path d="M438.302 214.969H399.655C398.078 214.969 396.789 213.677 396.789 212.097V211.523C396.789 209.943 398.078 208.651 399.655 208.651H438.302C439.879 208.651 441.168 209.943 441.168 211.523V212.097C441.168 213.677 439.879 214.969 438.302 214.969Z" fill="#243971"/>
<path d="M421.896 226.054H398.004C396.839 226.054 395.886 225.099 395.886 223.932V223.507C395.886 222.34 396.839 221.385 398.004 221.385H421.896C423.061 221.385 424.014 222.34 424.014 223.507V223.932C424.014 225.099 423.061 226.054 421.896 226.054Z" fill="#EEC12D"/>
<path d="M451.366 257.305H415.703C414.337 257.305 413.22 256.186 413.22 254.818V254.321C413.22 252.952 414.337 251.833 415.703 251.833H451.366C452.732 251.833 453.849 252.952 453.849 254.321V254.818C453.849 256.186 452.732 257.305 451.366 257.305Z" fill="#FB8A6F"/>
<path d="M249.416 332.936C249.464 337.327 247.696 341.316 244.818 344.199C241.976 347.038 238.052 348.808 233.745 348.808H138.671C135.46 348.808 132.856 346.199 132.856 342.981V340.96V340.952C132.856 329.59 141.005 320.038 151.736 317.868C151.72 317.713 151.72 317.558 151.72 317.403C151.72 313.088 153.478 309.157 156.32 306.31C159.161 303.463 163.085 301.701 167.392 301.701H196.97C205.592 301.701 212.643 308.765 212.643 317.403H233.33C241.988 317.406 249.323 324.264 249.416 332.936Z" fill="#5F88F0"/>
<path d="M248.129 357.391H209.897C208.433 357.391 207.235 356.192 207.235 354.724V354.191C207.235 352.724 208.433 351.524 209.897 351.524H248.129C249.593 351.524 250.791 352.724 250.791 354.191V354.724C250.791 356.19 249.593 357.391 248.129 357.391Z" fill="#243971"/>
<path d="M257.122 334.498H229.135C227.736 334.498 226.591 333.351 226.591 331.949V331.439C226.591 330.038 227.736 328.891 229.135 328.891H257.122C258.521 328.891 259.666 330.038 259.666 331.439V331.949C259.667 333.351 258.522 334.498 257.122 334.498Z" fill="#FB8A6F"/>
<path d="M255.965 341.369H244.294C243.124 341.369 242.167 340.41 242.167 339.237V338.811C242.167 337.638 243.124 336.679 244.294 336.679H255.965C257.136 336.679 258.093 337.638 258.093 338.811V339.237C258.093 340.41 257.136 341.369 255.965 341.369Z" fill="#EEC12D"/>
<path d="M181.091 246.571C181.091 246.571 186.637 247.933 188.102 252.336C189.567 256.738 186.458 269.894 188.94 273.407C193.753 280.22 203.536 284.007 203.536 284.007L219.911 271.309C219.911 271.309 212.064 269.946 209.761 264.6C207.459 259.253 210.702 253.592 208.924 248.142C206.768 241.535 201.338 238.183 201.338 238.183L181.091 246.571Z" fill="#F0E0C4"/>
<path d="M214.693 273.133C214.405 272.979 214.222 272.69 214.204 272.365C214.187 272.039 214.334 271.739 214.599 271.563C214.687 271.504 214.74 271.397 214.734 271.291C214.729 271.185 214.663 271.085 214.569 271.037C213.278 270.359 211.34 269.16 209.92 267.472C209.766 267.289 209.62 267.1 209.478 266.905C208.966 266.196 208.548 265.405 208.305 264.543C207.81 262.79 207.822 260.665 207.987 258.539C207.992 258.445 207.999 258.345 208.01 258.25C208.017 258.149 208.022 258.05 208.034 257.95C208.105 257.117 208.193 256.297 208.282 255.5C208.588 252.707 208.877 250.069 208.3 248.333C207.339 245.453 203.603 241.863 202.036 240.452C201.954 240.375 201.83 240.351 201.718 240.393C201.394 240.523 201.029 240.459 200.763 240.222C200.68 240.146 200.557 240.122 200.444 240.17L187.293 245.376C187.192 245.417 187.116 245.506 187.104 245.618C187.087 245.731 187.133 245.836 187.222 245.907C187.487 246.108 187.617 246.432 187.57 246.763C187.528 247.099 187.31 247.371 186.998 247.495C186.892 247.536 186.821 247.631 186.804 247.737C186.792 247.849 186.833 247.955 186.922 248.026C186.969 248.067 187.022 248.103 187.069 248.151C187.204 248.25 187.328 248.357 187.452 248.469C187.529 248.529 187.605 248.599 187.676 248.664C188.383 249.319 188.896 249.998 189.208 250.683C189.95 252.324 190.303 255.323 190.215 258.581C190.215 258.776 190.21 258.976 190.198 259.172C190.151 260.317 190.051 261.48 189.892 262.619L189.733 263.717C189.161 267.649 188.713 270.754 190.741 273.31C191.883 274.757 195.201 277.035 198.053 278.853C198.247 278.983 198.447 279.101 198.636 279.225C200.085 280.133 201.352 280.895 202.077 281.32C202.124 281.349 202.178 281.361 202.23 281.361C202.295 281.361 202.355 281.344 202.407 281.308C202.702 281.107 203.085 281.09 203.397 281.273C203.497 281.332 203.626 281.332 203.727 281.261L211.258 276.054L212.176 275.416L214.722 273.657C214.81 273.598 214.857 273.498 214.852 273.385C214.847 273.28 214.788 273.185 214.693 273.133ZM211.011 275.476L210.086 276.114L203.527 280.654C203.109 280.477 202.631 280.495 202.231 280.701C201.436 280.229 200.11 279.432 198.643 278.5C198.449 278.381 198.261 278.258 198.06 278.133C195.332 276.38 192.28 274.261 191.219 272.927C189.363 270.583 189.775 267.738 190.341 263.806L190.499 262.709C190.664 261.528 190.771 260.318 190.811 259.131C190.823 258.93 190.835 258.736 190.83 258.54C190.912 255.211 190.535 252.13 189.768 250.43C189.48 249.792 189.044 249.172 188.454 248.569C188.395 248.505 188.331 248.439 188.265 248.38C188.154 248.262 188.029 248.151 187.906 248.044C187.824 247.968 187.736 247.891 187.647 247.82C187.935 247.578 188.13 247.235 188.183 246.846C188.235 246.462 188.147 246.091 187.935 245.783L200.51 240.806C200.875 241.06 201.329 241.143 201.759 241.031C203.356 242.478 206.826 245.86 207.716 248.529C208.252 250.134 207.969 252.709 207.668 255.435C207.581 256.256 207.486 257.107 207.416 257.963C207.404 258.057 207.392 258.157 207.392 258.258C207.38 258.352 207.368 258.452 207.368 258.553C207.203 260.714 207.198 262.886 207.71 264.71C207.934 265.525 208.305 266.269 208.759 266.954C208.888 267.148 209.024 267.338 209.171 267.521C210.55 269.309 212.495 270.602 213.909 271.382C213.685 271.666 213.567 272.02 213.59 272.397C213.607 272.781 213.761 273.135 214.02 273.395L211.011 275.476Z" fill="#7B85EF"/>
<path d="M184.981 247.37L183.72 246.387L185.169 245.444L186.114 246.387L184.981 247.37Z" fill="#7B85EF"/>
<path d="M200.396 239.437L201.255 238.72L202.018 239.437L201.112 240.058L200.396 239.437Z" fill="#7B85EF"/>
<path d="M202.176 282.318L202.803 281.531L203.797 282.108L203.222 282.999L202.176 282.318Z" fill="#7B85EF"/>
<path d="M214.836 272.268L216.091 271.35L217.151 272.167L215.987 273.053L214.836 272.268Z" fill="#7B85EF"/>
<path d="M196.851 262.092C197.168 263.687 197.714 265.361 199.007 266.345C199.786 266.938 200.81 267.221 201.771 267.039C202.733 266.857 203.606 266.19 203.972 265.282C204.35 264.345 204.181 263.29 204.008 262.295C203.78 260.998 203.545 259.674 202.925 258.512C202.304 257.35 201.223 256.356 199.918 256.189C196.251 255.722 196.371 259.679 196.851 262.092Z" fill="#7B85EF"/>
<path d="M504.386 197.502C504.386 197.502 507.356 194.959 510.383 195.901C513.409 196.843 519.464 203.827 522.403 203.848C528.104 203.889 534.111 199.955 534.111 199.955L533.607 185.769C533.607 185.769 529.718 189.594 525.834 188.741C521.95 187.888 520.105 183.822 516.372 182.637C511.847 181.198 507.82 182.884 507.82 182.884L504.386 197.502Z" fill="#F0E0C4"/>
<path d="M532.533 189.402C532.332 189.5 532.099 189.488 531.912 189.367C531.726 189.248 531.617 189.045 531.625 188.827C531.627 188.754 531.589 188.682 531.528 188.643C531.467 188.605 531.386 188.6 531.321 188.634C530.43 189.082 528.991 189.682 527.488 189.798C527.325 189.81 527.162 189.817 526.997 189.817C526.4 189.819 525.794 189.737 525.22 189.527C524.05 189.103 522.876 188.248 521.763 187.307C521.713 187.266 521.661 187.222 521.612 187.178C521.559 187.135 521.506 187.091 521.455 187.045C521.022 186.674 520.601 186.297 520.195 185.929C518.769 184.644 517.421 183.43 516.228 183.059C514.247 182.443 510.765 183.09 509.356 183.399C509.281 183.414 509.218 183.474 509.196 183.553C509.14 183.785 508.957 183.963 508.72 184.016C508.645 184.031 508.582 184.091 508.564 184.171L506.2 193.571C506.183 193.643 506.201 193.721 506.259 193.773C506.315 193.828 506.392 193.844 506.467 193.822C506.685 193.755 506.916 193.813 507.08 193.97C507.251 194.127 507.314 194.357 507.258 194.58C507.239 194.656 507.263 194.733 507.315 194.786C507.373 194.837 507.448 194.856 507.522 194.835C507.564 194.825 507.604 194.81 507.649 194.803C507.759 194.767 507.867 194.74 507.98 194.717C508.043 194.697 508.113 194.684 508.177 194.67C508.822 194.537 509.404 194.524 509.908 194.622C511.115 194.864 512.919 195.865 514.691 197.215C514.8 197.292 514.909 197.376 515.012 197.461C515.628 197.944 516.233 198.464 516.801 199.007L517.347 199.535C519.299 201.423 520.843 202.911 523.069 202.804C524.328 202.745 526.916 201.808 529.063 200.947C529.213 200.891 529.357 200.827 529.502 200.771C530.585 200.327 531.513 199.926 532.039 199.692C532.074 199.677 532.102 199.652 532.122 199.623C532.148 199.587 532.162 199.547 532.163 199.504C532.169 199.26 532.312 199.04 532.538 198.939C532.611 198.907 532.663 198.835 532.664 198.751L532.783 192.48L532.795 191.714L532.836 189.595C532.838 189.522 532.802 189.456 532.738 189.414C532.675 189.376 532.6 189.37 532.533 189.402ZM532.362 192.387L532.346 193.157L532.245 198.621C531.981 198.783 531.8 199.056 531.755 199.361C531.175 199.615 530.203 200.035 529.1 200.479C528.957 200.54 528.813 200.596 528.664 200.657C526.602 201.476 524.209 202.328 523.045 202.386C521.003 202.484 519.59 201.118 517.635 199.233L517.09 198.706C516.501 198.143 515.872 197.601 515.231 197.103C515.125 197.016 515.021 196.933 514.91 196.857C513.096 195.483 511.236 194.462 509.989 194.21C509.52 194.116 509.002 194.111 508.433 194.199C508.374 194.207 508.312 194.216 508.253 194.228C508.143 194.243 508.031 194.268 507.923 194.294C507.848 194.309 507.77 194.327 507.695 194.348C507.675 194.091 507.564 193.846 507.369 193.661C507.177 193.479 506.936 193.38 506.68 193.374L508.941 184.388C509.227 184.286 509.455 184.067 509.564 183.782C511.004 183.471 514.266 182.89 516.1 183.459C517.204 183.802 518.52 184.986 519.912 186.243C520.332 186.62 520.765 187.012 521.212 187.393C521.261 187.437 521.311 187.485 521.367 187.524C521.414 187.568 521.465 187.616 521.521 187.655C522.653 188.61 523.856 189.48 525.073 189.924C525.614 190.124 526.175 190.215 526.735 190.235C526.895 190.24 527.054 190.24 527.215 190.232C528.757 190.178 530.25 189.612 531.247 189.136C531.315 189.374 531.465 189.581 531.684 189.718C531.904 189.861 532.161 189.918 532.408 189.877L532.362 192.387Z" fill="#7B85EF"/>
<path d="M506.381 195.657L505.334 195.965L505.389 194.782L506.289 194.633L506.381 195.657Z" fill="#7B85EF"/>
<path d="M508.137 183.907L508.083 183.144L508.785 183.004L508.768 183.757L508.137 183.907Z" fill="#7B85EF"/>
<path d="M532.628 200.038L532.444 199.374L533.16 199.051L533.425 199.727L532.628 200.038Z" fill="#7B85EF"/>
<path d="M532.11 188.977L532.102 187.912L532.979 187.649L533.006 188.65L532.11 188.977Z" fill="#7B85EF"/>
<path d="M519.285 194.926C520.296 195.387 521.443 195.751 522.504 195.425C523.144 195.228 523.71 194.771 523.993 194.163C524.276 193.555 524.255 192.803 523.898 192.236C523.529 191.652 522.876 191.324 522.255 191.023C521.445 190.631 520.617 190.234 519.725 190.116C518.833 189.998 517.848 190.203 517.235 190.862C515.514 192.717 517.756 194.229 519.285 194.926Z" fill="#7B85EF"/>
<path d="M48.335 376.042C48.335 376.042 47.65 371.387 50.5433 368.904C53.4366 366.419 64.4043 364.711 66.3049 361.727C69.9926 355.939 69.8361 347.298 69.8361 347.298L55.1004 338.74C55.1004 338.74 56.4993 345.152 53.1483 348.568C49.7972 351.984 44.4865 351.265 40.8942 354.314C36.5398 358.008 35.6768 363.192 35.6768 363.192L48.335 376.042Z" fill="#F0E0C4"/>
<path d="M58.1063 342.156C58.0795 342.423 57.9155 342.653 57.6743 342.767C57.4331 342.88 57.1586 342.862 56.941 342.714C56.8692 342.665 56.7717 342.657 56.6923 342.695C56.613 342.732 56.5572 342.813 56.5508 342.9C56.435 344.095 56.1252 345.947 55.2826 347.555C55.1905 347.729 55.0929 347.899 54.9889 348.068C54.6094 348.679 54.1377 349.244 53.5567 349.696C52.3775 350.618 50.7577 351.268 49.0908 351.802C49.0168 351.827 48.9396 351.854 48.8635 351.874C48.7853 351.901 48.707 351.928 48.6277 351.949C47.9727 352.153 47.3209 352.34 46.6884 352.521C44.4705 353.153 42.3736 353.752 41.2341 354.731C39.342 356.358 37.7715 360.323 37.1851 361.957C37.1519 362.044 37.1734 362.146 37.2387 362.218C37.4381 362.425 37.5025 362.724 37.4049 363C37.3727 363.087 37.3931 363.189 37.4628 363.26L45.5028 371.682C45.565 371.745 45.6561 371.776 45.7451 371.751C45.8362 371.729 45.9016 371.66 45.9284 371.571C45.9991 371.307 46.205 371.107 46.4719 371.041C46.741 370.968 47.0143 371.05 47.2062 371.25C47.2705 371.318 47.3638 371.343 47.4506 371.323C47.5396 371.297 47.6071 371.233 47.6339 371.144C47.6511 371.096 47.6607 371.044 47.6822 370.992C47.7165 370.858 47.7594 370.73 47.8055 370.602C47.8269 370.524 47.8569 370.445 47.8837 370.371C48.1624 369.627 48.5194 369.026 48.9439 368.575C49.9612 367.499 52.132 366.299 54.6373 365.355C54.7852 365.295 54.9396 365.237 55.0918 365.185C55.9773 364.866 56.8928 364.582 57.8083 364.35L58.6927 364.131C61.8594 363.347 64.3593 362.725 65.6746 360.386C66.4197 359.065 67.1229 355.825 67.6203 353.085C67.6589 352.896 67.6868 352.707 67.7221 352.524C67.9633 351.135 68.1499 349.932 68.2474 349.247C68.2549 349.202 68.2474 349.158 68.2313 349.117C68.211 349.068 68.1799 349.028 68.1359 348.999C67.8915 348.837 67.7597 348.55 67.8015 348.255C67.8154 348.16 67.7747 348.061 67.69 348.007L61.3941 343.875L60.6244 343.371L58.4965 341.974C58.4247 341.925 58.3336 341.92 58.2499 341.959C58.1706 341.993 58.117 342.067 58.1063 342.156ZM61.0307 344.239L61.8025 344.747L67.2891 348.344C67.2837 348.718 67.4456 349.077 67.7275 349.319C67.6149 350.073 67.4209 351.332 67.1668 352.741C67.1379 352.926 67.1015 353.108 67.0693 353.299C66.5826 355.925 65.918 358.913 65.2329 360.136C64.0269 362.28 61.735 362.848 58.5705 363.637L57.6861 363.856C56.7374 364.096 55.7843 364.391 54.8688 364.728C54.7123 364.782 54.5612 364.833 54.4143 364.898C51.8576 365.867 49.6311 367.112 48.5762 368.224C48.1806 368.641 47.8451 369.167 47.5696 369.804C47.5385 369.869 47.5096 369.938 47.4849 370.007C47.4302 370.129 47.3831 370.258 47.3402 370.386C47.307 370.473 47.2769 370.564 47.2501 370.653C46.9768 370.508 46.6563 370.466 46.3432 370.546C46.0356 370.624 45.7794 370.807 45.6121 371.064L37.9259 363.012C38.0052 362.654 37.928 362.282 37.7093 361.988C38.314 360.32 39.8094 356.622 41.5621 355.116C42.617 354.208 44.6613 353.625 46.8288 353.008C47.4806 352.821 48.156 352.629 48.8281 352.418C48.9032 352.397 48.9836 352.375 49.0597 352.344C49.1347 352.323 49.2151 352.301 49.2912 352.269C50.985 351.725 52.6391 351.056 53.8665 350.098C54.4165 349.674 54.8667 349.16 55.2473 348.602C55.3555 348.443 55.4563 348.281 55.5506 348.111C56.4833 346.504 56.8628 344.618 57.0161 343.297C57.3012 343.38 57.6067 343.361 57.8865 343.225C58.1728 343.093 58.3947 342.865 58.5115 342.587L61.0307 344.239Z" fill="#7B85EF"/>
<path d="M47.7368 372.827L47.3798 374.093L46.2135 373.28L46.6369 372.266L47.7368 372.827Z" fill="#7B85EF"/>
<path d="M36.9214 363.523L36.1099 363.09L36.4176 362.284L37.1712 362.784L36.9214 363.523Z" fill="#7B85EF"/>
<path d="M68.9742 348.859L68.182 348.624L68.3117 347.687L69.1682 347.85L68.9742 348.859Z" fill="#7B85EF"/>
<path d="M57.4052 342.314L56.3171 341.642L56.6098 340.579L57.6443 341.193L57.4052 342.314Z" fill="#7B85EF"/>
<path d="M55.2473 359.2C56.3621 358.463 57.4652 357.527 57.8125 356.235C58.0216 355.456 57.9187 354.586 57.4824 353.909C57.0461 353.232 56.2678 352.772 55.4638 352.775C54.6351 352.777 53.8837 353.234 53.1815 353.675C52.265 354.251 51.3323 354.842 50.6409 355.676C49.9494 356.509 49.5292 357.645 49.8079 358.692C50.5905 361.634 53.561 360.314 55.2473 359.2Z" fill="#7B85EF"/>
<path d="M366.827 247.406C366.827 247.406 366.2 242.771 369.104 240.335C372.009 237.899 382.931 236.326 384.854 233.382C388.586 227.672 388.53 219.08 388.53 219.08L373.98 210.404C373.98 210.404 375.296 216.794 371.927 220.15C368.556 223.508 363.285 222.731 359.679 225.721C355.308 229.345 354.39 234.488 354.39 234.488L366.827 247.406Z" fill="#F0E0C4"/>
<path d="M376.928 213.834C376.898 214.1 376.732 214.326 376.491 214.437C376.25 214.547 375.978 214.526 375.763 214.376C375.693 214.327 375.595 214.318 375.517 214.355C375.438 214.391 375.381 214.471 375.373 214.557C375.245 215.744 374.915 217.58 374.059 219.169C373.966 219.34 373.866 219.509 373.761 219.676C373.376 220.278 372.901 220.834 372.319 221.277C371.136 222.18 369.519 222.807 367.855 223.319C367.781 223.342 367.704 223.368 367.628 223.387C367.55 223.413 367.473 223.439 367.392 223.459C366.739 223.655 366.09 223.833 365.457 224.005C363.245 224.608 361.154 225.179 360.009 226.139C358.11 227.735 356.504 231.657 355.901 233.276C355.868 233.362 355.887 233.463 355.952 233.536C356.148 233.744 356.208 234.041 356.108 234.314C356.075 234.4 356.094 234.501 356.163 234.573L364.058 243.037C364.119 243.102 364.209 243.133 364.298 243.108C364.388 243.088 364.456 243.02 364.483 242.932C364.556 242.67 364.764 242.473 365.028 242.41C365.296 242.34 365.568 242.425 365.755 242.626C365.818 242.695 365.912 242.72 365.997 242.702C366.086 242.677 366.154 242.614 366.182 242.526C366.199 242.478 366.21 242.427 366.232 242.377C366.268 242.244 366.312 242.117 366.36 241.989C366.381 241.913 366.412 241.833 366.441 241.76C366.726 241.025 367.089 240.431 367.515 239.987C368.539 238.929 370.711 237.761 373.212 236.852C373.36 236.794 373.514 236.738 373.665 236.689C374.55 236.382 375.462 236.109 376.376 235.889L377.257 235.681C380.414 234.939 382.906 234.35 384.24 232.038C384.995 230.733 385.732 227.522 386.258 224.803C386.299 224.616 386.328 224.428 386.365 224.246C386.622 222.87 386.82 221.675 386.926 220.996C386.935 220.95 386.927 220.906 386.911 220.867C386.892 220.817 386.861 220.777 386.818 220.747C386.577 220.583 386.449 220.296 386.494 220.003C386.509 219.909 386.471 219.81 386.386 219.755L380.175 215.576L379.415 215.066L377.316 213.653C377.244 213.603 377.154 213.597 377.07 213.635C376.994 213.673 376.939 213.746 376.928 213.834ZM379.811 215.938L380.572 216.452L385.985 220.091C385.975 220.463 386.132 220.822 386.409 221.065C386.289 221.813 386.081 223.063 385.812 224.46C385.781 224.644 385.744 224.824 385.709 225.014C385.196 227.62 384.501 230.581 383.806 231.789C382.582 233.906 380.298 234.445 377.142 235.192L376.261 235.399C375.314 235.628 374.363 235.909 373.45 236.233C373.294 236.285 373.142 236.334 372.997 236.397C370.443 237.332 368.217 238.543 367.155 239.636C366.758 240.047 366.418 240.565 366.137 241.195C366.106 241.26 366.076 241.328 366.05 241.395C365.994 241.515 365.946 241.644 365.902 241.77C365.869 241.856 365.837 241.946 365.81 242.035C365.54 241.888 365.221 241.842 364.909 241.918C364.602 241.992 364.347 242.172 364.176 242.425L356.628 234.331C356.712 233.977 356.638 233.606 356.425 233.312C357.044 231.661 358.573 228.002 360.333 226.524C361.391 225.634 363.431 225.079 365.592 224.49C366.242 224.312 366.915 224.128 367.587 223.926C367.662 223.907 367.743 223.886 367.819 223.856C367.894 223.836 367.974 223.815 368.05 223.785C369.741 223.263 371.392 222.616 372.624 221.679C373.175 221.264 373.629 220.758 374.013 220.207C374.122 220.05 374.225 219.89 374.319 219.723C375.265 218.135 375.664 216.267 375.832 214.954C376.114 215.04 376.418 215.024 376.698 214.892C376.984 214.763 377.207 214.541 377.327 214.265L379.811 215.938Z" fill="#7B85EF"/>
<path d="M366.269 244.203L365.9 245.458L364.75 244.636L365.183 243.633L366.269 244.203Z" fill="#7B85EF"/>
<path d="M355.624 234.83L354.823 234.39L355.138 233.594L355.881 234.098L355.624 234.83Z" fill="#7B85EF"/>
<path d="M387.654 220.623L386.869 220.38L387.009 219.449L387.858 219.621L387.654 220.623Z" fill="#7B85EF"/>
<path d="M376.229 213.984L375.155 213.302L375.459 212.25L376.48 212.872L376.229 213.984Z" fill="#7B85EF"/>
<path d="M373.891 230.743C375.007 230.024 376.114 229.105 376.474 227.825C376.691 227.054 376.599 226.188 376.173 225.51C375.746 224.831 374.979 224.366 374.179 224.358C373.355 224.351 372.603 224.796 371.9 225.227C370.982 225.789 370.049 226.366 369.352 227.186C368.655 228.007 368.224 229.13 368.489 230.174C369.234 233.109 372.202 231.832 373.891 230.743Z" fill="#7B85EF"/>
<path d="M326.814 36.0386C348.059 41.6932 362.773 51.9832 367.907 66.7174" stroke="#182341" stroke-width="0.4074" stroke-miterlimit="10"/>
<path d="M92.5357 84.0142C112.684 72.7351 135.515 62.414 160.228 53.7725C225.264 31.0317 287.322 25.5285 326.814 36.0387" stroke="#182341" stroke-width="0.4074" stroke-miterlimit="10"/>
<path d="M327.624 57.4315C327.489 57.5271 327.345 57.627 327.192 57.7097C327.013 57.8063 326.834 57.8815 326.638 57.9449L326.153 58.208L326.059 58.0942C324.851 58.3197 323.44 58.0287 321.91 57.294C321.805 57.2414 321.699 57.1888 321.603 57.1308C320.706 56.67 319.773 56.0643 318.81 55.32C318.73 55.2534 318.642 55.1911 318.562 55.1245C317.807 54.521 317.035 53.8272 316.258 53.0593C316.177 52.9927 316.107 52.9207 316.031 52.8412C315.355 52.1614 314.669 51.4214 313.989 50.6331C313.926 50.5568 313.864 50.4817 313.788 50.4011C313.172 49.6676 312.558 48.8986 311.952 48.0823C311.884 47.9975 311.821 47.9223 311.766 47.8418C311.196 47.0717 310.633 46.2759 310.083 45.4403C310.028 45.3597 309.974 45.2792 309.915 45.1901C309.396 44.3921 308.884 43.5683 308.375 42.7102C308.321 42.6296 308.275 42.5448 308.224 42.4514C307.863 41.8435 307.514 41.2184 307.168 40.5794C307.048 40.3581 306.924 40.1283 306.812 39.9017L306.67 39.6375C306.217 38.76 305.791 37.889 305.386 37.0191C305.339 36.9342 305.302 36.844 305.264 36.7549C304.85 35.8452 304.462 34.9441 304.112 34.0537C304.075 33.9635 304.037 33.8744 303.999 33.7842C303.631 32.8391 303.294 31.909 303 31.0004C302.963 30.9101 302.934 30.8167 302.905 30.7222C302.592 29.7352 302.313 28.774 302.084 27.8417C302.055 27.7472 302.035 27.6484 302.006 27.5539C301.759 26.5089 301.557 25.5058 301.414 24.5489C301.402 24.4447 301.39 24.3416 301.369 24.2428C301.214 23.1032 301.132 22.0368 301.134 21.0433C301.131 20.9348 301.135 20.8221 301.14 20.7093C301.153 19.6557 301.265 18.7031 301.479 17.86C301.509 17.7332 301.549 17.6022 301.587 17.4712C302.003 16.0449 302.735 14.9978 303.789 14.4264C303.993 14.3158 304.569 13.9367 304.796 13.869L308.369 12.4255L309.964 15.3157C314.378 17.8664 319.624 23.8089 323.809 31.5492C328.072 39.4345 330.179 47.2135 329.8 52.3096L331.467 55.4135L327.624 57.4315Z" fill="#7B85EF"/>
<path d="M307.88 14.3857L301.479 17.8591C301.509 17.7323 301.549 17.6013 301.588 17.4703L307.742 14.1301L307.88 14.3857Z" fill="#F0E0C4"/>
<path d="M309.132 16.7023L301.134 21.0434C301.131 20.9349 301.135 20.8221 301.14 20.7094L308.994 16.4478L309.132 16.7023Z" fill="#F0E0C4"/>
<path d="M310.661 19.529L301.413 24.5479C301.401 24.4437 301.389 24.3406 301.368 24.2418L310.523 19.2734L310.661 19.529Z" fill="#F0E0C4"/>
<path d="M312.19 22.3569L302.083 27.8418C302.054 27.7473 302.033 27.6485 302.005 27.554L312.051 22.1013L312.19 22.3569Z" fill="#F0E0C4"/>
<path d="M313.718 25.1838L302.999 31.0006C302.962 30.9104 302.933 30.817 302.904 30.7225L313.58 24.9282L313.718 25.1838Z" fill="#F0E0C4"/>
<path d="M315.247 28.0105L304.112 34.0539C304.075 33.9637 304.037 33.8745 304 33.7843L315.109 27.7549L315.247 28.0105Z" fill="#F0E0C4"/>
<path d="M316.776 30.8384L305.386 37.0192C305.339 36.9344 305.302 36.8442 305.264 36.755L316.637 30.5828L316.776 30.8384Z" fill="#F0E0C4"/>
<path d="M318.167 33.396L306.674 39.6328L306.817 39.8963L318.309 33.6595L318.167 33.396Z" fill="#F0E0C4"/>
<path d="M319.833 36.4929L308.375 42.7113C308.321 42.6308 308.275 42.5459 308.224 42.4525L319.69 36.2297L319.833 36.4929Z" fill="#F0E0C4"/>
<path d="M321.362 39.3198L310.082 45.4416C310.027 45.361 309.973 45.2805 309.914 45.1913L321.219 39.0566L321.362 39.3198Z" fill="#F0E0C4"/>
<path d="M322.889 42.1476L311.949 48.0847C311.882 47.9999 311.819 47.9247 311.764 47.8441L322.746 41.8845L322.889 42.1476Z" fill="#F0E0C4"/>
<path d="M324.418 44.9744L313.988 50.6344C313.925 50.5581 313.863 50.483 313.787 50.4024L324.275 44.7102L324.418 44.9744Z" fill="#F0E0C4"/>
<path d="M325.946 47.8011L316.257 53.0594C316.176 52.9928 316.106 52.9208 316.029 52.8413L325.804 47.5369L325.946 47.8011Z" fill="#F0E0C4"/>
<path d="M327.471 50.6203L318.809 55.3212C318.729 55.2546 318.641 55.1923 318.56 55.1257L327.333 50.3657L327.471 50.6203Z" fill="#F0E0C4"/>
<path d="M329 53.4482L321.91 57.2953C321.805 57.2427 321.699 57.1901 321.603 57.1321L328.861 53.1926L329 53.4482Z" fill="#F0E0C4"/>
<path d="M330.534 56.1073C325.939 58.6012 316.976 50.9317 310.513 38.9792C304.05 27.0266 302.536 15.3158 307.131 12.8219C311.725 10.3292 320.688 17.9975 327.152 29.9501C333.615 41.9026 335.128 53.6135 330.534 56.1073Z" fill="#F8C05A"/>
<path d="M329.633 54.4395C325.538 56.6616 317.179 49.1414 311.418 38.4874C305.658 27.8333 303.718 16.4768 307.813 14.2547C311.908 12.0326 320.487 19.7858 326.248 30.4399C332.008 41.094 333.728 52.2174 329.633 54.4395Z" stroke="#F0E0C4" stroke-width="0.3238" stroke-miterlimit="10"/>
<path d="M324.515 43.0691C324.657 42.9713 324.757 42.8682 324.799 42.7479C324.851 42.6287 324.84 42.4751 324.774 42.2958C324.716 42.1175 324.647 41.9553 324.573 41.8254C324.499 41.6954 324.386 41.501 324.222 41.239L323.527 40.1199C323.876 39.6473 323.988 39.0126 323.854 38.2135C323.72 37.4145 323.406 36.6315 322.922 35.8486C322.427 35.0377 321.917 34.4373 321.4 34.0464C320.886 33.6479 320.428 33.4267 320.019 33.3912C319.612 33.3472 319.23 33.358 318.878 33.3977C318.628 33.4278 318.398 33.445 318.179 33.4374L318.105 33.4267C318.037 33.4245 317.97 33.4235 317.912 33.4149C317.615 33.3708 317.386 33.2087 317.2 32.9187C316.696 32.1067 316.703 31.5493 317.215 31.2282C317.484 31.065 317.874 31.1659 318.403 31.5332L318.52 31.602C319.047 31.9177 319.394 32.0208 319.563 31.9188C319.704 31.8211 319.77 31.6116 319.753 31.2701C319.713 30.688 319.595 30.2305 319.39 29.904C319.259 29.7064 319.016 29.4669 318.651 29.2005L318.307 28.9546C318.087 28.7945 317.779 28.6474 317.377 28.511C316.975 28.3746 316.601 28.3359 316.236 28.3993L315.474 27.1685C315.311 26.8989 315.188 26.711 315.104 26.5885C315.013 26.465 314.906 26.3308 314.767 26.1912C314.628 26.044 314.496 25.9645 314.371 25.9549C314.246 25.9441 314.105 25.9828 313.965 26.0719C313.817 26.16 313.725 26.2642 313.682 26.3855C313.639 26.5058 313.641 26.6583 313.707 26.8377C313.764 27.0235 313.833 27.1868 313.907 27.3156C313.987 27.4542 314.102 27.6496 314.259 27.902L314.409 28.1448L314.559 28.3875L315.042 29.1704C314.726 29.6473 314.605 30.2895 314.686 31.1058C314.704 31.269 314.722 31.4323 314.765 31.5998C314.784 31.6965 314.812 31.7931 314.838 31.8984C315.01 32.5084 315.318 33.1636 315.76 33.8735C315.895 34.0969 316.034 34.3042 316.168 34.4846C316.231 34.5705 316.286 34.6543 316.351 34.7316C316.592 35.0388 316.825 35.2933 317.065 35.4984C317.497 35.8851 317.879 36.1031 318.2 36.1589C318.521 36.2159 318.849 36.2309 319.179 36.2212C319.52 36.2041 319.805 36.1622 320.052 36.0891C320.29 36.0236 320.543 36.0268 320.79 36.1235C321.047 36.2127 321.27 36.4156 321.468 36.7325C321.632 36.9934 321.711 37.2512 321.693 37.4853C321.682 37.7291 321.608 37.887 321.477 37.9697C321.348 38.0438 321.232 38.0857 321.112 38.1007C320.993 38.1083 320.901 38.1029 320.82 38.0739C320.748 38.046 320.662 38.0073 320.567 37.96C320.465 37.9106 320.402 37.8763 320.372 37.8548C320.085 37.7442 319.876 37.7291 319.755 37.8043C319.558 37.9278 319.536 38.3048 319.676 38.9524C319.754 39.2854 319.84 39.5528 319.927 39.7601C319.956 39.8492 319.995 39.9308 320.036 39.9963C320.043 40.006 320.057 40.0253 320.064 40.0264C320.189 40.2144 320.417 40.3841 320.753 40.5699L320.833 40.5989L321.021 40.703C321.14 40.7546 321.326 40.8083 321.573 40.8534C321.828 40.8996 322.072 40.9028 322.315 40.8631L323.003 41.9725C323.208 42.299 323.373 42.5525 323.492 42.7146C323.612 42.8757 323.768 43.01 323.958 43.097C324.142 43.1915 324.329 43.1851 324.515 43.0691Z" fill="#F0E0C4"/>
<path d="M222.818 155.217C234.041 151.156 320.576 206.735 338.463 234.989C356.352 263.244 396.046 345.178 396.046 345.178L411.163 361.438L420.752 365.288C422.018 365.796 421.978 367.607 420.687 368.044C417.133 369.247 411.114 370.477 404.32 368.453C394.483 365.522 391.49 358.418 391.49 358.418L397.145 373.781L394.014 375.057C394.014 375.057 381.646 359.18 386.064 349.635C386.064 349.635 369.737 327.401 359.02 316.525C348.303 305.65 322.824 280.218 318.543 258.918L176.885 173.01L222.818 155.217Z" fill="#FB8A6F"/>
<path d="M397.146 373.782L391.491 358.418C391.491 358.418 394.484 365.523 404.322 368.453C411.115 370.477 417.134 369.248 420.688 368.045C421.98 367.608 422.019 365.797 420.753 365.289L411.164 361.439L404.322 354.08L400.186 359.056C396.631 356.426 389.25 353.318 385.373 351.773C383.359 361.372 394.015 375.059 394.015 375.059L397.146 373.782Z" fill="#182341"/>
<path d="M370.871 330.035C366.841 325.099 362.615 320.173 359.021 316.525C348.304 305.65 322.825 280.218 318.544 258.918L176.886 173.01L222.819 155.217C234.042 151.156 320.577 206.735 338.464 234.989C350.326 253.725 371.777 296.066 384.884 322.467" fill="#5F88F0"/>
<path d="M336.489 232.152C318.286 208.024 233.035 145.74 222.213 149.656L169.58 175.937L318.544 258.918C319.755 264.941 322.661 271.294 326.448 277.554C317.346 262.198 327.445 236.748 336.489 232.152Z" fill="#182341"/>
<path d="M262.856 48.4841L264.873 37.6389C264.873 37.6389 263.696 34.8529 262.665 30.8125L257.022 23.2204L258.436 22.7758C259.558 22.4235 260.781 22.7328 261.601 23.577L265.886 27.9868L270.218 9.0565C270.368 8.40136 270.98 7.95887 271.648 8.02331C272.34 8.0899 272.865 8.67737 272.857 9.3744L272.691 21.4172L280.393 22.8982C281.822 23.1732 282.845 24.4083 282.892 25.8657C283.003 29.325 282.285 35.4919 276.423 38.9878L276.72 49.092L262.856 48.4841Z" fill="#FB8A6F"/>
<path d="M267.191 27.6892C267.191 27.6892 273.312 30.0144 272.58 37.033" stroke="#182341" stroke-width="0.6233" stroke-miterlimit="10"/>
<path d="M272.691 21.416L272.1 27.1684C271.94 28.7203 272.99 30.138 274.52 30.4355L282.076 31.9047" stroke="#182341" stroke-width="0.6233" stroke-miterlimit="10"/>
<path d="M276.11 22.6201L275.142 30.5581" stroke="#182341" stroke-width="0.6233" stroke-miterlimit="10"/>
<path d="M279.669 23.4373L278.7 31.3741" stroke="#182341" stroke-width="0.6233" stroke-miterlimit="10"/>
<path d="M260.619 48.5205L261.625 41.2517L278.832 42.316L279.119 50.0521L260.619 48.5205Z" fill="#FBFAF1"/>
<path d="M199.254 62.6093C211.129 65.1589 249.668 90.1015 249.668 90.1015L260.042 46.6475L280.453 48.005C280.453 48.005 281.893 83.6317 280.304 104.056C278.715 124.48 258.535 138.513 239.281 124.211C223.008 112.123 196.261 89.4034 196.261 89.4034L199.254 62.6093Z" fill="#EEC12D"/>
<path d="M258.433 96.1428L249.668 90.1026L252.596 77.8386C255.117 86.2727 258.433 96.1428 258.433 96.1428Z" fill="#182341"/>
<path d="M225.772 113.736C215.153 105.258 204.173 96.0731 199.122 91.8212L200.617 73.2302C200.617 73.2302 219.08 104.516 225.772 113.736Z" fill="#182341"/>
<path d="M160.91 30.3485C171.472 25.8549 176.903 28.7633 179.331 33.0496C182.394 38.4572 178.429 41.3291 180.433 45.4575C182.438 49.586 189.129 50.7427 190.862 57.8139C192.594 64.8851 190.297 69.3433 190.297 69.3433L141.003 98.3155C141.003 98.3155 134.139 89.6043 135.203 81.0166C136.268 72.4278 146.166 68.0244 144.135 55.7722C141.802 41.6975 145.938 29.4689 160.91 30.3485Z" fill="#182341"/>
<path d="M173.475 69.5475C173.475 69.5475 192.934 60.6601 200.435 62.8135C205.846 64.3676 206.642 67.5499 212.198 84.9369C217.491 101.505 211.839 124.1 213.904 134.328C216.381 146.591 228.426 150.674 228.426 150.674L160.016 182.554L165.323 144.43L137.206 91.1177C137.206 91.1177 137.579 83.9026 173.475 69.5475Z" fill="#EEC12D"/>
<path d="M163.865 154.903L228.425 150.675L160.832 182.175L163.865 154.903Z" fill="#182341"/>
<path d="M159.081 107.596L165.322 144.431L153.39 121.805L159.081 107.596Z" fill="#182341"/>
<path d="M162.779 66.8237C162.779 66.8237 156.533 75.2073 154.573 80.9188C152.615 86.6304 170.985 84.7777 170.985 84.7777C170.985 84.7777 167.042 89.4829 173.527 90.3421C180.013 91.2013 187.735 87.0718 191.825 90.1262C191.825 90.1262 192.198 84.4791 192.739 81.5289C193.52 77.2565 190.358 74.9517 187.338 75.8667C189.184 70.6761 188.567 65.755 185.685 64.7294C182.802 63.7037 171.527 65.1589 171.527 65.1589L162.779 66.8237Z" fill="white"/>
<path d="M203.407 79.0598L212.815 94.7134" stroke="#182341" stroke-width="0.5866" stroke-miterlimit="10"/>
<path d="M189.692 86.9956L194.138 94.3718C196.315 97.9848 197.591 102.07 197.858 106.283L201.474 163.534" stroke="#182341" stroke-width="0.5866" stroke-miterlimit="10"/>
<path d="M162.424 39.5281C162.424 39.5281 163.119 46.1224 159.524 50.9028C159.524 50.9028 157.214 48.7537 155.22 50.3733C153.226 51.9929 154.983 58.0148 159.962 56.435L162.077 74.7768C162.077 74.7768 178.713 79.0405 186.799 84.2537C186.799 84.2537 181.731 71.6299 176.489 67.8516L174.499 60.078C174.499 60.078 177.406 58.7054 177.892 55.6649C178.377 52.6244 175.539 49.1919 175.155 46.4726C174.771 43.7532 174.376 41.3507 174.376 41.3507C174.376 41.3507 168.028 44.3407 162.424 39.5281Z" fill="#FB8A6F"/>
<path d="M174.498 60.0779C170.563 62.1958 165.465 61.4236 163.781 59.79C165.891 63.636 170.264 65.696 175.459 63.8326L174.498 60.0779Z" fill="#182341"/>
<path d="M193.997 219.138C230.891 224.541 280.918 204.734 282.804 204.188L286.429 203.14C286.429 203.14 285.659 223.509 292.906 248.668C300.155 273.828 303.513 299.163 300.371 310.5C297.715 320.083 300.236 328.829 305.643 341.217L307.825 340.585L304.596 325.726C304.596 325.726 309.387 333.291 315.504 336.259C321.622 339.228 331.747 339.722 332.195 338.539C332.642 337.357 322.842 328.872 322.842 328.872L312.802 308.612C312.802 308.612 316.528 250.417 317.822 228.458C319.115 206.5 319.1 184.961 319.206 176.404C319.354 164.437 309.165 152.423 295.449 156.389L186.732 166.422C183.971 167.221 144.627 211.909 193.997 219.138Z" fill="#FB8A6F"/>
<path d="M286.429 203.14C286.897 190.859 292.289 178.782 292.289 178.782" stroke="#182341" stroke-width="0.5866" stroke-miterlimit="10"/>
<path d="M318.393 319.896L311.898 323.313C308.221 321.461 302.548 314.237 300.238 311.042C297.824 320.413 300.336 329.065 305.643 341.217L307.825 340.585L304.595 325.727C304.595 325.727 309.387 333.291 315.504 336.259C321.621 339.228 331.748 339.722 332.195 338.539C332.642 337.357 322.842 328.872 322.842 328.872L318.393 319.896Z" fill="#182341"/>
<path d="M313.781 293.248C314.979 274.429 316.951 243.237 317.821 228.46C319.114 206.502 319.099 184.963 319.205 176.406C319.353 164.44 309.164 152.425 295.448 156.391L186.731 166.424C183.971 167.222 144.626 211.911 193.996 219.14C230.89 224.542 280.917 204.735 282.803 204.189L286.428 203.141C286.428 203.141 285.658 223.51 292.905 248.669C297.436 264.394 300.446 280.187 301.3 292.589" fill="#5F88F0"/>
<path d="M188.559 179.25L196.676 175.166C196.676 175.166 210.175 175.582 213.031 169.337C213.031 169.337 213.367 166.68 211.719 166.124C213.225 163.339 211.098 162.265 211.098 162.265C211.098 162.265 211.608 158.819 209.622 158.522C210.61 156.298 209.405 154.226 207.962 154.003C206.576 153.788 205.377 159.669 198.977 160.519C198.977 160.519 198.39 157.343 200.639 154.998C201.202 154.412 201.122 153.415 200.536 152.852L199.726 152.072C199.726 152.072 193.543 156.482 193.351 162.326C193.319 163.295 192.842 164.193 192.002 164.674L184.148 169.175L188.559 179.25Z" fill="#FB8A6F"/>
<path d="M137.205 91.1177C131.053 109.082 93.2411 212.239 135.293 208.453C157.578 206.447 195.762 182.824 195.762 182.824L189.99 161.993L151.767 174.129L159.081 107.596C159.081 107.596 149.497 91.3486 137.205 91.1177Z" fill="#EEC12D"/>
<path d="M151.766 174.129L134.842 179.781C134.842 179.781 141.323 169.451 151.766 174.129Z" fill="#182341"/>
<path d="M367.907 66.7173C380.746 103.576 329.379 156.034 249.329 192.004" stroke="#182341" stroke-width="0.4074" stroke-miterlimit="10"/>
<path d="M110.449 70.2497C110.55 70.3152 110.656 70.384 110.752 70.4645C110.866 70.558 110.964 70.6578 111.06 70.7738L111.366 71.0284L111.316 71.1229C111.794 71.8736 111.981 72.9004 111.904 74.1269C111.897 74.2117 111.89 74.2976 111.878 74.3782C111.812 75.1053 111.659 75.8957 111.422 76.7442C111.4 76.8162 111.381 76.8924 111.359 76.9644C111.16 77.6346 110.903 78.3412 110.6 79.0705C110.577 79.1424 110.549 79.2101 110.515 79.2821C110.243 79.92 109.933 80.5816 109.59 81.2507C109.556 81.3141 109.523 81.3764 109.489 81.4494C109.166 82.0626 108.816 82.6823 108.435 83.3106C108.396 83.3783 108.363 83.4417 108.323 83.4997C107.962 84.0914 107.581 84.6843 107.171 85.2804C107.131 85.3384 107.092 85.3974 107.048 85.4608C106.655 86.0257 106.242 86.5917 105.805 87.1663C105.766 87.2254 105.721 87.2791 105.672 87.3381C105.363 87.7452 105.038 88.1501 104.705 88.5539C104.589 88.6946 104.469 88.8396 104.348 88.976L104.21 89.1435C103.745 89.6848 103.278 90.2068 102.804 90.7148C102.759 90.7685 102.71 90.8179 102.66 90.8673C102.163 91.3925 101.665 91.8973 101.164 92.3731C101.114 92.4225 101.065 92.4719 101.014 92.5213C100.481 93.025 99.9507 93.5029 99.4211 93.9465C99.3708 93.9959 99.3161 94.041 99.2603 94.0861C98.6847 94.564 98.1165 95.0108 97.5548 95.4178C97.499 95.4629 97.439 95.5038 97.3833 95.5489C96.7508 95.9967 96.1333 96.4038 95.5319 96.7593C95.4655 96.7958 95.4001 96.8312 95.339 96.872C94.6186 97.2834 93.9261 97.6281 93.2614 97.8956C93.1896 97.9278 93.1124 97.9546 93.0363 97.9815C92.3277 98.2575 91.6599 98.4412 91.037 98.5249C90.9438 98.5389 90.8462 98.5485 90.7476 98.5571C89.6799 98.6635 88.7815 98.4551 88.1137 97.902C87.984 97.7946 87.5755 97.51 87.4683 97.3768L85.5355 95.3674L87.0385 93.5136C87.5509 89.8588 90.1087 84.7251 94.1565 79.8191C98.2805 74.8207 102.917 71.3001 106.43 70.1756L108.056 68.2156L110.449 70.2497Z" fill="#7B85EF"/>
<path d="M86.9817 95.1655L91.0392 98.525C90.946 98.539 90.8484 98.5486 90.7498 98.5572L86.8488 95.3266L86.9817 95.1655Z" fill="#F0E0C4"/>
<path d="M88.1931 93.6963L93.2626 97.8946C93.1907 97.9268 93.1136 97.9536 93.0374 97.9805L88.0591 93.8574L88.1931 93.6963Z" fill="#F0E0C4"/>
<path d="M89.6714 91.905L95.533 96.7595C95.4666 96.796 95.4012 96.8315 95.3401 96.8723L89.5374 92.0672L89.6714 91.905Z" fill="#F0E0C4"/>
<path d="M91.1507 90.1125L97.5569 95.4181C97.5012 95.4632 97.4412 95.504 97.3854 95.5491L91.0167 90.2747L91.1507 90.1125Z" fill="#F0E0C4"/>
<path d="M92.629 88.321L99.4233 93.9477C99.373 93.9971 99.3183 94.0422 99.2625 94.0874L92.495 88.4832L92.629 88.321Z" fill="#F0E0C4"/>
<path d="M94.1073 86.5286L101.165 92.3733C101.115 92.4227 101.066 92.4721 101.015 92.5215L93.9733 86.6897L94.1073 86.5286Z" fill="#F0E0C4"/>
<path d="M95.5866 84.7361L102.807 90.715C102.762 90.7687 102.712 90.8181 102.662 90.8675L95.4526 84.8972L95.5866 84.7361Z" fill="#F0E0C4"/>
<path d="M97.0667 82.9361L96.9287 83.1033L104.213 89.1356L104.351 88.9684L97.0667 82.9361Z" fill="#F0E0C4"/>
<path d="M98.5432 81.1521L105.806 87.1665C105.767 87.2256 105.722 87.2793 105.673 87.3383L98.4049 81.3196L98.5432 81.1521Z" fill="#F0E0C4"/>
<path d="M100.022 79.3596L107.172 85.2806C107.132 85.3386 107.094 85.3976 107.05 85.461L99.8832 79.5272L100.022 79.3596Z" fill="#F0E0C4"/>
<path d="M101.501 77.5681L108.436 83.3108C108.397 83.3785 108.364 83.4418 108.324 83.4998L101.363 77.7346L101.501 77.5681Z" fill="#F0E0C4"/>
<path d="M102.979 75.7756L109.59 81.2498C109.556 81.3132 109.523 81.3755 109.489 81.4485L102.841 75.9432L102.979 75.7756Z" fill="#F0E0C4"/>
<path d="M104.457 73.9832L110.6 79.0696C110.577 79.1416 110.549 79.2092 110.515 79.2812L104.319 74.1496L104.457 73.9832Z" fill="#F0E0C4"/>
<path d="M105.931 72.197L111.421 76.7433C111.399 76.8152 111.38 76.8915 111.358 76.9634L105.797 72.3581L105.931 72.197Z" fill="#F0E0C4"/>
<path d="M107.411 70.4045L111.905 74.1259C111.898 74.2108 111.891 74.2967 111.879 74.3773L107.278 70.5667L107.411 70.4045Z" fill="#F0E0C4"/>
<path d="M108.775 68.6538C111.688 71.066 108.981 79.1629 102.73 86.7389C96.4796 94.316 89.0506 98.5024 86.1391 96.0902C83.2264 93.678 85.9332 85.5811 92.1841 78.0051C98.4338 70.4291 105.863 66.2427 108.775 68.6538Z" fill="#F8C05A"/>
<path d="M107.903 69.7106C110.498 71.8608 107.728 79.512 102.156 86.2653C96.5846 93.0186 89.5084 97.3951 86.912 95.2461C84.3156 93.097 87.1832 85.2342 92.7555 78.4809C98.3277 71.7276 105.307 67.5605 107.903 69.7106Z" stroke="#F0E0C4" stroke-width="0.2341" stroke-miterlimit="10"/>
<path d="M101.678 76.2267C101.575 76.1579 101.478 76.1193 101.386 76.1225C101.292 76.1204 101.192 76.1687 101.09 76.2621C100.987 76.3491 100.896 76.4393 100.83 76.5242C100.763 76.609 100.664 76.7379 100.533 76.9194L99.9722 77.6895C99.5616 77.5831 99.106 77.6798 98.6075 77.9859C98.1091 78.292 97.6695 78.7151 97.2761 79.2521C96.8677 79.8042 96.6029 80.31 96.4818 80.7622C96.3542 81.2165 96.3306 81.5827 96.4164 81.8673C96.4968 82.153 96.6072 82.4065 96.7294 82.632C96.8173 82.791 96.8902 82.9413 96.9449 83.0906L96.9577 83.1432C96.9749 83.1883 96.992 83.2345 97.0017 83.2753C97.0521 83.4869 97.007 83.6845 96.8623 83.8875C96.455 84.446 96.0798 84.5921 95.7271 84.3343C95.5448 84.1979 95.5073 83.9079 95.6092 83.4536L95.6231 83.357C95.6917 82.9166 95.666 82.6556 95.5534 82.5708C95.4494 82.5021 95.2918 82.516 95.0678 82.6191C94.6894 82.8039 94.4149 83.0068 94.252 83.2324C94.1555 83.3741 94.0612 83.6018 93.9819 83.9197L93.91 84.2172C93.8629 84.4095 93.8468 84.6554 93.865 84.9626C93.8821 85.2697 93.9572 85.5318 94.0987 85.7595L93.4812 86.6047C93.3451 86.7873 93.2529 86.9216 93.1929 87.0096C93.135 87.1041 93.0739 87.2126 93.0181 87.3437C92.957 87.4768 92.9399 87.5864 92.9667 87.6734C92.9935 87.7604 93.0578 87.8441 93.1553 87.915C93.254 87.9902 93.3494 88.0235 93.4416 88.0203C93.5338 88.017 93.6356 87.9741 93.7374 87.8807C93.8468 87.7926 93.9368 87.7024 94.0033 87.6175C94.074 87.5251 94.1737 87.3963 94.3002 87.2223L94.4224 87.0558L94.5446 86.8893L94.9381 86.3534C95.3433 86.4361 95.8053 86.3448 96.3295 86.0688C96.4346 86.013 96.5386 85.956 96.6393 85.8819C96.6983 85.8433 96.7562 85.7982 96.8194 85.752C97.1807 85.4717 97.5366 85.0883 97.8914 84.5985C98.004 84.4471 98.1058 84.2978 98.1905 84.1592C98.2313 84.0937 98.272 84.0336 98.3063 83.9691C98.4467 83.7243 98.5539 83.4987 98.6268 83.2818C98.7683 82.8866 98.8112 82.5719 98.7619 82.341C98.7126 82.11 98.6343 81.8856 98.5379 81.6665C98.4349 81.442 98.3288 81.2627 98.213 81.1155C98.1048 80.9737 98.0383 80.803 98.0362 80.6097C98.0265 80.4131 98.1015 80.208 98.2602 79.99C98.391 79.8095 98.5411 79.686 98.7029 79.6345C98.8691 79.5754 98.9956 79.5829 99.0856 79.6484C99.1703 79.715 99.2293 79.7816 99.2722 79.8589C99.3097 79.9373 99.3311 80.0007 99.3333 80.0619C99.3344 80.1178 99.3322 80.1865 99.3258 80.2628C99.3204 80.3444 99.314 80.3959 99.3086 80.4228C99.3118 80.6462 99.359 80.7901 99.4426 80.8513C99.5777 80.9491 99.8371 80.8621 100.232 80.5936C100.434 80.4518 100.589 80.3208 100.704 80.2058C100.756 80.1629 100.801 80.1145 100.833 80.0694C100.837 80.0619 100.846 80.048 100.845 80.0415C100.937 79.9073 100.988 79.7086 101.022 79.4326L101.02 79.3713L101.039 79.2178C101.041 79.1243 101.026 78.9847 100.99 78.8064C100.952 78.6228 100.888 78.4574 100.795 78.3059L101.352 77.5434C101.515 77.3179 101.64 77.1385 101.716 77.0139C101.792 76.8893 101.839 76.7476 101.846 76.5972C101.86 76.4447 101.805 76.3201 101.678 76.2267Z" fill="#F0E0C4"/>
<path d="M293.974 154.552C294.201 154.699 294.441 154.856 294.66 155.038C294.917 155.249 295.139 155.476 295.355 155.736L296.05 156.31L295.935 156.524C297.017 158.22 297.438 160.542 297.263 163.313C297.248 163.505 297.232 163.698 297.204 163.881C297.057 165.525 296.71 167.312 296.174 169.23C296.121 169.393 296.082 169.566 296.03 169.728C295.579 171.243 295.001 172.839 294.315 174.49C294.264 174.652 294.199 174.805 294.124 174.969C293.509 176.41 292.809 177.905 292.032 179.418C291.956 179.56 291.878 179.703 291.805 179.867C291.071 181.253 290.284 182.654 289.42 184.075C289.334 184.23 289.257 184.372 289.17 184.504C288.354 185.841 287.493 187.182 286.566 188.529C286.477 188.661 286.389 188.793 286.29 188.937C285.4 190.214 284.467 191.494 283.479 192.792C283.39 192.924 283.291 193.046 283.179 193.181C282.481 194.102 281.748 195.015 280.993 195.93C280.732 196.247 280.46 196.577 280.186 196.884L279.874 197.262C278.824 198.486 277.768 199.667 276.698 200.814C276.597 200.936 276.485 201.048 276.372 201.159C275.25 202.345 274.123 203.487 272.991 204.562C272.878 204.674 272.765 204.785 272.652 204.898C271.447 206.035 270.248 207.117 269.051 208.119C268.939 208.231 268.813 208.333 268.688 208.435C267.388 209.514 266.102 210.525 264.832 211.444C264.706 211.546 264.569 211.637 264.445 211.739C263.015 212.752 261.62 213.671 260.26 214.476C260.111 214.558 259.961 214.639 259.824 214.732C258.194 215.663 256.63 216.44 255.127 217.045C254.965 217.117 254.792 217.178 254.618 217.239C253.016 217.864 251.506 218.278 250.098 218.468C249.888 218.499 249.665 218.521 249.443 218.542C247.03 218.783 245 218.312 243.489 217.062C243.197 216.82 242.272 216.177 242.029 215.874L237.66 211.331L241.056 207.14C242.215 198.878 247.995 187.275 257.146 176.184C266.468 164.885 276.949 156.928 284.89 154.383L288.567 149.952L293.974 154.552Z" fill="#7B85EF"/>
<path d="M240.926 210.873L250.097 218.468C249.887 218.499 249.664 218.521 249.442 218.542L240.625 211.24L240.926 210.873Z" fill="#F0E0C4"/>
<path d="M243.664 207.554L255.125 217.045C254.963 217.117 254.789 217.178 254.616 217.24L243.362 207.92L243.664 207.554Z" fill="#F0E0C4"/>
<path d="M247.007 203.503L260.258 214.476C260.109 214.558 259.959 214.639 259.821 214.732L246.704 203.869L247.007 203.503Z" fill="#F0E0C4"/>
<path d="M250.349 199.452L264.83 211.444C264.704 211.546 264.567 211.638 264.443 211.74L250.047 199.818L250.349 199.452Z" fill="#F0E0C4"/>
<path d="M253.692 195.401L269.049 208.119C268.936 208.231 268.811 208.333 268.686 208.435L253.388 195.767L253.692 195.401Z" fill="#F0E0C4"/>
<path d="M257.034 191.35L272.989 204.562C272.876 204.674 272.762 204.785 272.65 204.898L256.732 191.716L257.034 191.35Z" fill="#F0E0C4"/>
<path d="M260.377 187.299L276.697 200.814C276.596 200.936 276.483 201.048 276.371 201.16L260.075 187.665L260.377 187.299Z" fill="#F0E0C4"/>
<path d="M263.721 183.231L263.409 183.61L279.875 197.245L280.187 196.867L263.721 183.231Z" fill="#F0E0C4"/>
<path d="M267.061 179.196L283.478 192.792C283.389 192.924 283.29 193.047 283.178 193.181L266.749 179.574L267.061 179.196Z" fill="#F0E0C4"/>
<path d="M270.403 175.145L286.564 188.529C286.476 188.661 286.388 188.793 286.289 188.937L270.091 175.523L270.403 175.145Z" fill="#F0E0C4"/>
<path d="M273.746 171.094L289.42 184.074C289.334 184.229 289.257 184.371 289.169 184.503L273.434 171.472L273.746 171.094Z" fill="#F0E0C4"/>
<path d="M277.088 167.044L292.032 179.42C291.956 179.561 291.878 179.704 291.804 179.869L276.775 167.423L277.088 167.044Z" fill="#F0E0C4"/>
<path d="M280.429 162.992L294.314 174.49C294.262 174.652 294.198 174.805 294.123 174.969L280.117 163.37L280.429 162.992Z" fill="#F0E0C4"/>
<path d="M283.762 158.953L296.173 169.23C296.12 169.393 296.081 169.566 296.029 169.728L283.46 159.319L283.762 158.953Z" fill="#F0E0C4"/>
<path d="M287.105 154.902L297.262 163.314C297.247 163.506 297.231 163.699 297.203 163.882L286.802 155.269L287.105 154.902Z" fill="#F0E0C4"/>
<path d="M290.189 150.946C296.772 156.397 290.654 174.7 276.524 191.827C262.394 208.955 245.602 218.419 239.019 212.967C232.436 207.515 238.554 189.211 252.684 172.085C266.814 154.958 283.606 145.493 290.189 150.946Z" fill="#F8C05A"/>
<path d="M288.219 153.333C294.086 158.193 287.823 175.489 275.228 190.753C262.634 206.018 246.638 215.913 240.771 211.053C234.903 206.194 241.385 188.422 253.98 173.156C266.574 157.892 282.351 148.474 288.219 153.333Z" stroke="#F0E0C4" stroke-width="0.5292" stroke-miterlimit="10"/>
<path d="M274.145 168.062C273.912 167.907 273.694 167.818 273.485 167.827C273.273 167.821 273.047 167.932 272.816 168.143C272.582 168.339 272.379 168.543 272.228 168.734C272.076 168.925 271.852 169.219 271.556 169.627L270.287 171.367C269.359 171.125 268.33 171.344 267.203 172.037C266.076 172.73 265.084 173.685 264.195 174.898C263.272 176.147 262.675 177.29 262.399 178.312C262.111 179.338 262.057 180.167 262.253 180.809C262.435 181.455 262.685 182.028 262.961 182.538C263.16 182.899 263.326 183.239 263.448 183.575L263.477 183.695C263.515 183.798 263.554 183.901 263.577 183.995C263.691 184.474 263.587 184.921 263.261 185.379C262.342 186.641 261.494 186.972 260.695 186.39C260.284 186.08 260.198 185.425 260.429 184.4L260.461 184.181C260.617 183.186 260.559 182.595 260.303 182.404C260.069 182.25 259.711 182.278 259.205 182.513C258.349 182.929 257.729 183.388 257.36 183.898C257.141 184.218 256.928 184.734 256.749 185.452L256.587 186.124C256.48 186.558 256.444 187.116 256.485 187.81C256.525 188.503 256.694 189.096 257.015 189.61L255.618 191.521C255.309 191.933 255.101 192.237 254.966 192.437C254.835 192.652 254.697 192.896 254.572 193.194C254.433 193.494 254.395 193.742 254.455 193.939C254.516 194.135 254.66 194.326 254.88 194.485C255.105 194.656 255.319 194.73 255.528 194.723C255.737 194.715 255.966 194.618 256.197 194.407C256.443 194.207 256.648 194.003 256.799 193.812C256.96 193.605 257.185 193.312 257.47 192.92L257.746 192.544L258.021 192.168L258.911 190.955C259.827 191.143 260.872 190.935 262.057 190.312C262.294 190.185 262.53 190.057 262.758 189.891C262.89 189.803 263.021 189.701 263.165 189.597C263.983 188.964 264.786 188.095 265.588 186.988C265.843 186.645 266.071 186.309 266.263 185.996C266.354 185.847 266.448 185.712 266.526 185.567C266.842 185.013 267.085 184.504 267.249 184.014C267.569 183.122 267.665 182.408 267.555 181.886C267.443 181.365 267.266 180.859 267.05 180.361C266.816 179.854 266.578 179.447 266.317 179.117C266.071 178.796 265.923 178.41 265.917 177.975C265.894 177.53 266.065 177.067 266.424 176.573C266.719 176.165 267.059 175.886 267.425 175.77C267.8 175.638 268.085 175.654 268.289 175.801C268.48 175.953 268.614 176.103 268.711 176.276C268.796 176.453 268.844 176.596 268.85 176.736C268.852 176.861 268.846 177.017 268.833 177.19C268.821 177.376 268.807 177.492 268.793 177.551C268.801 178.056 268.908 178.381 269.095 178.519C269.401 178.742 269.986 178.544 270.879 177.936C271.336 177.615 271.686 177.32 271.947 177.061C272.064 176.962 272.164 176.854 272.238 176.752C272.248 176.736 272.268 176.702 272.265 176.688C272.473 176.385 272.59 175.934 272.666 175.311L272.661 175.172L272.704 174.824C272.709 174.611 272.676 174.295 272.593 173.894C272.507 173.478 272.363 173.105 272.154 172.761L273.412 171.037C273.782 170.526 274.064 170.121 274.235 169.84C274.407 169.56 274.513 169.239 274.529 168.898C274.558 168.554 274.435 168.275 274.145 168.062Z" fill="#F0E0C4"/>
<path d="M249.327 192.004C237.891 197.142 225.87 201.944 213.367 206.316C136.156 233.314 63.1415 236.017 27.103 216.469" stroke="#182341" stroke-width="0.4074" stroke-miterlimit="10"/>
<path d="M33.9745 170.722C34.2254 170.672 34.4901 170.62 34.7581 170.598C35.0712 170.572 35.3703 170.577 35.6876 170.612L36.5355 170.542L36.5988 170.762C38.4469 171.195 40.2607 172.487 41.9663 174.478C42.082 174.619 42.1989 174.76 42.3007 174.9C43.2838 176.11 44.225 177.549 45.1244 179.201C45.1962 179.345 45.283 179.487 45.3549 179.632C46.0474 180.955 46.7067 182.417 47.3295 183.986C47.4013 184.13 47.4581 184.276 47.516 184.436C48.0488 185.819 48.5591 187.292 49.0297 188.829C49.0715 188.975 49.1133 189.122 49.1712 189.282C49.5871 190.704 49.9773 192.172 50.3279 193.704C50.3708 193.866 50.4126 194.012 50.4404 194.16C50.7685 195.604 51.0686 197.081 51.3291 198.605C51.3559 198.753 51.3827 198.9 51.4117 199.063C51.6507 200.514 51.8619 201.997 52.0474 203.528C52.0742 203.676 52.087 203.824 52.0999 203.988C52.2339 205.073 52.339 206.175 52.4311 207.293C52.4633 207.681 52.4955 208.084 52.5126 208.472L52.5501 208.934C52.6455 210.457 52.7077 211.952 52.7399 213.435C52.7517 213.585 52.7495 213.735 52.7474 213.884C52.7688 215.429 52.7581 216.945 52.7002 218.421C52.697 218.571 52.6948 218.722 52.6927 218.872C52.6262 220.438 52.5265 221.962 52.3775 223.43C52.3743 223.58 52.3572 223.732 52.34 223.883C52.1706 225.473 51.967 227.005 51.7118 228.467C51.6947 228.619 51.6614 228.771 51.6443 228.922C51.3431 230.553 51.0054 232.096 50.6152 233.54C50.568 233.693 50.5208 233.848 50.4887 234C49.9998 235.706 49.4531 237.267 48.8335 238.668C48.7713 238.824 48.6941 238.979 48.617 239.136C47.9448 240.617 47.1955 241.894 46.3679 242.953C46.2468 243.113 46.1096 243.274 45.9734 243.437C44.4994 245.194 42.8164 246.217 40.9715 246.37C40.6145 246.4 39.565 246.576 39.2027 246.531L33.2552 246.345L32.7942 241.266C28.1385 234.911 24.4112 223.242 23.3006 209.693C22.1686 195.889 24.021 183.581 27.7183 176.613L27.2884 171.186L33.9745 170.722Z" fill="#7B85EF"/>
<path d="M35.1633 243.874L46.3668 242.952C46.2457 243.112 46.1084 243.273 45.9723 243.435L35.1998 244.321L35.1633 243.874Z" fill="#F0E0C4"/>
<path d="M34.8311 239.819L48.8314 238.667C48.7692 238.823 48.692 238.978 48.6148 239.135L34.8664 240.266L34.8311 239.819Z" fill="#F0E0C4"/>
<path d="M34.4258 234.87L50.6141 233.539C50.5669 233.692 50.5198 233.847 50.4876 233.999L34.4634 235.318L34.4258 234.87Z" fill="#F0E0C4"/>
<path d="M34.0195 229.921L51.7107 228.466C51.6936 228.617 51.6604 228.77 51.6432 228.921L34.0571 230.369L34.0195 229.921Z" fill="#F0E0C4"/>
<path d="M33.6143 224.972L52.3765 223.428C52.3732 223.578 52.3561 223.73 52.3389 223.881L33.6508 225.419L33.6143 224.972Z" fill="#F0E0C4"/>
<path d="M33.2091 220.023L52.7002 218.42C52.697 218.57 52.6948 218.721 52.6927 218.871L33.2456 220.471L33.2091 220.023Z" fill="#F0E0C4"/>
<path d="M32.8028 215.074L52.7399 213.433C52.7516 213.583 52.7495 213.733 52.7474 213.882L32.8392 215.52L32.8028 215.074Z" fill="#F0E0C4"/>
<path d="M52.5195 208.451L32.4045 210.107L32.4425 210.57L52.5575 208.913L52.5195 208.451Z" fill="#F0E0C4"/>
<path d="M31.9913 205.176L52.0473 203.526C52.0741 203.674 52.087 203.822 52.0998 203.986L32.0288 205.638L31.9913 205.176Z" fill="#F0E0C4"/>
<path d="M31.585 200.227L51.3291 198.602C51.3559 198.751 51.3827 198.898 51.4117 199.061L31.6225 200.689L31.585 200.227Z" fill="#F0E0C4"/>
<path d="M31.1798 195.278L50.3289 193.703C50.3718 193.865 50.4136 194.011 50.4415 194.159L31.2184 195.741L31.1798 195.278Z" fill="#F0E0C4"/>
<path d="M30.7735 190.329L49.0297 188.827C49.0715 188.973 49.1133 189.12 49.1712 189.28L30.811 190.791L30.7735 190.329Z" fill="#F0E0C4"/>
<path d="M30.3683 185.38L47.3305 183.984C47.4024 184.128 47.4592 184.274 47.5171 184.434L30.4069 185.842L30.3683 185.38Z" fill="#F0E0C4"/>
<path d="M29.9642 180.446L45.1255 179.198C45.1973 179.342 45.2841 179.485 45.3559 179.63L30.0006 180.893L29.9642 180.446Z" fill="#F0E0C4"/>
<path d="M29.5579 175.497L41.9673 174.476C42.0831 174.617 42.2 174.757 42.3018 174.898L29.5954 175.944L29.5579 175.497Z" fill="#F0E0C4"/>
<path d="M29.039 170.782C37.0812 170.121 44.9914 186.546 46.7066 207.468C48.4218 228.391 43.2934 245.889 35.2502 246.551C27.208 247.213 19.2978 230.788 17.5826 209.865C15.8674 188.943 20.9969 171.444 29.039 170.782Z" fill="#F8C05A"/>
<path d="M29.2791 173.7C36.4476 173.11 43.5968 188.949 45.1254 207.598C46.6541 226.247 42.3468 243.51 35.1783 244.099C28.0099 244.689 20.6956 228.383 19.167 209.734C17.6372 191.085 22.1107 174.29 29.2791 173.7Z" stroke="#F0E0C4" stroke-width="0.5" stroke-miterlimit="10"/>
<path d="M29.4549 192.963C29.1955 193.012 28.9897 193.096 28.8535 193.24C28.7067 193.376 28.6263 193.601 28.608 193.895C28.5791 194.183 28.5759 194.456 28.5995 194.685C28.6231 194.913 28.6638 195.26 28.7335 195.732L29.0208 197.748C28.2339 198.198 27.6818 199.026 27.3763 200.239C27.0708 201.452 27.0279 202.755 27.2252 204.163C27.4224 205.617 27.7708 206.785 28.2586 207.658C28.7388 208.542 29.248 209.139 29.8033 209.444C30.3522 209.76 30.8978 209.984 31.421 210.146C31.793 210.259 32.1285 210.379 32.4329 210.525L32.5316 210.587C32.6259 210.631 32.7202 210.675 32.7963 210.724C33.1898 210.972 33.4138 211.342 33.4942 211.867C33.7033 213.329 33.3463 214.113 32.4233 214.247C31.9409 214.31 31.4521 213.924 30.9332 213.077L30.811 212.908C30.2621 212.133 29.8333 211.771 29.5343 211.811C29.2738 211.86 29.0519 212.117 28.8632 212.61C28.5587 213.457 28.4408 214.177 28.5277 214.766C28.5909 215.127 28.7849 215.617 29.1365 216.221L29.4699 216.783C29.6833 217.147 30.0263 217.548 30.5098 217.99C30.9932 218.434 31.4982 218.722 32.0524 218.859L32.3665 221.075C32.4287 221.557 32.4876 221.9 32.5294 222.125C32.5819 222.357 32.6495 222.614 32.7599 222.897C32.8639 223.193 33.0011 223.386 33.1716 223.478C33.342 223.571 33.565 223.605 33.818 223.567C34.0817 223.534 34.2768 223.444 34.4129 223.3C34.5491 223.157 34.6402 222.939 34.6573 222.645C34.6927 222.346 34.697 222.074 34.6734 221.845C34.6455 221.598 34.6048 221.251 34.5394 220.798L34.4783 220.362L34.4172 219.926L34.221 218.518C34.9639 218.04 35.5342 217.208 35.9255 216.003C36.0016 215.761 36.0777 215.519 36.1217 215.256C36.1539 215.108 36.1753 214.953 36.2032 214.788C36.3404 213.819 36.3114 212.701 36.1249 211.422C36.0724 211.021 36.0049 210.643 35.9287 210.305C35.8923 210.144 35.8676 209.991 35.8237 209.841C35.6725 209.257 35.5032 208.752 35.2909 208.312C34.92 207.497 34.5158 206.951 34.0967 206.671C33.6775 206.391 33.2251 206.167 32.7513 205.973C32.2593 205.785 31.8305 205.666 31.436 205.616C31.0586 205.561 30.7038 205.398 30.4133 205.108C30.1056 204.821 29.9159 204.396 29.8333 203.824C29.7647 203.353 29.8108 202.939 29.9823 202.619C30.1496 202.281 30.3522 202.104 30.588 202.069C30.8164 202.046 31.0061 202.059 31.1873 202.111C31.3609 202.175 31.4874 202.24 31.5828 202.33C31.6675 202.414 31.7662 202.523 31.8701 202.649C31.9838 202.782 32.0513 202.871 32.0813 202.92C32.419 203.256 32.7052 203.406 32.9228 203.375C33.2755 203.324 33.5425 202.804 33.7461 201.802C33.8437 201.283 33.8866 200.851 33.8919 200.503C33.9059 200.36 33.9027 200.22 33.8855 200.102C33.8812 200.084 33.8737 200.048 33.863 200.042C33.804 199.699 33.5875 199.317 33.2284 198.845L33.133 198.754L32.9336 198.49C32.7974 198.343 32.5669 198.151 32.2464 197.933C31.9152 197.709 31.5711 197.552 31.2034 197.458L30.9203 195.46C30.8335 194.87 30.7585 194.41 30.6899 194.107C30.6213 193.804 30.4819 193.517 30.2675 193.274C30.0574 193.023 29.7894 192.915 29.4549 192.963Z" fill="#F0E0C4"/>
<path d="M27.104 216.47C16.4569 210.695 9.03654 202.977 5.68976 193.37C-5.35827 161.654 31.1348 118.386 92.5357 84.0142" stroke="#182341" stroke-width="0.4074" stroke-miterlimit="10"/>
</svg>
