<svg width="21" height="16" viewBox="0 0 21 16" fill="none" xmlns="http://www.w3.org/2000/svg">
<path d="M18.9228 0.000896916C18.3979 0.0182189 17.9005 0.237658 17.5364 0.612583C13.6736 4.44684 10.7236 7.64922 7.13848 11.2734L3.3196 8.07765C3.11697 7.90794 2.88251 7.77952 2.62967 7.69971C2.37683 7.6199 2.11058 7.59029 1.84617 7.61257C1.58176 7.63485 1.32438 7.70858 1.08879 7.82954C0.853197 7.95051 0.644018 8.11634 0.473238 8.31752C0.302458 8.51869 0.173432 8.75126 0.0935542 9.00191C0.0136759 9.25256 -0.015485 9.51634 0.00774166 9.77817C0.0309683 10.04 0.106126 10.2947 0.228909 10.5277C0.351693 10.7607 0.519688 10.9675 0.72327 11.1361L5.96635 15.5302C6.35212 15.8521 6.84564 16.0191 7.34959 15.9983C7.85353 15.9775 8.33132 15.7704 8.68872 15.4179C13.0324 11.1064 16.1245 7.66268 20.3848 3.43383C20.6774 3.15371 20.8776 2.79247 20.9591 2.39756C21.0406 2.00266 20.9996 1.59256 20.8414 1.22117C20.6833 0.849789 20.4154 0.534481 20.073 0.316688C19.7305 0.0988945 19.3296 -0.0111774 18.9228 0.000896916Z" fill="#5884FF"/>
</svg>
