<svg width="112" height="24" viewBox="0 0 112 24" fill="none" xmlns="http://www.w3.org/2000/svg">
<path d="M9.53125 0.916627H11.6719L20.8437 22.6666H17.5937L15.3907 17.1978H5.73437L3.54688 22.6666H0.359375L9.53125 0.916627ZM14.3907 14.6978L10.5781 5.16663L6.75 14.6978H14.3907ZM23.6875 0.932252H28.9688C32.5312 0.932252 35.3541 1.81247 37.4375 3.57288C39.6875 5.45829 40.8125 8.20829 40.8125 11.8229C40.8125 15.4374 39.7188 18.1822 37.5312 20.0573C35.4896 21.7969 32.6875 22.6666 29.1251 22.6666H23.6875V0.932252ZM37.6093 11.8385C37.6093 6.24475 34.6615 3.44788 28.7656 3.44788H26.8125V20.1666H28.9375C33.4375 20.1666 36.1771 18.5416 37.1563 15.2917C37.4584 14.2604 37.6093 13.1093 37.6093 11.8385ZM57.4219 21.151C56.6823 21.6718 55.7344 22.0833 54.5781 22.3854C53.4219 22.677 52.0052 22.8229 50.3281 22.8229C48.6615 22.8229 46.9792 22.724 45.2812 22.526V19.4948C46.8021 19.8385 48.3333 20.0104 49.8749 20.0104C51.4167 20.0104 52.5729 19.927 53.3437 19.7604C54.1145 19.5833 54.7344 19.3541 55.2031 19.0729C56.0677 18.5521 56.5 17.8749 56.5 17.0416C56.5 16.3958 56.3333 15.8958 56 15.5416C55.4688 14.9896 54.7031 14.4844 53.7031 14.026L49.7031 12.1979C48.3281 11.552 47.3541 10.9531 46.7812 10.401C45.5521 9.21351 44.9375 7.83851 44.9375 6.276C44.9375 4.67184 45.6355 3.37496 47.0312 2.38537C48.5625 1.30204 50.7396 0.760376 53.5625 0.760376C55.3855 0.760376 57.0521 0.833293 58.5625 0.979127V3.96351C57.2812 3.67184 55.8489 3.526 54.2656 3.526C52.6927 3.526 51.5469 3.60933 50.8281 3.776C50.1197 3.93225 49.5625 4.13537 49.1563 4.38537C48.4167 4.84371 48.0469 5.44788 48.0469 6.19788C48.0469 6.92704 48.2812 7.53121 48.75 8.01037C49.1667 8.41663 49.9271 8.88537 51.0312 9.41663L55.1407 11.3697C56.5052 12.0156 57.4584 12.625 58 13.1979C58.5521 13.7708 58.9584 14.3489 59.2188 14.9322C59.4792 15.5052 59.6093 16.1978 59.6093 17.0104C59.6093 17.8125 59.4323 18.5729 59.0781 19.2917C58.724 20 58.1719 20.6197 57.4219 21.151ZM63.7188 0.916627H77.7656V3.63537H66.8437V10.0416H75.1093V12.6666H66.8437V19.9166H77.7656V22.6666H63.7188V0.916627ZM82.4063 0.916627H85.5312V19.9166H94.8437V22.6666H82.4063V0.916627ZM98.4375 0.916627H101.563V19.9166H110.875V22.6666H98.4375V0.916627Z" fill="#FAF8F5"/>
</svg>
