<svg width="121" height="121" viewBox="0 0 121 121" fill="none" xmlns="http://www.w3.org/2000/svg">
<circle cx="60.5" cy="60.5" r="60.5" fill="#BBDBF9"/>
<path fill-rule="evenodd" clip-rule="evenodd" d="M61.0008 33C60.6256 33 60.2541 33.122 59.9331 33.364L41.2658 47.364C40.4202 47.996 40.2149 49.24 40.8066 50.144C41.3965 51.05 42.5576 51.27 43.4014 50.636L44.2003 50.04V57C44.2003 58.104 45.0366 59 46.0671 59C47.0975 59 47.9338 58.104 47.9338 57V47.238L61.0008 37.442L74.0679 47.238V63C74.0679 64.104 74.9042 65 75.9346 65C76.965 65 77.8013 64.104 77.8013 63V50.04L78.6003 50.636C79.444 51.27 80.6051 51.05 81.195 50.144C81.7868 49.24 81.5814 47.996 80.7358 47.364L62.0686 33.364C61.7475 33.122 61.376 33 61.0008 33ZM55.4007 47C54.3702 47 53.5339 47.896 53.5339 49V57C53.5339 58.104 54.3702 59 55.4007 59C56.4311 59 57.2674 58.104 57.2674 57V51H64.7343V57C64.7343 58.104 65.5706 59 66.601 59C67.6314 59 68.4677 58.104 68.4677 57V49C68.4677 47.896 67.6314 47 66.601 47H55.4007ZM49.6978 61C47.9263 61 45.0142 62.268 42.7126 64.938C41.6896 63.748 40.2279 63 38.6002 63C35.5089 63 33 65.688 33 69V83C33 86.312 35.5089 89 38.6002 89C40.6162 89 42.3784 87.854 43.3659 86.14L45.9569 87.992C46.8772 88.65 47.958 89 49.0631 89H66.601C66.9837 89 67.3551 88.874 67.6688 88.64L87.0155 74.152C87.0845 74.098 87.1517 74.04 87.2152 73.976C89.4777 71.722 89.6065 67.924 87.5027 65.5C85.4567 63.142 82.0481 62.948 79.7819 65.012C79.7875 65.006 62.3971 75 62.3971 75H54.4673C53.9521 75 53.5339 74.552 53.5339 74C53.5339 73.522 53.9334 73 54.4673 73H61.0008C64.0902 73 66.601 70.312 66.601 67C66.601 63.688 64.0902 61 61.0008 61H49.6978ZM49.6978 65H61.0008C62.0313 65 62.8675 65.896 62.8675 67C62.8675 68.104 62.0313 69 61.0008 69H54.4673C51.796 69 49.8005 71.606 49.8005 74C49.8005 76.762 51.8894 79 54.4673 79H62.8675C63.1756 79 63.478 78.918 63.7505 78.762L81.742 68.422C81.8857 68.34 82.0126 68.238 82.1284 68.122C82.8844 67.37 84.0679 67.414 84.7679 68.222C85.4455 69 85.4306 70.206 84.7549 70.964C84.7511 70.968 66.0111 85 66.0111 85H49.0631C48.6954 85 48.3351 84.884 48.029 84.664L44.2003 81.93V69.504C45.7049 66.598 48.2231 65 49.6978 65ZM38.6002 67C39.6306 67 40.4669 67.896 40.4669 69V83.012C40.4613 84.11 39.6269 85 38.6002 85C37.5697 85 36.7334 84.104 36.7334 83V69C36.7334 67.896 37.5697 67 38.6002 67Z" fill="#235DFA"/>
</svg>
