<svg width="121" height="121" viewBox="0 0 121 121" fill="none" xmlns="http://www.w3.org/2000/svg">
<circle cx="60.5" cy="60.5" r="60.5" fill="#BBDBF9"/>
<path d="M73.76 36H47.24C40.355 36 35 41.25 35 48V56H40.1V48C40.1 44.25 43.415 41 47.24 41H73.76C77.585 41 80.9 44.25 80.9 48V74C80.9 77.75 77.585 81 73.76 81H65.6V86H73.76C80.39 86 86 80.75 86 74V48C86 41.25 80.645 36 73.76 36Z" fill="#235DFA"/>
<path d="M35 61V66C46.22 66 55.4 75 55.4 86H60.5C60.5 72.25 49.025 61 35 61Z" fill="#235DFA"/>
<path d="M35 69.75V74.75C41.375 74.75 46.475 79.75 46.475 86H51.575C51.575 77 44.18 69.75 35 69.75Z" fill="#235DFA"/>
<path d="M35 78.25V83.25C36.53 83.25 37.805 84.5 37.805 86H42.905C42.905 81.75 39.335 78.25 35 78.25Z" fill="#235DFA"/>
<path d="M75.8 48.5C75.8 47 74.78 46 73.25 46H63.05C61.52 46 60.5 47 60.5 48.5C60.5 50 61.52 51 63.05 51H73.25C74.78 51 75.8 50 75.8 48.5Z" fill="#235DFA"/>
</svg>
