<svg width="121" height="121" viewBox="0 0 121 121" fill="none" xmlns="http://www.w3.org/2000/svg">
<circle cx="60.5" cy="60.5" r="60.5" fill="#BBDBF9"/>
<path d="M43.9091 85.1616H46.2012C46.8233 85.1774 47.4293 84.9604 47.9031 84.5521C48.3769 84.1439 48.6851 83.5732 48.7687 82.9493C48.811 82.5285 48.7452 82.1038 48.5778 81.7163C48.4104 81.3287 48.1469 80.9914 47.813 80.737C47.3702 80.4069 46.8321 80.2341 46.2822 80.2454H43.9091C42.8351 80.2454 41.8051 79.8138 41.0456 79.0455C40.2862 78.2772 39.8595 77.2352 39.8595 76.1486V55.6646H78.7357C80.0246 55.6646 81.2606 55.1467 82.172 54.2247C83.0833 53.3028 83.5953 52.0523 83.5953 50.7485V45.013C83.5953 42.6226 82.6566 40.3301 80.9859 38.6398C79.3151 36.9496 77.049 36 74.6861 36H43.9091C41.5463 36 39.2802 36.9496 37.6094 38.6398C35.9386 40.3301 35 42.6226 35 45.013V76.1486C35 77.3322 35.2304 78.5042 35.6782 79.5977C36.1259 80.6912 36.7821 81.6848 37.6094 82.5217C38.4367 83.3587 39.4188 84.0226 40.4998 84.4755C41.5807 84.9284 42.7392 85.1616 43.9091 85.1616ZM54.4381 40.9162H74.6861C75.7602 40.9162 76.7902 41.3478 77.5496 42.1161C78.3091 42.8844 78.7357 43.9264 78.7357 45.013V50.7485H54.4381V40.9162ZM39.8595 45.013C39.8595 43.9264 40.2862 42.8844 41.0456 42.1161C41.8051 41.3478 42.8351 40.9162 43.9091 40.9162H49.5786V50.7485H39.8595V45.013Z" fill="#235DFA"/>
<path d="M65.3963 65.8C65.1987 65.487 64.9335 65.2234 64.6207 65.029C64.3078 64.8346 63.9555 64.7144 63.5902 64.6775H63.3472C62.703 64.6781 62.0854 64.9374 61.6302 65.3985L54.916 72.191C54.508 72.6028 54.1843 73.0919 53.9634 73.6304C53.7426 74.1689 53.6289 74.7462 53.6289 75.3292C53.6289 75.9122 53.7426 76.4894 53.9634 77.0279C54.1843 77.5664 54.508 78.0556 54.916 78.4673L61.6302 85.2598C61.8823 85.5159 62.1871 85.7126 62.5228 85.836C62.8586 85.9593 63.2172 86.0062 63.573 85.9733C63.9287 85.9405 64.2729 85.8287 64.5811 85.6458C64.8893 85.463 65.1538 85.2137 65.3558 84.9157C65.6752 84.4062 65.8086 83.8 65.7332 83.2016C65.6578 82.6033 65.3782 82.0503 64.9428 81.6382L58.6821 75.3292L64.9671 68.9382C65.3861 68.5458 65.6578 68.0188 65.7361 67.4467C65.8143 66.8746 65.6943 66.2927 65.3963 65.8Z" fill="#235DFA"/>
<path d="M84.7372 72.191L78.023 65.3985C77.5678 64.9374 76.9502 64.6781 76.306 64.6775H76.063C75.6998 64.7147 75.3495 64.8341 75.0383 65.0271C74.727 65.22 74.4627 65.4814 74.265 65.7918C73.9639 66.2844 73.8413 66.8675 73.9181 67.4413C73.995 68.0152 74.2664 68.5443 74.6861 68.9382L81.0035 75.3292L74.6861 81.6546C74.2507 82.0667 73.9711 82.6197 73.8957 83.218C73.8203 83.8164 73.9537 84.4226 74.2731 84.9321C74.4751 85.2301 74.7396 85.4794 75.0478 85.6622C75.356 85.845 75.7002 85.9569 76.0559 85.9897C76.4117 86.0226 76.7703 85.9757 77.1061 85.8524C77.4418 85.729 77.7466 85.5323 77.9987 85.2762L84.7129 78.4837C85.1209 78.0719 85.4446 77.5828 85.6655 77.0443C85.8863 76.5058 86 75.9286 86 75.3455C86 74.7625 85.8863 74.1853 85.6655 73.6468C85.4446 73.1083 85.1209 72.6192 84.7129 72.2074L84.7372 72.191Z" fill="#235DFA"/>
</svg>
