<svg width="121" height="121" viewBox="0 0 121 121" fill="none" xmlns="http://www.w3.org/2000/svg">
<circle cx="60.5" cy="60.5" r="60.5" fill="#BBDBF9"/>
<path d="M89.5027 77.497C89.4756 77.4164 89.4447 77.3359 89.4079 77.2593L84.1998 66.3261V58.5357H80.3334V64.4286H41.6691V36.9286H61.0013V33H39.7359C38.6688 33 37.8027 33.88 37.8027 34.9643V66.3123L32.5772 77.2573C32.5289 77.3595 32.4902 77.4636 32.4593 77.5716C31.6415 80.4611 31.916 82.8575 33.2809 84.7C35.3011 87.4284 39.096 88 41.9243 88H80.0628C83.8867 88 87.148 86.625 88.7854 84.3209C89.7076 83.0264 90.5756 80.7891 89.5027 77.497ZM85.6498 82.0207C84.7643 83.2661 82.5701 84.0714 80.0608 84.0714H41.9243C39.212 84.0714 37.186 83.4409 36.3702 82.337C35.796 81.5611 35.7167 80.3766 36.1324 78.813L41.1239 68.3571H80.8728L85.8701 78.8484C86.2858 80.192 86.2123 81.2291 85.6498 82.0207Z" fill="#235DFA"/>
<path d="M66.8009 53.1201C70.679 53.1201 73.7914 53.5798 75.7981 54.4499C76.0398 54.5541 76.2988 54.6071 76.5559 54.6071C76.8131 54.6071 77.0721 54.5541 77.3138 54.4499C79.3475 53.568 82.3131 53.1221 86.1331 53.1201C87.2002 53.1201 88.0663 52.2401 88.0663 51.1558V36.9285C88.0663 35.8442 87.2002 34.9642 86.1331 34.9642C82.2125 34.9642 78.9957 35.416 76.554 36.3078C73.5073 35.2078 69.6254 34.9642 66.8009 34.9642C65.7338 34.9642 64.8677 35.8442 64.8677 36.9285V51.1558C64.8677 52.2401 65.7338 53.1201 66.8009 53.1201ZM84.1999 49.2308C82.0018 49.3232 80.0705 49.5805 78.4002 49.9891V39.8357C79.9468 39.3466 81.8742 39.0382 84.1999 38.9341V49.2308ZM68.7342 38.9321C71.0385 39.0323 72.993 39.321 74.5338 39.7767V49.9517C72.6238 49.5098 70.5726 49.3055 68.7342 49.2308V38.9321Z" fill="#235DFA"/>
<path d="M65.0804 74.1617H57.3475V78.0903H65.0804V74.1617Z" fill="#235DFA"/>
</svg>
