<svg width="121" height="121" viewBox="0 0 121 121" fill="none" xmlns="http://www.w3.org/2000/svg">
<circle cx="60.5" cy="60.5" r="60.5" fill="#BBDBF9"/>
<path fill-rule="evenodd" clip-rule="evenodd" d="M62.4528 73.436C62.2015 73.6454 62.0144 73.9225 61.9133 74.2348C61.8122 74.5472 61.8012 74.8821 61.8816 75.2005L62.0742 75.9594L61.4213 75.54C61.1459 75.3644 60.8267 75.2712 60.5008 75.2712C60.1749 75.2712 59.8557 75.3644 59.5803 75.54L58.9275 75.9594L59.1201 75.2005C59.1997 74.882 59.1883 74.5474 59.0872 74.2352C58.9861 73.923 58.7995 73.6459 58.5489 73.436L57.9482 72.9353L58.7251 72.8868C59.0505 72.8654 59.3631 72.7515 59.6267 72.5582C59.8904 72.3649 60.0942 72.1003 60.2144 71.7949L60.5016 71.0681L60.7889 71.7949C60.9091 72.1003 61.1129 72.3649 61.3765 72.5582C61.6402 72.7515 61.9528 72.8654 62.2782 72.8868L63.055 72.9353L62.4544 73.436H62.4528ZM69.1223 70.9464C69.0167 70.6165 68.8149 70.3263 68.5433 70.1135C68.2718 69.9007 67.9429 69.7753 67.5996 69.7534L63.5871 69.4944L62.0994 65.7295C61.9723 65.4065 61.7519 65.1295 61.4666 64.9342C61.1813 64.739 60.8444 64.6347 60.4996 64.6347C60.1548 64.6347 59.8179 64.739 59.5326 64.9342C59.2473 65.1295 59.0269 65.4065 58.8998 65.7295L57.4146 69.4944L53.4021 69.7534C53.0586 69.7765 52.7298 69.9028 52.4582 70.116C52.1865 70.3291 51.9845 70.6193 51.8781 70.9492C51.7716 71.2791 51.7657 71.6336 51.8611 71.9669C51.9564 72.3002 52.1487 72.5971 52.413 72.8194L55.5083 75.4052L54.5152 79.3329C54.4305 79.6693 54.4479 80.0235 54.5653 80.3498C54.6826 80.6761 54.8944 80.9594 55.1733 81.1631C55.4522 81.3668 55.7853 81.4815 56.1296 81.4923C56.4739 81.5032 56.8135 81.4097 57.1045 81.2239L60.5 79.0574L63.8988 81.2239C64.1896 81.4095 64.529 81.5028 64.8731 81.4918C65.2171 81.4808 65.55 81.366 65.8285 81.1623C66.1071 80.9586 66.3186 80.6753 66.4356 80.3492C66.5526 80.023 66.5698 79.669 66.4848 79.3329L65.4885 75.4069L68.5894 72.821C68.8544 72.5992 69.0471 72.3022 69.1425 71.9687C69.238 71.6352 69.2318 71.2804 69.1247 70.9505L69.1223 70.9464ZM40.3438 77.3596C42.7919 77.7641 45.3331 78.093 47.9191 78.3462C47.0561 76.2596 46.7177 73.9906 46.934 71.7406C47.1503 69.4906 47.9146 67.3292 49.1591 65.4483C50.4035 63.5673 52.0897 62.0251 54.0678 60.9584C56.0459 59.8917 58.2548 59.3336 60.4984 59.3336C62.742 59.3336 64.9509 59.8917 66.929 60.9584C68.9071 62.0251 70.5932 63.5673 71.8377 65.4483C73.0821 67.3292 73.8465 69.4906 74.0628 71.7406C74.2791 73.9906 73.9407 76.2596 73.0776 78.3462C75.6604 78.0938 78.2007 77.7649 80.6497 77.3596C80.9031 77.3215 81.1343 77.1922 81.3004 76.9958C81.4667 76.7993 81.5567 76.5489 81.5539 76.2907V74.0091C81.5539 68.3831 79.3357 62.9875 75.3873 59.0093C71.439 55.0312 66.0838 52.7962 60.5 52.7962C54.9162 52.7962 49.5611 55.0312 45.6127 59.0093C41.6643 62.9875 39.4462 68.3831 39.4462 74.0091V76.2907C39.4431 76.5479 39.5322 76.7975 39.6971 76.9939C39.862 77.1902 40.0916 77.32 40.3438 77.3596ZM50.6039 37.4383C50.6036 35.4662 51.1837 33.5383 52.2709 31.8983C53.3581 30.2584 54.9035 28.9802 56.7118 28.2253C58.52 27.4703 60.5099 27.2726 62.4296 27.6572C64.3494 28.0417 66.1129 28.9912 67.497 30.3856C68.8812 31.78 69.8239 33.5566 70.2059 35.4908C70.5878 37.425 70.392 39.4299 69.643 41.252C68.894 43.074 67.6256 44.6313 65.9982 45.727C64.3707 46.8227 62.4573 47.4075 60.5 47.4075C57.8766 47.4045 55.3615 46.3532 53.5063 44.4843C51.6511 42.6155 50.6073 40.0815 50.6039 37.4383ZM60.5 83.3288C62.5149 83.329 64.4846 82.7271 66.1601 81.5993C67.8355 80.4716 69.1414 78.8685 69.9126 76.993C70.6838 75.1174 70.8856 73.0536 70.4926 71.0624C70.0996 69.0713 69.1294 67.2422 67.7047 65.8067C66.28 64.3711 64.4648 63.3934 62.4886 62.9973C60.5124 62.6012 58.464 62.8044 56.6024 63.5813C54.7409 64.3581 53.1498 65.6737 52.0303 67.3617C50.9109 69.0497 50.3134 71.0343 50.3134 73.0644C50.3168 75.7855 51.3911 78.3941 53.3007 80.3183C55.2103 82.2424 57.7993 83.3251 60.5 83.3288ZM64.7312 92.6106L61.587 90.0256C61.2799 89.7736 60.896 89.636 60.5 89.636C60.104 89.636 59.7201 89.7736 59.413 90.0256L56.2656 92.6106V86.1152C59.0159 87.0207 61.9809 87.0207 64.7312 86.1152V92.6106ZM53.8085 97.8325C54.1031 97.9731 54.4312 98.0269 54.7548 97.9874C55.0785 97.948 55.3844 97.817 55.6372 97.6096L60.5 93.6072L65.3644 97.6064C65.6168 97.8141 65.9225 97.9454 66.2461 97.9851C66.5696 98.0247 66.8977 97.971 67.1921 97.8302C67.4865 97.6894 67.7353 97.4673 67.9094 97.1897C68.0835 96.9121 68.1758 96.5904 68.1757 96.2621V84.4067C69.1558 83.7303 70.0448 82.9288 70.8205 82.0223C74.3727 81.7493 77.8662 81.3349 81.2095 80.7824C82.2683 80.6103 83.2315 80.0636 83.9262 79.2403C84.6209 78.4171 85.0017 77.3713 85 76.2907V74.0091C84.981 68.3568 83.0453 62.8807 79.5138 58.4888C75.9823 54.097 71.0671 51.0531 65.5831 49.8618C68.4376 48.6761 70.7954 46.5293 72.2543 43.7875C73.7131 41.0458 74.1827 37.879 73.5828 34.8274C72.983 31.7758 71.3509 29.0284 68.965 27.0538C66.5791 25.0793 63.5872 24 60.4996 24C57.412 24 54.4201 25.0793 52.0342 27.0538C49.6483 29.0284 48.0162 31.7758 47.4164 34.8274C46.8165 37.879 47.2861 41.0458 48.7449 43.7875C50.2038 46.5293 52.5616 48.6761 55.4161 49.8618C49.9323 51.0534 45.0174 54.0974 41.486 58.4892C37.9547 62.881 36.0191 68.3569 36 74.0091V76.2907C35.9965 77.3723 36.3765 78.4197 37.0714 79.2441C37.7664 80.0685 38.7306 80.6157 39.7905 80.7874C43.1363 81.3382 46.6241 81.7543 50.1795 82.0272C50.9553 82.9338 51.8443 83.7352 52.8243 84.4116V96.2621C52.8234 96.591 52.9155 96.9133 53.0898 97.1914C53.264 97.4696 53.5133 97.6919 53.8085 97.8325Z" fill="#235DFA"/>
</svg>
