<svg width="121" height="121" viewBox="0 0 121 121" fill="none" xmlns="http://www.w3.org/2000/svg">
<circle cx="60.5" cy="60.5" r="60.5" fill="#BBDBF9"/>
<path fill-rule="evenodd" clip-rule="evenodd" d="M37.216 50.2125C35.8694 50.6367 34.9689 51.8805 35.0008 53.2664C35.0407 54.6523 35.9969 55.85 37.3674 56.207L59.4875 61.9906L65.392 83.6803C65.7506 85.0201 66.9698 85.9639 68.3881 85.999C69.7985 86.0334 71.0655 85.1514 71.5037 83.8311L85.8467 40.0813C86.2133 38.9657 85.9105 37.7438 85.0658 36.9157C84.2212 36.0868 82.9702 35.7915 81.8387 36.1501L37.216 50.2125ZM65.647 60.3734L68.7547 71.7936L77.8784 43.9625L49.4872 52.9086L61.1369 55.9539L63.8223 53.3219C65.0653 52.1023 67.0893 52.1023 68.3323 53.3219C69.5754 54.5414 69.5754 56.5211 68.3323 57.7406L65.647 60.3734Z" fill="#235DFA"/>
</svg>
