<svg width="121" height="121" viewBox="0 0 121 121" fill="none" xmlns="http://www.w3.org/2000/svg">
<circle cx="60.5" cy="60.5" r="60.5" fill="#BBDBF9"/>
<path d="M80.1429 43.4667H62.4643V35.1407C63.0542 34.812 63.5462 34.3366 63.8909 33.762C64.2356 33.1875 64.421 32.5339 64.4286 31.8667C64.4286 30.8412 64.0147 29.8577 63.2779 29.1325C62.5412 28.4074 61.5419 28 60.5 28C59.4581 28 58.4588 28.4074 57.7221 29.1325C56.9853 29.8577 56.5714 30.8412 56.5714 31.8667C56.579 32.5339 56.7644 33.1875 57.1091 33.762C57.4538 34.3366 57.9458 34.812 58.5357 35.1407V43.4667H40.8571C38.774 43.469 36.7769 44.2845 35.3039 45.7343C33.8309 47.1841 33.0024 49.1497 33 51.2V78.2667C33.0024 80.317 33.8309 82.2826 35.3039 83.7324C36.7769 85.1821 38.774 85.9977 40.8571 86H80.1429C82.226 85.9977 84.2231 85.1821 85.6961 83.7324C87.169 82.2826 87.9976 80.317 88 78.2667V51.2C87.9976 49.1497 87.169 47.1841 85.6961 45.7343C84.2231 44.2845 82.226 43.469 80.1429 43.4667ZM84.0714 78.2667C84.0704 79.2919 83.6562 80.2748 82.9196 80.9997C82.1831 81.7246 81.1845 82.1323 80.1429 82.1333H40.8571C39.8155 82.1323 38.8169 81.7246 38.0804 80.9997C37.3438 80.2748 36.9296 79.2919 36.9286 78.2667V51.2C36.9296 50.1748 37.3438 49.1919 38.0804 48.467C38.8169 47.7421 39.8155 47.3344 40.8571 47.3333H80.1429C81.1845 47.3344 82.1831 47.7421 82.9196 48.467C83.6562 49.1919 84.0704 50.1748 84.0714 51.2V78.2667ZM48.7143 66.6667C47.9373 66.6667 47.1777 66.4399 46.5317 66.015C45.8856 65.5901 45.3821 64.9862 45.0848 64.2797C44.7874 63.5732 44.7096 62.7957 44.8612 62.0456C45.0128 61.2956 45.3869 60.6066 45.9364 60.0659C46.4858 59.5251 47.1858 59.1568 47.9479 59.0076C48.7099 58.8584 49.4998 58.935 50.2177 59.2277C50.9355 59.5203 51.5491 60.0159 51.9808 60.6518C52.4125 61.2877 52.6429 62.0352 52.6429 62.8C52.6429 63.8255 52.229 64.809 51.4922 65.5341C50.7555 66.2593 49.7562 66.6667 48.7143 66.6667ZM76.2143 62.8C76.2143 63.5648 75.9839 64.3123 75.5522 64.9482C75.1205 65.5841 74.507 66.0797 73.7891 66.3723C73.0713 66.665 72.2814 66.7416 71.5193 66.5924C70.7572 66.4432 70.0572 66.0749 69.5078 65.5341C68.9584 64.9934 68.5842 64.3044 68.4326 63.5543C68.281 62.8043 68.3588 62.0268 68.6562 61.3203C68.9535 60.6137 69.4571 60.0099 70.1031 59.585C70.7492 59.1601 71.5087 58.9333 72.2857 58.9333C73.3276 58.9333 74.3269 59.3407 75.0636 60.0659C75.8004 60.791 76.2143 61.7745 76.2143 62.8ZM72.0056 71.4169C72.1387 71.6346 72.2268 71.876 72.2648 72.1273C72.3029 72.3786 72.2902 72.6347 72.2275 72.8812C72.1647 73.1276 72.0532 73.3594 71.8993 73.5633C71.7454 73.7672 71.552 73.9392 71.3304 74.0695C68.0619 76.01 64.3171 77.0356 60.5 77.0356C56.6828 77.0356 52.9381 76.01 49.6696 74.0695C49.4478 73.9393 49.2544 73.7674 49.1002 73.5636C48.9461 73.3598 48.8343 73.128 48.7713 72.8816C48.7082 72.6352 48.6952 72.379 48.7329 72.1276C48.7706 71.8762 48.8583 71.6347 48.991 71.4167C49.1236 71.1987 49.2987 71.0086 49.5061 70.8573C49.7135 70.706 49.9492 70.5965 50.1997 70.5349C50.4501 70.4734 50.7105 70.4611 50.9658 70.4987C51.2211 70.5363 51.4664 70.6231 51.6876 70.7541C54.3567 72.3059 57.4 73.1245 60.5 73.1245C63.6 73.1245 66.6433 72.3059 69.3124 70.7541C69.7593 70.4924 70.2933 70.4153 70.7978 70.5394C71.3023 70.6636 71.7364 70.979 72.0056 71.4169Z" fill="#235DFA"/>
</svg>
