<svg width="121" height="121" viewBox="0 0 121 121" fill="none" xmlns="http://www.w3.org/2000/svg">
<circle cx="60.5" cy="60.5" r="60.5" fill="#BBDBF9"/>
<path d="M86.9828 61.6325V48.7455C86.9828 45.9105 84.6632 43.5908 81.8282 43.5908H50.9003C49.9552 43.5908 49.1821 44.364 49.1821 45.3091C49.1821 46.2541 49.9552 47.0273 50.9003 47.0273H81.8282C82.7732 47.0273 83.5464 47.8005 83.5464 48.7455V61.6325C83.5464 62.3885 83.0309 63.0758 82.3093 63.2819L49.5944 72.8182L44.4569 39.3643C44.0617 36.8385 41.9311 35 39.371 35H33.7182C32.7732 35 32 35.7732 32 36.7182C32 37.6633 32.7732 38.4364 33.7182 38.4364H39.354C40.2131 38.4364 40.9176 39.055 41.055 39.8969L47.0344 78.7458C47.3781 80.9795 49.0791 82.6633 51.244 83.0413C49.9382 86.5121 52.567 90 56.055 90C59.5431 90 62.1373 86.6151 60.9004 83.1271H71.8453C70.6082 86.5979 73.237 90 76.6907 90C80.1443 90 82.7729 86.6151 81.5361 83.1271H85.2818C86.2268 83.1271 87 82.3539 87 81.4089C87 80.4638 86.2268 79.6907 85.2818 79.6907H52.1375C51.2784 79.6907 50.5739 79.0721 50.4364 78.2302L50.1272 76.2542L83.2714 66.5981C85.4536 65.9624 86.9828 63.9177 86.9828 61.6496L86.9828 61.6325ZM57.7732 84.8287C57.7732 85.7738 57 86.5469 56.0549 86.5469C55.1099 86.5469 54.3367 85.7738 54.3367 84.8287C54.3367 83.8837 55.1099 83.1105 56.0549 83.1105C57 83.1105 57.7732 83.8837 57.7732 84.8287ZM78.3918 84.8287C78.3918 85.7738 77.6186 86.5469 76.6735 86.5469C75.7285 86.5469 74.9553 85.7738 74.9553 84.8287C74.9553 83.8837 75.7285 83.1105 76.6735 83.1105C77.6186 83.1105 78.3918 83.8837 78.3918 84.8287Z" fill="#235DFA"/>
<path d="M54.3367 65.9277C53.3917 65.9277 52.6185 65.1545 52.6185 64.2094V53.9001C52.6185 52.9551 53.3917 52.1819 54.3367 52.1819C55.2818 52.1819 56.0549 52.9551 56.0549 53.9001V64.2094C56.0549 65.1545 55.2818 65.9277 54.3367 65.9277Z" fill="#235DFA"/>
<path d="M64.646 64.2094C63.701 64.2094 62.9278 63.4363 62.9278 62.4912V53.9001C62.9278 52.9551 63.701 52.1819 64.646 52.1819C65.5911 52.1819 66.3642 52.9551 66.3642 53.9001V62.4912C66.3642 63.4363 65.5911 64.2094 64.646 64.2094Z" fill="#235DFA"/>
<path d="M74.9553 60.773C74.0103 60.773 73.2371 59.9998 73.2371 59.0548V53.9001C73.2371 52.9551 74.0103 52.1819 74.9553 52.1819C75.9004 52.1819 76.6735 52.9551 76.6735 53.9001V59.0548C76.6735 59.9998 75.9004 60.773 74.9553 60.773Z" fill="#235DFA"/>
</svg>
