<svg width="121" height="121" viewBox="0 0 121 121" fill="none" xmlns="http://www.w3.org/2000/svg">
<circle cx="60.5" cy="60.5" r="60.5" fill="#BBDBF9"/>
<path fill-rule="evenodd" clip-rule="evenodd" d="M62.6047 46.0227C63.2491 46.0227 63.8518 46.3404 64.2162 46.8718L67.4978 51.6602L73.0658 53.3015C73.6839 53.4837 74.1722 53.9589 74.3715 54.5716C74.5705 55.1844 74.4546 55.8558 74.0618 56.3666L70.5218 60.9672L70.6815 66.7698C70.6992 67.4139 70.3981 68.0253 69.8769 68.404C69.3557 68.7827 68.6814 68.8801 68.0742 68.6642L62.6047 66.7193L57.1355 68.6642C56.5283 68.8801 55.854 68.7827 55.3328 68.404C54.8113 68.0253 54.5105 67.4139 54.5282 66.7698L54.6878 60.9672L51.1479 56.3666C50.755 55.8558 50.6392 55.1844 50.8383 54.5716C51.0373 53.9589 51.5258 53.4837 52.1438 53.3015L57.7119 51.6602L60.9935 46.8718C61.3576 46.3404 61.9606 46.0227 62.6047 46.0227ZM62.6047 51.4317L60.5418 54.4419C60.2879 54.8125 59.9139 55.0842 59.4828 55.2113L55.9827 56.2431L58.2078 59.1353C58.4818 59.4914 58.6248 59.931 58.6123 60.3803L58.512 64.0282L61.9502 62.8053C62.3737 62.655 62.836 62.655 63.2593 62.8053L66.6977 64.0282L66.5974 60.3803C66.5849 59.931 66.7279 59.4914 67.0019 59.1353L69.2271 56.2431L65.7269 55.2113C65.2959 55.0842 64.9218 54.8125 64.6679 54.4419L62.6047 51.4317Z" fill="#235DFA"/>
<path fill-rule="evenodd" clip-rule="evenodd" d="M61.2234 33.5722C61.5896 33.2058 62.0866 33 62.6046 33H86.0465C87.1254 33 88 33.8746 88 34.9535V58.3954C88 58.9134 87.7942 59.4104 87.4278 59.7766L69.1952 78.0092C68.4323 78.7721 67.1956 78.7721 66.4327 78.0092C65.6698 77.2463 65.6698 76.0096 66.4327 75.2467L84.093 57.5861V36.907H63.4139L36.7161 63.6047L57.3953 84.2838L58.6187 83.0607C59.3817 82.2978 60.6183 82.2978 61.3812 83.0607C62.1441 83.8236 62.1441 85.0603 61.3812 85.8232L58.7766 88.4278C58.0137 89.1907 56.777 89.1907 56.0141 88.4278L32.5722 64.9859C31.8093 64.223 31.8093 62.9863 32.5722 62.2234L61.2234 33.5722Z" fill="#235DFA"/>
</svg>
