<svg width="224" height="499" viewBox="0 0 224 499" fill="none" xmlns="http://www.w3.org/2000/svg">
<rect x="79" width="65" height="499" rx="32.5" fill="white" fill-opacity="0.65"/>
<circle cx="111.5" cy="35.5" r="28.5" fill="#5884FF"/>
<path d="M117.408 44.4399V46.9999H106.112V44.4399H110.464V26.9999C110.293 27.2559 110.016 27.5439 109.632 27.8639C109.248 28.1626 108.8 28.4613 108.288 28.7599C107.797 29.0373 107.296 29.2719 106.784 29.4639C106.272 29.6559 105.803 29.7519 105.376 29.7519V27.1279C105.952 27.1279 106.528 26.9786 107.104 26.6799C107.701 26.3813 108.245 26.0293 108.736 25.6239C109.248 25.2186 109.653 24.8559 109.952 24.5359C110.272 24.2159 110.443 24.0453 110.464 24.0239H113.344V44.4399H117.408Z" fill="#FAF8F5"/>
<circle cx="111.5" cy="142.5" r="28.5" fill="#5884FF"/>
<path d="M104.472 154C104.472 152.72 104.579 151.589 104.792 150.608C105.027 149.605 105.357 148.709 105.784 147.92C106.232 147.131 106.765 146.437 107.384 145.84C108.003 145.243 108.707 144.709 109.496 144.24C110.328 143.749 111.181 143.301 112.056 142.896C112.931 142.491 113.741 142.064 114.488 141.616C115.235 141.168 115.832 140.635 116.28 140.016C116.749 139.376 116.984 138.587 116.984 137.648C116.984 136.901 116.824 136.229 116.504 135.632C116.184 135.013 115.704 134.523 115.064 134.16C114.424 133.797 113.603 133.616 112.6 133.616C111.597 133.616 110.691 133.787 109.88 134.128C109.091 134.469 108.408 134.875 107.832 135.344C107.256 135.813 106.797 136.261 106.456 136.688L104.632 134.864C104.803 134.651 105.101 134.331 105.528 133.904C105.976 133.477 106.541 133.04 107.224 132.592C107.928 132.144 108.749 131.771 109.688 131.472C110.627 131.152 111.693 130.992 112.888 130.992C114.488 130.992 115.821 131.291 116.888 131.888C117.955 132.485 118.755 133.285 119.288 134.288C119.843 135.291 120.12 136.4 120.12 137.616C120.12 138.704 119.917 139.643 119.512 140.432C119.107 141.2 118.584 141.851 117.944 142.384C117.304 142.917 116.6 143.387 115.832 143.792C115.085 144.197 114.36 144.581 113.656 144.944C112.312 145.584 111.245 146.171 110.456 146.704C109.667 147.237 109.059 147.76 108.632 148.272C108.227 148.763 107.949 149.264 107.8 149.776C107.672 150.288 107.597 150.843 107.576 151.44H120.152V154H104.472Z" fill="#FAF8F5"/>
<circle cx="111.5" cy="249.5" r="28.5" fill="#5884FF"/>
<path d="M111.992 260.288C110.691 260.288 109.507 260.086 108.44 259.68C107.395 259.254 106.52 258.667 105.816 257.92C105.133 257.152 104.685 256.267 104.472 255.264L106.072 253.568C106.136 254.187 106.413 254.816 106.904 255.456C107.395 256.096 108.067 256.63 108.92 257.056C109.795 257.462 110.808 257.664 111.96 257.664C112.941 257.664 113.827 257.504 114.616 257.184C115.405 256.843 116.035 256.374 116.504 255.776C116.973 255.179 117.208 254.486 117.208 253.696C117.208 252.822 116.92 252.075 116.344 251.456C115.768 250.838 114.947 250.368 113.88 250.048C112.835 249.728 111.587 249.568 110.136 249.568H109.048V247.168H110.136C112.099 247.168 113.667 246.859 114.84 246.24C116.013 245.6 116.6 244.651 116.6 243.392C116.6 242.582 116.376 241.888 115.928 241.312C115.501 240.715 114.925 240.267 114.2 239.968C113.496 239.648 112.739 239.488 111.928 239.488C110.563 239.488 109.4 239.798 108.44 240.416C107.501 241.014 106.84 241.718 106.456 242.528L104.568 240.576C104.995 239.83 105.592 239.19 106.36 238.656C107.128 238.123 107.992 237.718 108.952 237.44C109.912 237.142 110.893 236.992 111.896 236.992C113.368 236.992 114.68 237.27 115.832 237.824C117.005 238.379 117.923 239.126 118.584 240.064C119.245 241.003 119.576 242.07 119.576 243.264C119.576 244.118 119.405 244.886 119.064 245.568C118.723 246.23 118.221 246.784 117.56 247.232C116.899 247.68 116.099 248.022 115.16 248.256C116.163 248.427 117.037 248.79 117.784 249.344C118.531 249.899 119.107 250.582 119.512 251.392C119.917 252.203 120.12 253.088 120.12 254.048C120.12 255.371 119.736 256.502 118.968 257.44C118.2 258.358 117.197 259.062 115.96 259.552C114.744 260.043 113.421 260.288 111.992 260.288Z" fill="#FAF8F5"/>
<circle cx="111.5" cy="356.5" r="28.5" fill="#5884FF"/>
<path d="M114.552 368V362.208H103.864V359.68L115.416 345.28H117.368V359.648H120.184V362.208H117.368V368H114.552ZM106.808 359.648H114.84V349.6L106.808 359.648Z" fill="#FAF8F5"/>
<circle cx="111.5" cy="463.5" r="28.5" fill="#5884FF"/>
<path d="M111.544 475.32C109.923 475.32 108.461 474.936 107.16 474.168C105.88 473.4 104.899 472.365 104.216 471.064L105.976 469.528C106.573 470.509 107.363 471.298 108.344 471.896C109.347 472.493 110.424 472.792 111.576 472.792C112.557 472.792 113.432 472.578 114.2 472.152C114.968 471.725 115.576 471.138 116.024 470.392C116.472 469.645 116.696 468.781 116.696 467.8C116.696 466.84 116.472 465.997 116.024 465.272C115.597 464.546 115.011 463.981 114.264 463.576C113.539 463.149 112.717 462.936 111.8 462.936C110.904 462.936 110.051 463.138 109.24 463.544C108.429 463.949 107.779 464.525 107.288 465.272H104.728L107.288 452.28H118.328V454.872H109.368L107.992 462.104C108.461 461.592 109.048 461.197 109.752 460.92C110.477 460.642 111.277 460.504 112.152 460.504C113.56 460.504 114.819 460.813 115.928 461.432C117.059 462.05 117.944 462.904 118.584 463.992C119.245 465.058 119.576 466.306 119.576 467.736C119.576 469.229 119.213 470.552 118.488 471.704C117.784 472.834 116.824 473.72 115.608 474.36C114.413 475 113.059 475.32 111.544 475.32Z" fill="#FAF8F5"/>
<path d="M218.333 464C218.333 465.473 219.527 466.667 221 466.667C222.473 466.667 223.667 465.473 223.667 464C223.667 462.527 222.473 461.333 221 461.333C219.527 461.333 218.333 462.527 218.333 464ZM157 464.5H159.667V463.5H157V464.5ZM165 464.5H170.333V463.5H165V464.5ZM175.667 464.5H181V463.5H175.667V464.5ZM186.333 464.5H191.667V463.5H186.333V464.5ZM197 464.5H202.333V463.5H197V464.5ZM207.667 464.5H213V463.5H207.667V464.5ZM218.333 464.5H221V463.5H218.333V464.5Z" fill="#FAF8F5"/>
<path d="M5.66667 357C5.66667 355.527 4.47276 354.333 3 354.333C1.52724 354.333 0.333336 355.527 0.333336 357C0.333336 358.473 1.52724 359.667 3 359.667C4.47276 359.667 5.66667 358.473 5.66667 357ZM67 356.5L64.3333 356.5L64.3333 357.5L67 357.5L67 356.5ZM59 356.5L53.6667 356.5L53.6667 357.5L59 357.5L59 356.5ZM48.3333 356.5L43 356.5L43 357.5L48.3333 357.5L48.3333 356.5ZM37.6667 356.5L32.3333 356.5L32.3333 357.5L37.6667 357.5L37.6667 356.5ZM27 356.5L21.6667 356.5L21.6667 357.5L27 357.5L27 356.5ZM16.3333 356.5L11 356.5L11 357.5L16.3333 357.5L16.3333 356.5ZM5.66667 356.5L3 356.5L3 357.5L5.66667 357.5L5.66667 356.5Z" fill="#FAF8F5"/>
<path d="M218.333 249C218.333 250.473 219.527 251.667 221 251.667C222.473 251.667 223.667 250.473 223.667 249C223.667 247.527 222.473 246.333 221 246.333C219.527 246.333 218.333 247.527 218.333 249ZM157 249.5H159.667V248.5H157V249.5ZM165 249.5H170.333V248.5H165V249.5ZM175.667 249.5H181V248.5H175.667V249.5ZM186.333 249.5H191.667V248.5H186.333V249.5ZM197 249.5H202.333V248.5H197V249.5ZM207.667 249.5H213V248.5H207.667V249.5ZM218.333 249.5H221V248.5H218.333V249.5Z" fill="#FAF8F5"/>
<path d="M5.66667 143C5.66667 141.527 4.47276 140.333 3 140.333C1.52724 140.333 0.333336 141.527 0.333336 143C0.333336 144.473 1.52724 145.667 3 145.667C4.47276 145.667 5.66667 144.473 5.66667 143ZM67 142.5L64.3333 142.5L64.3333 143.5L67 143.5L67 142.5ZM59 142.5L53.6667 142.5L53.6667 143.5L59 143.5L59 142.5ZM48.3333 142.5L43 142.5L43 143.5L48.3333 143.5L48.3333 142.5ZM37.6667 142.5L32.3333 142.5L32.3333 143.5L37.6667 143.5L37.6667 142.5ZM27 142.5L21.6667 142.5L21.6667 143.5L27 143.5L27 142.5ZM16.3333 142.5L11 142.5L11 143.5L16.3333 143.5L16.3333 142.5ZM5.66667 142.5L3 142.5L3 143.5L5.66667 143.5L5.66667 142.5Z" fill="#FAF8F5"/>
<path d="M218.333 36C218.333 37.4728 219.527 38.6667 221 38.6667C222.473 38.6667 223.667 37.4728 223.667 36C223.667 34.5272 222.473 33.3333 221 33.3333C219.527 33.3333 218.333 34.5272 218.333 36ZM157 36.5H159.667V35.5H157V36.5ZM165 36.5H170.333V35.5H165V36.5ZM175.667 36.5H181V35.5H175.667V36.5ZM186.333 36.5H191.667V35.5H186.333V36.5ZM197 36.5H202.333V35.5H197V36.5ZM207.667 36.5H213V35.5H207.667V36.5ZM218.333 36.5H221V35.5H218.333V36.5Z" fill="#FAF8F5"/>
</svg>
