<svg width="127" height="486" viewBox="0 0 127 486" fill="none" xmlns="http://www.w3.org/2000/svg">
<rect width="65" height="486" rx="32.5" fill="white" fill-opacity="0.65"/>
<circle cx="32.5" cy="35.5" r="28.5" fill="#5884FF"/>
<circle cx="32.5" cy="127.5" r="28.5" fill="#5884FF"/>
<circle cx="32.5" cy="219.5" r="28.5" fill="#5884FF"/>
<circle cx="32.5" cy="341.5" r="28.5" fill="#5884FF"/>
<circle cx="32.5" cy="450.5" r="28.5" fill="#5884FF"/>
<path d="M38.408 44.4399V46.9999H27.112V44.4399H31.464V26.9999C31.2933 27.2559 31.016 27.5439 30.632 27.8639C30.248 28.1626 29.8 28.4613 29.288 28.7599C28.7973 29.0373 28.296 29.2719 27.784 29.4639C27.272 29.6559 26.8026 29.7519 26.376 29.7519V27.1279C26.952 27.1279 27.528 26.9786 28.104 26.6799C28.7013 26.3813 29.2453 26.0293 29.736 25.6239C30.248 25.2186 30.6533 24.8559 30.952 24.5359C31.272 24.2159 31.4426 24.0453 31.464 24.0239H34.344V44.4399H38.408Z" fill="#FAF8F5"/>
<path d="M25.4722 139C25.4722 137.72 25.5788 136.589 25.7922 135.608C26.0268 134.605 26.3575 133.709 26.7842 132.92C27.2322 132.131 27.7655 131.437 28.3842 130.84C29.0028 130.243 29.7068 129.709 30.4962 129.24C31.3282 128.749 32.1815 128.301 33.0562 127.896C33.9308 127.491 34.7415 127.064 35.4882 126.616C36.2348 126.168 36.8322 125.635 37.2802 125.016C37.7495 124.376 37.9842 123.587 37.9842 122.648C37.9842 121.901 37.8242 121.229 37.5042 120.632C37.1842 120.013 36.7042 119.523 36.0642 119.16C35.4242 118.797 34.6028 118.616 33.6002 118.616C32.5975 118.616 31.6908 118.787 30.8802 119.128C30.0908 119.469 29.4082 119.875 28.8322 120.344C28.2562 120.813 27.7975 121.261 27.4562 121.688L25.6322 119.864C25.8028 119.651 26.1015 119.331 26.5282 118.904C26.9762 118.477 27.5415 118.04 28.2242 117.592C28.9282 117.144 29.7495 116.771 30.6882 116.472C31.6268 116.152 32.6935 115.992 33.8882 115.992C35.4882 115.992 36.8215 116.291 37.8882 116.888C38.9548 117.485 39.7548 118.285 40.2882 119.288C40.8428 120.291 41.1202 121.4 41.1202 122.616C41.1202 123.704 40.9175 124.643 40.5122 125.432C40.1068 126.2 39.5842 126.851 38.9442 127.384C38.3042 127.917 37.6002 128.387 36.8322 128.792C36.0855 129.197 35.3602 129.581 34.6562 129.944C33.3122 130.584 32.2455 131.171 31.4562 131.704C30.6668 132.237 30.0588 132.76 29.6322 133.272C29.2268 133.763 28.9495 134.264 28.8002 134.776C28.6722 135.288 28.5975 135.843 28.5762 136.44H41.1522V139H25.4722Z" fill="#FAF8F5"/>
<path d="M32.9922 230.288C31.6908 230.288 30.5068 230.085 29.4402 229.68C28.3948 229.253 27.5202 228.667 26.8162 227.92C26.1335 227.152 25.6855 226.267 25.4722 225.264L27.0722 223.568C27.1362 224.187 27.4135 224.816 27.9042 225.456C28.3948 226.096 29.0668 226.629 29.9202 227.056C30.7948 227.461 31.8082 227.664 32.9602 227.664C33.9415 227.664 34.8268 227.504 35.6162 227.184C36.4055 226.843 37.0348 226.373 37.5042 225.776C37.9735 225.179 38.2082 224.485 38.2082 223.696C38.2082 222.821 37.9202 222.075 37.3442 221.456C36.7682 220.837 35.9468 220.368 34.8802 220.048C33.8348 219.728 32.5868 219.568 31.1362 219.568H30.0482V217.168H31.1362C33.0988 217.168 34.6668 216.859 35.8402 216.24C37.0135 215.6 37.6002 214.651 37.6002 213.392C37.6002 212.581 37.3762 211.888 36.9282 211.312C36.5015 210.715 35.9255 210.267 35.2002 209.968C34.4962 209.648 33.7388 209.488 32.9282 209.488C31.5628 209.488 30.4002 209.797 29.4402 210.416C28.5015 211.013 27.8402 211.717 27.4562 212.528L25.5682 210.576C25.9948 209.829 26.5922 209.189 27.3602 208.656C28.1282 208.123 28.9922 207.717 29.9522 207.44C30.9122 207.141 31.8935 206.992 32.8962 206.992C34.3682 206.992 35.6802 207.269 36.8322 207.824C38.0055 208.379 38.9228 209.125 39.5842 210.064C40.2455 211.003 40.5762 212.069 40.5762 213.264C40.5762 214.117 40.4055 214.885 40.0642 215.568C39.7228 216.229 39.2215 216.784 38.5602 217.232C37.8988 217.68 37.0988 218.021 36.1602 218.256C37.1628 218.427 38.0375 218.789 38.7842 219.344C39.5308 219.899 40.1068 220.581 40.5122 221.392C40.9175 222.203 41.1202 223.088 41.1202 224.048C41.1202 225.371 40.7362 226.501 39.9682 227.44C39.2002 228.357 38.1975 229.061 36.9602 229.552C35.7442 230.043 34.4215 230.288 32.9922 230.288Z" fill="#FAF8F5"/>
<path d="M35.5518 353V347.208H24.8638V344.68L36.4158 330.28H38.3678V344.648H41.1838V347.208H38.3678V353H35.5518ZM27.8078 344.648H35.8398V334.6L27.8078 344.648Z" fill="#FAF8F5"/>
<path d="M32.5438 462.32C30.9225 462.32 29.4612 461.936 28.1598 461.168C26.8798 460.4 25.8985 459.365 25.2158 458.064L26.9758 456.528C27.5732 457.509 28.3625 458.299 29.3438 458.896C30.3465 459.493 31.4238 459.792 32.5758 459.792C33.5572 459.792 34.4318 459.579 35.1998 459.152C35.9678 458.725 36.5758 458.139 37.0238 457.392C37.4718 456.645 37.6958 455.781 37.6958 454.8C37.6958 453.84 37.4718 452.997 37.0238 452.272C36.5972 451.547 36.0105 450.981 35.2638 450.576C34.5385 450.149 33.7172 449.936 32.7998 449.936C31.9038 449.936 31.0505 450.139 30.2398 450.544C29.4292 450.949 28.7785 451.525 28.2878 452.272H25.7278L28.2878 439.28H39.3278V441.872H30.3678L28.9918 449.104C29.4612 448.592 30.0478 448.197 30.7518 447.92C31.4772 447.643 32.2772 447.504 33.1518 447.504C34.5598 447.504 35.8185 447.813 36.9278 448.432C38.0585 449.051 38.9438 449.904 39.5838 450.992C40.2452 452.059 40.5758 453.307 40.5758 454.736C40.5758 456.229 40.2132 457.552 39.4878 458.704C38.7838 459.835 37.8238 460.72 36.6078 461.36C35.4132 462 34.0585 462.32 32.5438 462.32Z" fill="#FAF8F5"/>
<path d="M121.333 36C121.333 37.4728 122.527 38.6667 124 38.6667C125.473 38.6667 126.667 37.4728 126.667 36C126.667 34.5272 125.473 33.3333 124 33.3333C122.527 33.3333 121.333 34.5272 121.333 36ZM77 36.5H79.35V35.5H77V36.5ZM84.05 36.5H88.75V35.5H84.05V36.5ZM93.45 36.5H98.15V35.5H93.45V36.5ZM102.85 36.5H107.55V35.5H102.85V36.5ZM112.25 36.5H116.95V35.5H112.25V36.5ZM121.65 36.5H124V35.5H121.65V36.5Z" fill="#FAF8F5"/>
<path d="M121.333 220C121.333 221.473 122.527 222.667 124 222.667C125.473 222.667 126.667 221.473 126.667 220C126.667 218.527 125.473 217.333 124 217.333C122.527 217.333 121.333 218.527 121.333 220ZM77 220.5H79.35V219.5H77V220.5ZM84.05 220.5H88.75V219.5H84.05V220.5ZM93.45 220.5H98.15V219.5H93.45V220.5ZM102.85 220.5H107.55V219.5H102.85V220.5ZM112.25 220.5H116.95V219.5H112.25V220.5ZM121.65 220.5H124V219.5H121.65V220.5Z" fill="#FAF8F5"/>
<path d="M121.333 128C121.333 129.473 122.527 130.667 124 130.667C125.473 130.667 126.667 129.473 126.667 128C126.667 126.527 125.473 125.333 124 125.333C122.527 125.333 121.333 126.527 121.333 128ZM77 128.5H79.35V127.5H77V128.5ZM84.05 128.5H88.75V127.5H84.05V128.5ZM93.45 128.5H98.15V127.5H93.45V128.5ZM102.85 128.5H107.55V127.5H102.85V128.5ZM112.25 128.5H116.95V127.5H112.25V128.5ZM121.65 128.5H124V127.5H121.65V128.5Z" fill="#FAF8F5"/>
<path d="M121.333 342C121.333 343.473 122.527 344.667 124 344.667C125.473 344.667 126.667 343.473 126.667 342C126.667 340.527 125.473 339.333 124 339.333C122.527 339.333 121.333 340.527 121.333 342ZM77 342.5H79.35V341.5H77V342.5ZM84.05 342.5H88.75V341.5H84.05V342.5ZM93.45 342.5H98.15V341.5H93.45V342.5ZM102.85 342.5H107.55V341.5H102.85V342.5ZM112.25 342.5H116.95V341.5H112.25V342.5ZM121.65 342.5H124V341.5H121.65V342.5Z" fill="#FAF8F5"/>
<path d="M121.333 451C121.333 452.473 122.527 453.667 124 453.667C125.473 453.667 126.667 452.473 126.667 451C126.667 449.527 125.473 448.333 124 448.333C122.527 448.333 121.333 449.527 121.333 451ZM77 451.5H79.35V450.5H77V451.5ZM84.05 451.5H88.75V450.5H84.05V451.5ZM93.45 451.5H98.15V450.5H93.45V451.5ZM102.85 451.5H107.55V450.5H102.85V451.5ZM112.25 451.5H116.95V450.5H112.25V451.5ZM121.65 451.5H124V450.5H121.65V451.5Z" fill="#FAF8F5"/>
</svg>
